<svg xmlns="http://www.w3.org/2000/svg" viewBox="0 0 468.53 335.44"><defs><style>.cls-1{fill:#fff;}.cls-2{fill:#80445a;}</style></defs><g id="Calque_2" data-name="Calque 2"><g id="Calque_1-2" data-name="Calque 1"><path class="cls-1" d="M319.11,6.67c-.36-.32-.74-.62-1.11-.92l-.82-.67c-5-4.18-10.55-5.41-16.54-3.65-3.08.91-4.84,2.35-5.59,4.76a12.66,12.66,0,0,0-.38,4.32c.19.55,3,1.2,3.24.79a2.68,2.68,0,0,0,.43-1.17c0-.36.06-.69.1-1,.43-3.25,1.86-4.41,5.58-4.79a14.75,14.75,0,0,1,9.12,2.21,8.9,8.9,0,0,1,4.54,7.05c.75,6.66-2.58,11.42-9.63,13.78A54.66,54.66,0,0,1,289.55,30L275,29.73c-7.78-.14-15.82-.28-23.73-.48-2.73-.07-5.52-.32-8.21-.55-1.7-.15-3.39-.3-5.09-.41-4.11-.27-8.22-.48-12.33-.69l-2.27-.12c-.48,0-1,0-1.44,0A15.45,15.45,0,0,1,220,27.4c-6.24-.79-12.89-1.59-19.5-1.85-5.82-.22-11.74-.66-17.46-1.08l-7.3-.53c-1.8-.12-3.61-.22-5.41-.32-4.22-.23-8.57-.48-12.81-1a93,93,0,0,0-15-.78,37.41,37.41,0,0,0-5.32.68,2.8,2.8,0,0,0-2.08,1.25,3.16,3.16,0,0,0,.06,2.72l.16.41h3.16c1.3,0,2.62,0,3.94,0a79.66,79.66,0,0,1,8.74.14c1.93.18,3.9.5,5.79.81a46.94,46.94,0,0,0,10.64.92,5.49,5.49,0,0,1,1.19.08l.25,0c1.47.17,2.94.36,4.41.55,3.1.4,6.32.81,9.5,1.06,5.81.44,11.73.77,17.45,1.09l5.84.33q10.06.59,20.15,1.13c.82,0,1.65.07,2.47.1,1.33,0,2.7.08,4,.21,8.61.84,18.46,1.65,28.53,1.65q3.94,0,7.92-.18c7.93-.37,16.46-.69,25.12-.46a48.76,48.76,0,0,0,17.54-3,9.57,9.57,0,0,0,2.56-1.51A23.45,23.45,0,0,0,322,19.3,11.13,11.13,0,0,0,319.11,6.67Z"/><path class="cls-2" d="M261.44,35.6c-10.32,0-20.24-.83-28.59-1.65-1.31-.13-2.67-.17-4-.21-.86,0-1.68-.05-2.49-.1q-10.08-.54-20.15-1.13l-5.83-.33c-5.71-.32-11.61-.64-17.47-1.09-3.2-.25-6.41-.66-9.53-1.07l-.18,0L169,29.47l-.25,0a5.93,5.93,0,0,0-1.06-.07,47.79,47.79,0,0,1-10.77-.92c-1.9-.31-3.85-.63-5.77-.81a78.39,78.39,0,0,0-8.67-.14c-1.32,0-2.64.05-4,.05H134.9l-.32-.83a3.74,3.74,0,0,1,0-3.26,3.38,3.38,0,0,1,2.54-1.58,40.63,40.63,0,0,1,5.41-.7,95.58,95.58,0,0,1,15.07.79c4.23.53,8.57.77,12.76,1h.22c1.74.1,3.47.2,5.2.32,2.44.16,4.87.34,7.3.52,5.74.43,11.64.86,17.45,1.09,6.61.25,13.29,1.05,19.55,1.85a14.29,14.29,0,0,0,1.76.06h.1c.49,0,1,0,1.47,0L226,27c3.94.21,8,.42,12,.68,1.69.11,3.37.26,5.05.4,2.75.24,5.52.49,8.23.56,7.88.2,15.89.34,23.65.48,4.92.08,9.78.17,14.63.27a54.22,54.22,0,0,0,18.28-2.6c6.73-2.24,9.9-6.77,9.19-13.08a8.26,8.26,0,0,0-4.22-6.57A14.11,14.11,0,0,0,304.09,5c-3.45.36-4.62,1.34-5,4.24,0,.3-.07.62-.1,1a3.26,3.26,0,0,1-.54,1.49c-.31.47-1,.45-1.55.39-.1,0-2.51-.33-2.85-1.33A12.65,12.65,0,0,1,294.43,6c.8-2.6,2.66-4.2,6-5.19,6.2-1.83,12-.56,17.14,3.77l.75.62.17.13c.34.28.69.56,1,.85h0a11.79,11.79,0,0,1,3.07,13.36A24.06,24.06,0,0,1,315,30.36,10.19,10.19,0,0,1,312.23,32a49.47,49.47,0,0,1-17.77,3c-8.64-.22-17.15.09-25.07.46C266.84,35.54,264.17,35.6,261.44,35.6Zm-93.61-7.54a9.32,9.32,0,0,1,1,.09l.27,0,4.24.53.17,0c3.11.4,6.31.82,9.47,1.06,5.85.45,11.74.78,17.44,1.09l5.83.33q10.08.6,20.15,1.13c.8,0,1.61.07,2.41.1,1.39,0,2.77.08,4.12.21,8.32.82,18.21,1.65,28.47,1.65,2.71,0,5.36-.06,7.89-.18,7.94-.37,16.48-.69,25.17-.46a48,48,0,0,0,17.3-2.91,8.87,8.87,0,0,0,2.38-1.41,22.86,22.86,0,0,0,7.21-10.27,10.51,10.51,0,0,0-2.7-11.91h0c-.32-.28-.66-.55-1-.81l-.11-.1-.83-.67c-4.81-4-10.17-5.22-15.94-3.52-2.94.86-4.48,2.16-5.15,4.33a13.91,13.91,0,0,0-.4,3.83,5.49,5.49,0,0,0,2.19.57,1.85,1.85,0,0,0,.23-.71c0-.37.06-.71.11-1,.46-3.54,2.08-4.94,6.16-5.36A15.33,15.33,0,0,1,313.47,6a9.51,9.51,0,0,1,4.86,7.54c.78,7-2.7,12-10.07,14.47a55.66,55.66,0,0,1-18.73,2.66L275,30.38c-7.83-.14-15.85-.28-23.74-.48-2.74-.07-5.53-.32-8.23-.56-1.74-.15-3.41-.29-5.09-.4-4-.26-8.07-.47-12-.68l-2.58-.13c-.47,0-.93,0-1.4,0h-.1a15.36,15.36,0,0,1-1.93-.07c-6.24-.8-12.88-1.59-19.44-1.85-5.83-.22-11.75-.66-17.47-1.08l-7.32-.53-5.18-.31h-.22c-4.22-.23-8.58-.48-12.85-1a94.25,94.25,0,0,0-14.87-.78,37.69,37.69,0,0,0-5.23.68,2.17,2.17,0,0,0-1.62.93,2.53,2.53,0,0,0,.09,2.16h2.72c1.3,0,2.61,0,3.92-.05a78.84,78.84,0,0,1,8.82.15c2,.18,3.94.5,5.84.81a46.44,46.44,0,0,0,10.49.91Z"/><path class="cls-1" d="M178,326.42c-.07-.17-.14-.34-.19-.49-2.78-8-6.83-15.95-13.15-25.82C161,294.5,157,289,153.13,283.75l-2.18-3a32.18,32.18,0,0,0-3.56-3.9c-.39-.38-.79-.76-1.17-1.15a2,2,0,0,0-1.65-.75,2.11,2.11,0,0,0-1.52,1l-.19.27.11.31a2.17,2.17,0,0,1,.07.24,3.06,3.06,0,0,0,.36.92l.73,1.15c1.5,2.37,3.05,4.82,4.63,7.2l6.42,9.61c3.5,5.22,7.12,10.63,10.63,16l.09.14c2.85,4.35,5.8,8.84,7,14a6.09,6.09,0,0,0,3.06,4.43l.24.13.26-.07a2.68,2.68,0,0,0,1.79-1.3A3.25,3.25,0,0,0,178,326.42Z"/><path class="cls-2" d="M176.1,331.1l-.47-.26a6.71,6.71,0,0,1-3.39-4.86c-1.15-5.06-4.06-9.51-6.88-13.81l-.09-.13c-3.57-5.43-7.32-11-10.63-16l-6.42-9.61c-1.61-2.42-3.22-5-4.64-7.21l-.73-1.16a3.66,3.66,0,0,1-.44-1.08c0-.1,0-.16,0-.2l-.22-.62.37-.54a2.72,2.72,0,0,1,2-1.33,2.63,2.63,0,0,1,2.17.94l1.08,1.07.08.08a31.37,31.37,0,0,1,3.63,4l2.18,3c3.89,5.29,7.9,10.76,11.5,16.39,6.35,9.92,10.43,17.92,13.22,25.95,0,.13.1.26.16.4l-.58.31.6-.24a3.73,3.73,0,0,1,.27,3.13,3.31,3.31,0,0,1-2.2,1.64Zm-32.51-54.72c0,.07,0,.16.07.24a2.58,2.58,0,0,0,.29.78l.73,1.15c1.42,2.24,3,4.79,4.62,7.19l6.42,9.61c3.31,4.94,7.07,10.54,10.63,16l.09.13c2.89,4.4,5.87,8.94,7.07,14.23a5.46,5.46,0,0,0,2.74,4h0a2,2,0,0,0,1.38-.95,2.69,2.69,0,0,0-.29-2.08h0l.6-.25-.63.18c-.06-.16-.13-.31-.18-.46-2.75-7.93-6.79-15.85-13.08-25.68-3.58-5.59-7.58-11-11.45-16.32l-2.19-3a31.48,31.48,0,0,0-3.49-3.81l-.08-.08-1.09-1.09a1.23,1.23,0,0,0-2.17.21Z"/><path class="cls-1" d="M340.74,7.57a14.1,14.1,0,0,0-7-6.1c-.47-.22-2.24,1.26-2.22,1.39a5.35,5.35,0,0,0,1.35,1.86,2.08,2.08,0,0,1,.46.26c1.76,1.55,3.68,3.43,4.16,6.18,1,5.67.28,10.18-2.24,14.21a8.6,8.6,0,0,0-.71,1.62,3.67,3.67,0,0,0,1.09,1.87,1.86,1.86,0,0,0,1.44-.31l.15-.14a16.58,16.58,0,0,0,3.5-20.84Z"/><path class="cls-2" d="M336,29.52h-.38c-.35,0-.61-.22-1-.78-.61-.9-.84-1.56-.7-2a8.52,8.52,0,0,1,.77-1.74c2.42-3.89,3.11-8.26,2.15-13.76-.45-2.54-2.27-4.33-3.95-5.8a1.65,1.65,0,0,0-.31-.17A5.29,5.29,0,0,1,330.9,3c0-.34.07-.61,1-1.3,1.29-1,1.83-.93,2.15-.78a14.77,14.77,0,0,1,7.28,6.38h0c3.31,6.18,3.07,12.36-.71,18.36a16.49,16.49,0,0,1-2.91,3.25l-.16.16A2.07,2.07,0,0,1,336,29.52Zm-.14-1.3c.39,0,.62,0,.76-.14l.15-.14a16.34,16.34,0,0,0,2.71-3,16,16,0,0,0,.67-17.06h0a13.48,13.48,0,0,0-6.56-5.76A5.88,5.88,0,0,0,332.3,3a5.78,5.78,0,0,0,.92,1.16,2.4,2.4,0,0,1,.56.34c1.84,1.62,3.85,3.6,4.37,6.55,1,5.84.28,10.5-2.33,14.68a6.52,6.52,0,0,0-.6,1.35A5.58,5.58,0,0,0,335.88,28.22ZM333.49,2.06Z"/><path class="cls-1" d="M436,62.82c-1.65-.06-4.09,1.4-4.22,3a2.71,2.71,0,0,0,.6,2,2.36,2.36,0,0,0,1.71.77h.19a5.53,5.53,0,0,0,3.66-1.3,2.1,2.1,0,0,0,.74-1.47h0A3.3,3.3,0,0,0,436,62.82Z"/><path class="cls-2" d="M434.26,69.27h-.21a3,3,0,0,1-2.17-1,3.35,3.35,0,0,1-.77-2.54c.16-1.93,2.88-3.66,4.89-3.58h0a3.93,3.93,0,0,1,3.3,3.69,2.75,2.75,0,0,1-.95,1.94A6.14,6.14,0,0,1,434.26,69.27Zm1.62-5.8c-1.35,0-3.38,1.22-3.48,2.39a2.06,2.06,0,0,0,.45,1.56,1.68,1.68,0,0,0,1.25.55h.16a4.89,4.89,0,0,0,3.21-1.12,1.5,1.5,0,0,0,.54-1A2.7,2.7,0,0,0,436,63.47Z"/><path class="cls-1" d="M430.48,32.78a4.28,4.28,0,0,0-3.59,1.39c-.37.68-.45,4,1.71,5a2.58,2.58,0,0,0,1,.24,2.67,2.67,0,0,0,2.15-1.24C433.32,36.11,431.77,33,430.48,32.78Z"/><path class="cls-2" d="M429.65,40a3.28,3.28,0,0,1-1.32-.29,3.74,3.74,0,0,1-2-2.3,5.35,5.35,0,0,1,0-3.57,4.89,4.89,0,0,1,4.28-1.72h0a3.4,3.4,0,0,1,2.14,2.26,4.26,4.26,0,0,1-.42,4.12A3.3,3.3,0,0,1,429.65,40Zm.36-6.63a3.92,3.92,0,0,0-2.55,1.09A4.5,4.5,0,0,0,427.6,37a2.44,2.44,0,0,0,1.26,1.5,2,2,0,0,0,.79.18,2.08,2.08,0,0,0,1.63-1,3,3,0,0,0,.25-2.88,2.3,2.3,0,0,0-1.18-1.44A1.87,1.87,0,0,0,430,33.39Z"/><path class="cls-1" d="M412.71,57.48a3.56,3.56,0,0,0-2.63,1,2.57,2.57,0,0,0-.84,1.92,2.21,2.21,0,0,0,2.41,2.25h.05a4.43,4.43,0,0,0,3.2-1.19,2.24,2.24,0,0,0,.57-1.7C415.4,58.8,414.86,57.59,412.71,57.48Z"/><path class="cls-2" d="M411.7,63.33h-.09a2.87,2.87,0,0,1-3-2.87,3.2,3.2,0,0,1,1-2.41,4.14,4.14,0,0,1,3.11-1.22h0c2.87.15,3.32,2.08,3.38,2.91a2.91,2.91,0,0,1-.73,2.19,5.07,5.07,0,0,1-3.66,1.4Zm.86-5.2a2.9,2.9,0,0,0-2,.84,2,2,0,0,0-.65,1.44c0,1,.63,1.57,1.79,1.62a3.83,3.83,0,0,0,2.74-1,1.65,1.65,0,0,0,.41-1.23c-.08-1.07-.79-1.63-2.16-1.7Z"/><path class="cls-1" d="M466.51,39.32a5.48,5.48,0,0,0-2.08-.45A3,3,0,0,0,462,40.35a3,3,0,0,0,.87,2.75,3,3,0,0,0,1.93.81,2.45,2.45,0,0,0,.71-.11c1.13-.37,2.39-2.69,2.39-3.41S466.8,39.43,466.51,39.32Z"/><path class="cls-2" d="M464.78,44.56a3.55,3.55,0,0,1-2.35-1,3.6,3.6,0,0,1-1.06-3.47,3.59,3.59,0,0,1,3-1.9,5.93,5.93,0,0,1,2.27.47l.16.05c.46.15,1.7.54,1.7,1.65s-1.42,3.56-2.84,4A2.8,2.8,0,0,1,464.78,44.56Zm-.25-5.05h-.08a2.39,2.39,0,0,0-1.86,1,2.39,2.39,0,0,0,.69,2,2.11,2.11,0,0,0,2,.57c.82-.27,1.93-2.3,1.94-2.79,0,0,0-.16-.79-.41l-.2-.06A5.12,5.12,0,0,0,464.53,39.51Z"/><path class="cls-1" d="M443.5,50.94c-.45-.67-.81-1.21-1.42-1.32a7.1,7.1,0,0,0-3.41.3,1.1,1.1,0,0,0-.62.63,3.06,3.06,0,0,0-.15,2.06,2.62,2.62,0,0,0,2.49,1.66,3.34,3.34,0,0,0,.82-.1A7.06,7.06,0,0,0,444,52.93C444.47,52.34,443.69,51.24,443.5,50.94Z"/><path class="cls-2" d="M440.39,54.92a3.28,3.28,0,0,1-3.09-2.06,3.69,3.69,0,0,1,.16-2.58,1.75,1.75,0,0,1,1-1A7.84,7.84,0,0,1,442.2,49c.88.17,1.35.86,1.84,1.6h0l-.54.36.57-.31c.29.44,1.19,1.79.39,2.73a7.22,7.22,0,0,1-3.09,1.43A3.67,3.67,0,0,1,440.39,54.92Zm.63-4.74a6.83,6.83,0,0,0-2.15.36c-.1,0-.19.19-.23.28a2.44,2.44,0,0,0-.14,1.55,2.09,2.09,0,0,0,2.55,1.17,6.25,6.25,0,0,0,2.42-1s.14-.23-.49-1.16l0-.05c-.41-.62-.66-1-1-1A4.7,4.7,0,0,0,441,50.18Z"/><path class="cls-1" d="M357,79.11A155.87,155.87,0,0,0,345.64,90.3a78.2,78.2,0,0,0-6.46,8.85l-.82,1.24c-.77,1.16-1.44,2.4-2.09,3.6a36.3,36.3,0,0,1-2.46,4.11c-5,7-8.46,14.72-11.55,22-.32.77-.66,1.55-1,2.32-1,2.43,2.09-4.13-3,7.48s-3.64,46.48-3.34,49.44,3.2,12.22,7.51,18.1c.29.4,3.67,5.72,3.67,5.72,3,6.31,6.09,12.84,8.83,19.38,3.61,8.62,5.87,17.62,7.76,26.07a53.15,53.15,0,0,1,1.55,9.7c.26,6.39.56,13.65-.59,20.68-.86,5.22-1.85,10-3,14.52a35.9,35.9,0,0,1-2,5.28c-.4.91-.8,1.81-1.16,2.73q-4,10.11-7.85,20.24a3.72,3.72,0,0,0-.16,1.47c0,.25,0,.52,0,.81l.87.65c3.81-1.33,4.25-2.17,5.51-5.53,2.09-5.58,4.41-11.18,6.65-16.59l1.19-2.89c.16-.38,3.86-12.82,4.35-17.08a74.86,74.86,0,0,0,.33-8c0-1.54,0-3.14.09-4.7.24-5.47.51-11.67-.44-17.79a150.36,150.36,0,0,0-4.28-19.18l-.42-1.45c-.46-1.58-.94-3.22-1.48-4.81q-.93-2.64-1.91-5.27c-.6-1.64-1.2-3.27-1.77-4.91-1.87-5.38-4-11-7.28-16a67.87,67.87,0,0,1-9.32-19l-.45-1.53c-1-3.38-1.71-14.14-1.75-16.11s-.08-4.08,0-6.09c.06-1.11.12-2.23.17-3.35A102.21,102.21,0,0,1,321,149.65c2.24-11.13,5.09-19.76,9-27.15a132.91,132.91,0,0,1,15.3-23.56A134.75,134.75,0,0,1,355,88.82l1.69-1.64C358.33,85.61,357.49,78.63,357,79.11Z"/><path class="cls-2" d="M330.2,335.44l-1.41-1.06V334c0-.25,0-.47,0-.68a4.77,4.77,0,0,1,.2-1.81c2.72-7.08,5.49-14.2,7.85-20.23.37-.93.77-1.85,1.17-2.77a33.54,33.54,0,0,0,2-5.18c1.17-4.52,2.15-9.25,3-14.45,1.14-7,.85-14.19.59-20.55a53.07,53.07,0,0,0-1.53-9.59c-1.89-8.41-4.14-17.38-7.73-26-2.74-6.53-5.83-13.05-8.82-19.36-1.31-2.06-3.4-5.32-3.6-5.6-4.33-5.91-7.32-15.27-7.64-18.42-.29-2.9-1.82-38,3.39-49.77,1.65-3.73,2.42-5.56,2.76-6.4a1.8,1.8,0,0,1,.26-1.07c.34-.78.67-1.55,1-2.33,3.09-7.33,6.54-15.08,11.62-22.14a38.11,38.11,0,0,0,2.41-4c.62-1.15,1.33-2.45,2.12-3.65l.82-1.24a77,77,0,0,1,6.51-8.92,155.19,155.19,0,0,1,11.37-11.24.74.74,0,0,1,1,.05c.75.8,1.38,7.24-.38,9l-1.69,1.64a129.22,129.22,0,0,0-9.67,10.06,132.4,132.4,0,0,0-15.23,23.45c-3.87,7.34-6.7,15.91-8.93,27a101.94,101.94,0,0,0-1.46,14.72v.29c-.05,1-.1,2.05-.16,3.07-.12,2-.08,4,0,6s.72,12.6,1.72,16l.46,1.52a67.17,67.17,0,0,0,9.23,18.79c3.34,5,5.46,10.69,7.35,16.1.57,1.64,1.17,3.27,1.77,4.9s1.3,3.52,1.91,5.29c.55,1.59,1,3.22,1.48,4.8l.43,1.48a148.4,148.4,0,0,1,4.3,19.27c1,6.19.69,12.42.45,17.92-.07,1.56-.08,3.21-.08,4.67a76.2,76.2,0,0,1-.35,8.11c-.49,4.37-4.22,16.86-4.39,17.26L343,313c-2.21,5.35-4.5,10.88-6.56,16.37-1.29,3.45-1.84,4.51-5.91,5.92Zm-.09-1.69.32.23c3.25-1.17,3.61-1.88,4.79-5,2.07-5.52,4.36-11.06,6.58-16.41l1.27-3.08c.25-.67,3.84-12.84,4.3-16.91a73.28,73.28,0,0,0,.33-8c0-1.48,0-3.15.09-4.74.24-5.44.5-11.6-.44-17.66a147.43,147.43,0,0,0-4.26-19.1l-.42-1.45c-.46-1.6-.93-3.21-1.47-4.77-.61-1.77-1.25-3.52-1.9-5.27s-1.2-3.27-1.78-4.92c-1.86-5.34-3.94-11-7.2-15.81a68.29,68.29,0,0,1-9.4-19.14l-.45-1.52c-1-3.47-1.74-14.17-1.78-16.29s-.08-4.08,0-6.14c.06-1,.11-2,.16-3.05v-.29a102.19,102.19,0,0,1,1.49-14.91c2.25-11.2,5.12-19.88,9.05-27.34a133.41,133.41,0,0,1,15.38-23.67,130,130,0,0,1,9.75-10.15l1.7-1.66c1-.93.84-4.88.5-6.54a146.46,146.46,0,0,0-10.64,10.56,77,77,0,0,0-6.4,8.76l-.83,1.26c-.76,1.15-1.42,2.37-2.06,3.55a38.78,38.78,0,0,1-2.5,4.18c-5,7-8.41,14.63-11.48,21.89-.31.74-.62,1.48-.94,2.22,0,.59-.7,2.2-3.08,7.59-5,11.37-3.56,46.37-3.28,49.12.3,3,3.19,12.06,7.38,17.78.3.4,3.35,5.2,3.69,5.75,3,6.39,6.14,12.92,8.89,19.48,3.63,8.67,5.89,17.7,7.8,26.17a55.17,55.17,0,0,1,1.56,9.82c.26,6.43.56,13.72-.6,20.82-.86,5.24-1.85,10-3,14.57a34.56,34.56,0,0,1-2,5.38c-.39.9-.79,1.8-1.14,2.71-2.36,6-5.14,13.15-7.85,20.23a3.14,3.14,0,0,0-.12,1.23Z"/><path class="cls-1" d="M383.34,54.59c.41,1.93,3.49,2.88,3.82,2.94s2.23-2.25,2.23-2.25a.78.78,0,0,0-.09-1s-3.66-4.07-4.06-3.8A13.48,13.48,0,0,0,383.33,54,2,2,0,0,0,383.34,54.59Z"/><path class="cls-2" d="M387.21,58.19l-.18,0s-3.79-.94-4.32-3.45h0a2,2,0,0,1,0-.78,12.67,12.67,0,0,1,2.19-4c.45-.3.87-.59,4.9,3.91a1.4,1.4,0,0,1,.13,1.84C388.1,57.89,387.54,58.19,387.21,58.19ZM384,54.46c.28,1.31,2.39,2.16,3.11,2.38a19.89,19.89,0,0,0,1.79-2,.11.11,0,0,0,0-.13,39,39,0,0,0-3.45-3.48A16.54,16.54,0,0,0,384,54.15.81.81,0,0,0,384,54.46Z"/><path class="cls-1" d="M378,45.17l-2,2.95a.71.71,0,0,0,.17,1l3.17,2.34a.71.71,0,0,0,.94-.1l2.15-2.43a.69.69,0,0,0-.07-1L379,45A.7.7,0,0,0,378,45.17Z"/><path class="cls-2" d="M379.78,52.2a1.33,1.33,0,0,1-.8-.27l-3.18-2.34a1.35,1.35,0,0,1-.32-1.83l1.94-2.94a1.37,1.37,0,0,1,.94-.59,1.32,1.32,0,0,1,1.06.3l3.38,2.86a1.33,1.33,0,0,1,.14,1.92l-2.16,2.43A1.33,1.33,0,0,1,379.78,52.2Zm-1.2-6.68h-.07l-1.94,2.95,3.18,2.41L382,48.45Z"/><path class="cls-1" d="M396.6,58.09l-3.13-1.48a1.37,1.37,0,0,0-1.8.58L391,58.43a1.38,1.38,0,0,0,.42,1.8L394,62.05a1.38,1.38,0,0,0,1.88-.29l1.22-1.57A1.39,1.39,0,0,0,396.6,58.09Z"/><path class="cls-2" d="M394.8,63a2,2,0,0,1-1.16-.37L391,60.77a2,2,0,0,1-.62-2.65l.69-1.24a2,2,0,0,1,2.65-.86l3.13,1.49a2,2,0,0,1,.74,3.07l-1.21,1.58A2.05,2.05,0,0,1,394.8,63Zm-1.92-5.83a.73.73,0,0,0-.64.38l-.69,1.25a.73.73,0,0,0,.23,1l2.6,1.82a.74.74,0,0,0,1-.16l1.21-1.57a.69.69,0,0,0,.13-.62.74.74,0,0,0-.39-.49l-3.14-1.49A.87.87,0,0,0,392.88,57.12Z"/><path class="cls-1" d="M389,48.36a37.06,37.06,0,0,1,6.59,4.81l.71.71.36-.94c1.21-3.17,1-6,.72-8.75l-.09-1.1c-.14-1.9-2-2.07-2.6-2.13q-4-.36-8-.65c-1.27-.1-2.55-.16-3.92-.24l-3.39-.18.79,1.1C382.59,44.37,385.87,46.4,389,48.36Z"/><path class="cls-2" d="M396.59,55l-1.42-1.4a35.22,35.22,0,0,0-6.48-4.72h0c-3.22-2-6.55-4.06-9.05-7.54l-1.58-2.2,4.74.26c1.38.07,2.66.13,3.94.23,2.72.2,5.43.42,8.05.66S397.9,41.93,398,43l.09,1.1c.25,2.81.5,5.73-.77,9Zm-7.21-7.23a36.69,36.69,0,0,1,6.71,4.9c1.16-3,.92-5.79.69-8.46l-.09-1.1c-.08-.95-.68-1.41-2-1.54-2.62-.24-5.32-.46-8-.65-1.27-.1-2.54-.16-3.92-.24l-2-.11h0c2.35,3.28,5.57,5.27,8.68,7.2l-.34.55Z"/><path class="cls-1" d="M373.33,45.41l.41.34.42-.33c1.29-1,1.87-1.52,1.93-2.25A1.89,1.89,0,0,0,374.81,41c-1.21-.35-3.18,1.35-3.24,2.07S372.16,44.44,373.33,45.41Z"/><path class="cls-2" d="M373.74,46.59l-.82-.68c-1.18-1-2.1-1.73-2-2.91a3.48,3.48,0,0,1,1.57-2,3.19,3.19,0,0,1,2.5-.64,2.48,2.48,0,0,1,1.75,2.85c-.08,1-.78,1.58-2.17,2.7Zm.72-5a2.24,2.24,0,0,0-1,.32,3.22,3.22,0,0,0-1.29,1.23c0,.42.47.89,1.54,1.77h0c1.23-1,1.66-1.36,1.69-1.79.1-1.24-.58-1.44-.81-1.5A.47.47,0,0,0,374.46,41.59Z"/><path class="cls-1" d="M388.8,62.61a38.19,38.19,0,0,0-4.87-3.21c-6.12-3.19-10.28-6.6-13.47-11.06l-.63-.88-.48,1c-.26.52-.5,1-.73,1.49-.47,1-.91,1.91-1.41,2.78-.36.61-.68,1.22-1,1.84s-.55,1.25-.79,1.88a32.8,32.8,0,0,0-1.51,5.71c-.33,1.89-.52,3.74-.66,5.49-.24,3.22.28,5.26,1.67,6.42a4.29,4.29,0,0,0,2,.91,11.45,11.45,0,0,0,4.84-.41,77.47,77.47,0,0,0,13.93-4.76,13.49,13.49,0,0,0,5.55-4.63l.38-.54-.55-.37C390.28,63.7,389.53,63.15,388.8,62.61Z"/><path class="cls-2" d="M368.22,75.71a7.2,7.2,0,0,1-1.44-.13,4.92,4.92,0,0,1-2.25-1c-1.56-1.31-2.16-3.52-1.89-7A54.8,54.8,0,0,1,363.3,62a32,32,0,0,1,1.55-5.82c.24-.66.51-1.31.8-1.93s.64-1.29,1-1.9c.49-.83.92-1.73,1.37-2.68l.64.18-.59-.28c.23-.47.46-1,.71-1.45l1-1.93L371,48c3.13,4.37,7.21,7.72,13.24,10.86a37.6,37.6,0,0,1,4.94,3.26l0,0c.72.53,1.45,1.07,2.22,1.6l1.09.75-.76,1.07a14.07,14.07,0,0,1-5.8,4.85,78.81,78.81,0,0,1-14,4.8A15.13,15.13,0,0,1,368.22,75.71Zm1.71-27c-.25.5-.47,1-.7,1.43l0,.11c-.47,1-.91,1.89-1.42,2.77-.33.57-.65,1.17-.94,1.79s-.53,1.21-.77,1.83a31.47,31.47,0,0,0-1.48,5.6c-.28,1.59-.49,3.31-.65,5.42-.23,3,.22,4.86,1.43,5.87a3.58,3.58,0,0,0,1.67.77,10.84,10.84,0,0,0,4.56-.4A77.64,77.64,0,0,0,385.4,69.2a12.81,12.81,0,0,0,5.3-4.43c-.78-.53-1.53-1.08-2.26-1.62l.36-.54-.39.52h0A37.28,37.28,0,0,0,383.63,60c-6.22-3.25-10.44-6.72-13.7-11.26Z"/><path class="cls-1" d="M261.72,252.05a14.75,14.75,0,0,0-12.12,3.51,29.7,29.7,0,0,0-8,12,32.52,32.52,0,0,0-1.46,6.78c-.16,1.09-.32,2.22-.54,3.32a54,54,0,0,0-1.12,8.08c-.12,2.79-.14,5.62-.16,8.35s0,5.84-.17,8.75a33.54,33.54,0,0,0,1.14,8.77,32.89,32.89,0,0,1,1.1,8.38,2.11,2.11,0,0,0,.68,1.75,1.81,1.81,0,0,0,1.19.43,2.3,2.3,0,0,0,.45,0,2.58,2.58,0,0,0,1.75-2,40.27,40.27,0,0,0-.23-6q-.32-2.75-.68-5.48c-1-7.34-1.94-14.92-1-22.49,1.16-9,3.41-16.46,6.88-22.82,2-3.68,4.66-5.69,8.12-6.13.63-.08,1.26-.19,1.89-.29a17.05,17.05,0,0,1,4.14-.39c.41,0,2.54.86,3.45.64s1.72-3.48,1.44-3.95S264,252.34,261.72,252.05Z"/><path class="cls-2" d="M242.3,322.86a2.45,2.45,0,0,1-1.61-.58,2.76,2.76,0,0,1-.91-2.28,32.26,32.26,0,0,0-1.09-8.21,34.22,34.22,0,0,1-1.15-8.93c.13-2.88.15-5.83.17-8.67s0-5.63.16-8.43a52.33,52.33,0,0,1,1.14-8.18c.21-1.08.37-2.2.52-3.28a33.39,33.39,0,0,1,1.5-6.92,30.28,30.28,0,0,1,8.14-12.31,15.39,15.39,0,0,1,12.64-3.66l1.25.15c4.69.57,5.71.79,6,1.35s-.16,2.59-.48,3.35c-.39.93-.84,1.44-1.36,1.57a6.93,6.93,0,0,1-3-.46c-.29-.08-.52-.16-.63-.17a16.72,16.72,0,0,0-4,.37c-.67.12-1.31.23-1.95.31-3.23.41-5.73,2.31-7.63,5.8-3.43,6.28-5.66,13.67-6.8,22.58-1,7.48,0,15,1,22.31l0,.19c.23,1.77.47,3.54.67,5.32a41.45,41.45,0,0,1,.23,6.07,3.16,3.16,0,0,1-2.27,2.64A2.3,2.3,0,0,1,242.3,322.86Zm17.11-70.31A13.7,13.7,0,0,0,250,256a29,29,0,0,0-7.79,11.79,32,32,0,0,0-1.43,6.63c-.16,1.12-.32,2.26-.54,3.37a52.88,52.88,0,0,0-1.11,8c-.12,2.78-.14,5.6-.16,8.33,0,2.91,0,5.87-.17,8.77A32.87,32.87,0,0,0,240,311.5a33.62,33.62,0,0,1,1.12,8.56,1.48,1.48,0,0,0,.45,1.23,1.24,1.24,0,0,0,1.08.23,2,2,0,0,0,1.24-1.41,40.51,40.51,0,0,0-.22-5.89c-.21-1.76-.44-3.53-.66-5.29l0-.18c-1-7.39-1.95-15-1-22.65,1.16-9.08,3.44-16.62,7-23.05,2.11-3.88,4.93-6,8.61-6.46.62-.08,1.24-.19,1.86-.3a18.26,18.26,0,0,1,4.3-.39,4.64,4.64,0,0,1,.89.22,7.16,7.16,0,0,0,2.36.44,5.89,5.89,0,0,0,1-2.92,43.84,43.84,0,0,0-5.05-.79l-1.26-.15A17,17,0,0,0,259.41,252.55Z"/><path class="cls-1" d="M290.13,265.21a51.93,51.93,0,0,0-4.79-7c-1.74-2.18-5.62-3-7.69-1.55-4.9,3.33-6.77,7.46-5.42,11.93a17,17,0,0,0,.63,1.73,17.6,17.6,0,0,0,2.93,4.68c.54.61,1.12,1.18,1.71,1.73,3.22,3,7.06,5.06,11.1,7.23,1.62.86,3.3,1.76,5,2.73l.82.49.15-.95c.1-.68.21-1.29.32-1.86a19.53,19.53,0,0,0,.4-3C295.38,275.34,292.87,270,290.13,265.21Z"/><path class="cls-2" d="M294.88,288.25l-1.65-1c-1.64-1-3.3-1.85-4.9-2.71-3.93-2.1-8-4.25-11.27-7.33-.7-.65-1.26-1.22-1.76-1.78a18.15,18.15,0,0,1-3-4.85,16.82,16.82,0,0,1-.65-1.8c-1.45-4.77.52-9.15,5.67-12.66,2.36-1.6,6.6-.77,8.57,1.68a53.26,53.26,0,0,1,4.85,7.06c2.78,4.92,5.34,10.31,5.2,16.47a20.6,20.6,0,0,1-.41,3.16c-.11.57-.22,1.17-.32,1.84Zm-14.63-31.62a3.91,3.91,0,0,0-2.23.6c-4.64,3.16-6.43,7-5.17,11.2a17.63,17.63,0,0,0,.61,1.67,17,17,0,0,0,2.81,4.5,21.82,21.82,0,0,0,1.67,1.68c3.19,3,7.15,5.09,11,7.13,1.65.88,3.32,1.78,5,2.75h0c.1-.68.21-1.29.31-1.85a18.32,18.32,0,0,0,.4-3c.13-5.84-2.34-11.05-5-15.8h0a52.39,52.39,0,0,0-4.74-6.89A6.13,6.13,0,0,0,280.25,256.63Z"/><path class="cls-2" d="M211,224.06a14.92,14.92,0,0,1-2.75.88,15.69,15.69,0,0,0,2.75-.87,8.75,8.75,0,0,0,2.82-2A8.53,8.53,0,0,1,211,224.06Z"/><path class="cls-1" d="M153,238.27c-1.22,2.07-2.17,3.17-2.81,4.17-2.54,4-5.47,8.73-8.17,13.66-3.09,5.62-6,11.44-8.9,17.06l-3.11,6.1a98.93,98.93,0,0,0-6.69,17.79c-1.32,4.58-2.4,9.3-3.45,13.86l-.49,2.12c-.4,1.73-1.84,7.52-1.49,8.21s3.07,2.23,4.07,1.89,1.76-6.41,2-8.11A42.88,42.88,0,0,1,126,304.81c.47-1.22.85-2.48,1.22-3.69.29-.93.57-1.86.89-2.78s.63-1.85.95-2.77c.89-2.65,1.81-5.39,3-8,3.34-7.49,6.44-14.21,10.62-20.55,2-3,3.83-6.13,5.62-9.17,2.09-3.53,4.25-7.18,6.6-10.61a35.1,35.1,0,0,0,3.89-6.52C161.94,233.41,154.24,236.17,153,238.27Z"/><path class="cls-2" d="M121.63,323.83a6.65,6.65,0,0,1-4.31-2.29c-.28-.56-.17-1.87,1.25-7.84l.67-2.93c1.06-4.58,2.14-9.31,3.46-13.9A99.35,99.35,0,0,1,129.44,279q1.56-3,3.11-6.1c2.89-5.68,5.84-11.47,8.91-17.08,2.24-4.08,4.92-8.56,8.19-13.69.23-.37.51-.75.82-1.18a35.08,35.08,0,0,0,2-3c.91-1.56,4.55-3.33,6.51-2.33,1,.52,1.92,1.88.4,5.4a32,32,0,0,1-3.43,5.88l-.52.75c-2.34,3.41-4.49,7.05-6.58,10.57-1.79,3-3.65,6.18-5.64,9.2-4.15,6.3-7.24,13-10.57,20.46-1.14,2.55-2.05,5.27-2.94,7.9l-.09.29c-.28.83-.56,1.66-.85,2.49s-.6,1.84-.89,2.76c-.37,1.22-.76,2.49-1.23,3.73a42.2,42.2,0,0,0-2,10.06c-1,8.16-1.91,8.47-2.4,8.65A1.87,1.87,0,0,1,121.63,323.83Zm36-87.21a5.94,5.94,0,0,0-4,2h0a33.46,33.46,0,0,1-2,3.07c-.29.41-.55.77-.78,1.12-3.25,5.1-5.92,9.56-8.14,13.62-3.07,5.59-6,11.37-8.85,17-1.08,2.12-2.11,4.15-3.15,6.18A97.91,97.91,0,0,0,124,297.23c-1.31,4.56-2.39,9.27-3.44,13.82l-.68,2.95c-.37,1.55-1.48,6.27-1.32,7,.29.48,2.67,1.7,3.25,1.5.21-.22.87-2.12,1.53-7.56a43.43,43.43,0,0,1,2.11-10.37c.46-1.21.84-2.45,1.21-3.65.29-.94.57-1.88.9-2.81s.56-1.65.85-2.48l.09-.28c.9-2.66,1.82-5.41,3-8,3.35-7.52,6.47-14.27,10.68-20.65,2-3,3.82-6.11,5.61-9.14,2.09-3.54,4.25-7.19,6.62-10.65l.52-.75a30,30,0,0,0,3.3-5.66c.87-2,.94-3.35.21-3.72A1.64,1.64,0,0,0,157.61,236.62Z"/><path class="cls-1" d="M226.11,197.49a30.09,30.09,0,0,1-7.12-8.94c-1-1.78-2.1-2.8-3.47-3.1-1.53-.33-3.28.25-5.33,1.79l-.41.3,1,2.41c.57,1.39,1.16,2.81,1.76,4.22A41.18,41.18,0,0,0,220.75,207c.33.34.67.67,1,1,1.34,1.28,2.62,2.5,2.94,4.41l.18,1,.84-.6a9.11,9.11,0,0,0,3.39-7.23C229.25,202.29,228.09,199.17,226.11,197.49Z"/><path class="cls-2" d="M224.42,214.61l-.35-2.05c-.29-1.7-1.43-2.79-2.75-4.05l-1-1a42.1,42.1,0,0,1-8.35-13.07c-.6-1.42-1.19-2.84-1.76-4.24L209,187.32l.81-.6c2.21-1.66,4.12-2.28,5.85-1.9,1.57.34,2.85,1.46,3.91,3.42a29.56,29.56,0,0,0,7,8.76h0c2.13,1.8,3.38,5.12,3.24,8.67a9.77,9.77,0,0,1-3.66,7.73Zm-13.85-26.85.8,1.94c.57,1.4,1.16,2.81,1.75,4.22a41,41,0,0,0,8.09,12.67c.33.34.66.66,1,1,1.37,1.3,2.78,2.65,3.14,4.77h0a8.49,8.49,0,0,0,3.11-6.72c.12-3.16-.94-6.08-2.78-7.63h0a31,31,0,0,1-7.28-9.13,4.79,4.79,0,0,0-3-2.77c-1.35-.3-2.91.25-4.81,1.67Z"/><path class="cls-1" d="M144,181.17c3.25,1.77,4.83,4.08,5,7.26.07,1.57,1.08,2.57,3,3l.46.09.24-.41c.17-.31.33-.62.48-.92a8.7,8.7,0,0,1,.9-1.53c.24-.28.47-.59.71-.89a8,8,0,0,1,2.46-2.44,35.27,35.27,0,0,0,8.39-6.3l.61-.56a17.82,17.82,0,0,1,5.69-3.7,8.41,8.41,0,0,1,6.55.69,12.45,12.45,0,0,1,6.32,6.82c.24.76.43,1.55.64,2.38.1.42.2.85.32,1.3l.23.89.76-.52a6.52,6.52,0,0,1,6.11-.86,23.2,23.2,0,0,1,5,3l.39.27a16.24,16.24,0,0,0,8.45,3.15l1.11.08-.47-1c-.34-.74-.65-1.45-.95-2.12a38.74,38.74,0,0,0-1.9-3.93,18.53,18.53,0,0,0-7-7.37,15.73,15.73,0,0,1-6.31-5.77,5.1,5.1,0,0,0-4.63-2.65l-1,0a12,12,0,0,0-2.24,0,34.42,34.42,0,0,1-5.25.33,55.25,55.25,0,0,1-10.26-1.26c-6.8-1.41-12.82.51-18.4,5.88q-2,1.95-4.1,3.9l-2.28,2.16.27.45A2,2,0,0,0,144,181.17Z"/><path class="cls-2" d="M208.92,192.62l-2.21-.16a16.82,16.82,0,0,1-8.79-3.27l-.38-.27a23.2,23.2,0,0,0-4.89-2.88,5.87,5.87,0,0,0-5.51.79l-1.53,1-.46-1.78c-.11-.44-.22-.86-.32-1.27-.2-.85-.39-1.63-.63-2.37a11.74,11.74,0,0,0-6-6.44,7.85,7.85,0,0,0-6.05-.67,17.43,17.43,0,0,0-5.48,3.58l-.6.56a36.1,36.1,0,0,1-8.55,6.41,7.77,7.77,0,0,0-2.23,2.24c-.24.32-.47.62-.72.92a7.51,7.51,0,0,0-.82,1.41c-.16.3-.32.62-.5.93l-.46.84-.93-.2c-2.78-.57-3.44-2.25-3.5-3.55-.15-2.94-1.62-5.08-4.65-6.73a2.68,2.68,0,0,1-.92-.91l-.54-.89,2.67-2.53c1.41-1.33,2.76-2.6,4.09-3.89,5.75-5.53,12-7.51,19-6.05a54.5,54.5,0,0,0,10.13,1.25,33.5,33.5,0,0,0,5.16-.32,11.81,11.81,0,0,1,2.37,0l.94,0a5.71,5.71,0,0,1,5.18,3,15.23,15.23,0,0,0,6.06,5.53,19,19,0,0,1,7.25,7.6,41.18,41.18,0,0,1,1.94,4c.29.67.6,1.37.94,2.1Zm-18.27-8.25a7,7,0,0,1,2.45.45,23.65,23.65,0,0,1,5.17,3l.4.28a15.56,15.56,0,0,0,8.13,3h0l-1-2.12a41.17,41.17,0,0,0-1.87-3.88,17.89,17.89,0,0,0-6.76-7.12,16.4,16.4,0,0,1-6.55-6,4.42,4.42,0,0,0-4.08-2.32l-.93,0a11.29,11.29,0,0,0-2.18,0,36.18,36.18,0,0,1-5.35.33,55.59,55.59,0,0,1-10.39-1.28c-6.56-1.36-12.39.51-17.81,5.72-1.33,1.29-2.68,2.56-4,3.84l-2,1.86a1.38,1.38,0,0,0,.43.44h0c3.47,1.89,5.16,4.37,5.33,7.8,0,.8.33,1.91,2.46,2.35h0c.17-.3.32-.6.46-.89a9.49,9.49,0,0,1,1-1.65c.23-.28.46-.58.69-.88a8.4,8.4,0,0,1,2.7-2.62,34.94,34.94,0,0,0,8.23-6.2l.61-.55a18.36,18.36,0,0,1,5.9-3.84,9,9,0,0,1,7.07.72,13.08,13.08,0,0,1,6.65,7.21c.25.78.44,1.57.65,2.42l.32,1.29h0A7.49,7.49,0,0,1,190.65,184.37Z"/><path class="cls-1" d="M217.2,209.43a16.22,16.22,0,0,1-5.8-7.76,3.6,3.6,0,0,0-3.23-2.51,16.25,16.25,0,0,1-8.07-3.65,10.51,10.51,0,0,0-7-2.33c-3.89,0-6.37,2.35-6.6,6.2-.27,4.63-.79,9.08-4.1,12.55a4.91,4.91,0,0,0-.68,1,6.25,6.25,0,0,1-.38.61c-1.43,1.86-2.87,3.71-4.31,5.57l-4,5.23a18.25,18.25,0,0,1-1.48,1.62,12.48,12.48,0,0,0-2.44,3c-.21.41-.94,1.51-.72,2s4,.83,4,.83c2.91.61,5.71,1.2,8.52,1.74a11.32,11.32,0,0,0,2.18.23,7,7,0,0,0,1.17-.12l2.73-.53a57.7,57.7,0,0,0,12.71-3.47,34.4,34.4,0,0,1,5.52-1.74c.79-.21,1.59-.41,2.37-.64.58-.16,1.17-.3,1.76-.44l.93-.22a14.93,14.93,0,0,0,2.74-.91,8.54,8.54,0,0,0,2.8-2,3.28,3.28,0,0,0,.64-1.15,23.22,23.22,0,0,1,3.08-6.75,3.52,3.52,0,0,0-.41-4.54A13,13,0,0,0,217.2,209.43Z"/><path class="cls-2" d="M183,234.42a11.7,11.7,0,0,1-2.22-.24c-2.77-.54-5.51-1.11-8.42-1.72l-.1,0c-4.06-.37-4.31-.91-4.44-1.2-.29-.65.12-1.47.6-2.32.06-.09.1-.17.14-.24a13,13,0,0,1,2.55-3.17,17,17,0,0,0,1.43-1.56q2-2.62,4-5.23l.36-.47,3.94-5.1a3.52,3.52,0,0,0,.31-.5,5.61,5.61,0,0,1,.8-1.16c3.16-3.31,3.66-7.63,3.92-12.14.25-4.21,3-6.82,7.21-6.82h0a11.18,11.18,0,0,1,7.39,2.49,15.62,15.62,0,0,0,7.75,3.5,4.24,4.24,0,0,1,3.75,2.94,15.7,15.7,0,0,0,5.57,7.46h0a12.47,12.47,0,0,1,2,1.9,4.17,4.17,0,0,1,.48,5.32,22.94,22.94,0,0,0-3,6.57,3.92,3.92,0,0,1-.75,1.4,9.35,9.35,0,0,1-3,2.19,16.4,16.4,0,0,1-2.85,1l-.94.22c-.58.14-1.16.27-1.73.44-.73.21-1.47.4-2.2.59l-.19,0a33.84,33.84,0,0,0-5.42,1.71,58.28,58.28,0,0,1-12.83,3.5c-.93.18-1.84.35-2.75.54a7.4,7.4,0,0,1-1.28.13Zm-14-3.82a19.78,19.78,0,0,0,3.4.55l.18,0c2.9.61,5.63,1.19,8.4,1.72a9.34,9.34,0,0,0,2.06.22,5.62,5.62,0,0,0,1-.11l2.74-.53a57.22,57.22,0,0,0,12.56-3.42,35,35,0,0,1,5.63-1.78l.18-.05,2.17-.58c.59-.17,1.19-.31,1.79-.45l.92-.22a14.43,14.43,0,0,0,2.63-.87,8.09,8.09,0,0,0,2.57-1.84,2.48,2.48,0,0,0,.51-.91,23.89,23.89,0,0,1,3.17-6.94,2.87,2.87,0,0,0-.36-3.74,11.14,11.14,0,0,0-1.78-1.72,17,17,0,0,1-6-8.06,3,3,0,0,0-2.72-2.1,16.92,16.92,0,0,1-8.38-3.79,9.9,9.9,0,0,0-6.57-2.18h0a5.49,5.49,0,0,0-5.91,5.59c-.28,4.76-.82,9.33-4.28,13a4.16,4.16,0,0,0-.59.87,5.08,5.08,0,0,1-.43.69l-3.94,5.1-.36.47-4,5.22a16.52,16.52,0,0,1-1.54,1.69,12.17,12.17,0,0,0-2.32,2.85,3.08,3.08,0,0,1-.16.28A6.06,6.06,0,0,0,169,230.6Z"/><path class="cls-1" d="M179.29,208.9a12.84,12.84,0,0,0,2.8-7.2c.24-3.81.75-7.66,1.25-11.38a13.64,13.64,0,0,0-2.05-9,5.55,5.55,0,0,0-2.64-2.11,8.47,8.47,0,0,0-9.24,1.75,48.71,48.71,0,0,1-4.31,3.26c-.79.55-1.58,1.11-2.36,1.68-2,1.51-4,3.26-4.91,5.93l-1.14,3.33c-.41,1.22-.82,2.44-1.24,3.66-.15.44-.29.9-.42,1.35a10.92,10.92,0,0,1-1.11,2.86c-1.38,2.17-1.1,4.32-.61,6.33a46.62,46.62,0,0,0,2.5,7.78c1.23,2.7,2.63,5.31,4.1,8.08.65,1.22,1.82,3.6,2,3.76s.45.29,1.08.11,3.06-3.76,4.58-5.61C171.62,218.5,175.46,213.79,179.29,208.9Z"/><path class="cls-2" d="M162.44,229.83a1.39,1.39,0,0,1-1-.37,12.74,12.74,0,0,1-1.31-2.36c-.29-.57-.58-1.14-.81-1.57-1.5-2.81-2.89-5.42-4.12-8.12a45.92,45.92,0,0,1-2.54-7.9c-.53-2.14-.82-4.45.69-6.82a10.85,10.85,0,0,0,1-2.7c.14-.5.27-1,.42-1.38.42-1.22.84-2.44,1.25-3.66l1.13-3.33c1-2.84,3-4.67,5.15-6.24.75-.56,1.53-1.11,2.31-1.65a50.11,50.11,0,0,0,4.31-3.26,9.08,9.08,0,0,1,9.91-1.87,6.32,6.32,0,0,1,3,2.38,14.22,14.22,0,0,1,2.13,9.43c-.49,3.73-1,7.55-1.24,11.33a13.46,13.46,0,0,1-2.94,7.56h0c-3.83,4.9-7.67,9.61-11.74,14.59-.5.62-1.11,1.43-1.71,2.24-2,2.65-2.64,3.44-3.19,3.59A2.65,2.65,0,0,1,162.44,229.83Zm12.86-50.64a8.15,8.15,0,0,0-5.46,2.26,49.53,49.53,0,0,1-4.37,3.3c-.82.58-1.59,1.12-2.34,1.68a12.11,12.11,0,0,0-4.69,5.61l-1.13,3.33c-.41,1.22-.83,2.44-1.25,3.66-.14.42-.26.84-.39,1.27a12,12,0,0,1-1.2,3.08c-1.18,1.85-1.06,3.67-.52,5.82a43.86,43.86,0,0,0,2.46,7.67c1.21,2.67,2.59,5.26,4.05,8,.26.48.56,1.06.85,1.64.4.78.94,1.85,1.08,2.05,0,0,.1,0,.42-.09a31.59,31.59,0,0,0,2.49-3.12c.62-.83,1.24-1.65,1.75-2.28,4.07-5,7.91-9.69,11.72-14.57a12.14,12.14,0,0,0,2.67-6.84c.24-3.83.75-7.67,1.25-11.39a13,13,0,0,0-2-8.62,5,5,0,0,0-2.32-1.84A8.61,8.61,0,0,0,175.3,179.19Z"/><path class="cls-1" d="M154.19,223.47a46.49,46.49,0,0,1-2.69-4.5c-2.3-4.58-4.1-9.56-1.75-14.93,1.75-4,0-7-2.24-9.7a16.41,16.41,0,0,1-1.71-2.77c-.28-.53-.56-1.06-.87-1.57s-.57-1-.85-1.48a22.82,22.82,0,0,0-2.47-3.79,5.76,5.76,0,0,0-7.07-1.09c-1.89,1-3.09,4-2.58,6.43a14.22,14.22,0,0,0,.8,2.48c.36.88.77,1.75,1.18,2.63a31.4,31.4,0,0,1,2,5c2.8,10.15,9.77,17.77,15.92,24.5a10.4,10.4,0,0,0,1.71,1.42c.25.18.51.36.75.55a1.23,1.23,0,0,0,.64.34c.28,0,.72-.38.72-1.14S154.63,224.15,154.19,223.47Z"/><path class="cls-2" d="M155,227.66a1.78,1.78,0,0,1-1.09-.52l-.68-.5a10.66,10.66,0,0,1-1.81-1.5c-6.2-6.78-13.22-14.47-16.07-24.77a31.29,31.29,0,0,0-2-4.92c-.41-.88-.82-1.76-1.19-2.65a15,15,0,0,1-.83-2.6c-.59-2.72.75-6,2.91-7.13a6.43,6.43,0,0,1,7.87,1.23,24,24,0,0,1,2.53,3.89c.28.5.56,1,.85,1.47s.6,1.07.89,1.61a15.71,15.71,0,0,0,1.63,2.66c2.22,2.7,4.23,6,2.33,10.37-2.24,5.13-.49,9.94,1.74,14.38a47.55,47.55,0,0,0,2.65,4.43h0a5.75,5.75,0,0,0,.49.63,3.7,3.7,0,0,1,1.13,2.12A1.62,1.62,0,0,1,155,227.66Zm-17.51-44.1a5.57,5.57,0,0,0-2.63.66c-1.63.86-2.71,3.58-2.25,5.71a13.77,13.77,0,0,0,.76,2.37c.36.87.77,1.74,1.17,2.6A32.56,32.56,0,0,1,136.6,200c2.76,10,9.67,17.56,15.77,24.23a10.25,10.25,0,0,0,1.61,1.33l.77.57a1.27,1.27,0,0,0,.2.16.8.8,0,0,0,.11-.45c0-.29-.5-.89-.83-1.28a7.72,7.72,0,0,1-.58-.76h0l.54-.36-.55.35a48.54,48.54,0,0,1-2.72-4.56c-2.37-4.72-4.23-9.86-1.77-15.48,1.52-3.47.25-6.12-2.14-9a16.6,16.6,0,0,1-1.78-2.88c-.28-.52-.56-1-.86-1.54s-.57-1-.86-1.49a22.2,22.2,0,0,0-2.39-3.69A4.75,4.75,0,0,0,137.48,183.56Z"/><polygon class="cls-2" points="156.59 226.16 156.6 226.16 156.59 226.16 156.59 226.16"/><path class="cls-1" d="M133.49,258.62c0-.94-2.25-2.84-2.62-3.44-2.68-4.29-5.09-8.28-7.38-12.19a66.71,66.71,0,0,1-6.8-15.13c-.55-1.85-1.19-3.69-1.81-5.47-.29-.84-.58-1.68-.86-2.51-.47-1.4-1-2.78-1.45-4.17-1.1-3.16-2.25-6.42-3.14-9.67-.63-2.28-1.05-4.66-1.46-7-.32-1.8-.66-3.67-1.08-5.49C104.4,183,105.1,172,109,159.92a186.87,186.87,0,0,1,7.91-19.36c.74-1.65,1.49-3.3,2.22-4.95,1.23-2.76,4-6.46,4.19-7.7s-2.73-2.68-3.42-2.37-1.77,3.24-2.57,4.9c-1.91,4-3.74,8.16-5.51,12.16-1.25,2.83-2.5,5.66-3.79,8.47-3.11,6.77-5.14,14.44-6.37,24.12a67.44,67.44,0,0,0,.68,19.62A71.85,71.85,0,0,0,106,209.67c.59,1.5,1.14,3,1.68,4.56.33.9.65,1.81,1,2.71.74,2,1.47,4,2.19,6,2.48,6.86,5,13.94,8.21,20.7a139,139,0,0,0,7.4,13.18l1.33,2.18c.72,1.19,2,2.72,3.25,2.73S133.49,259.56,133.49,258.62Z"/><path class="cls-2" d="M131.08,262.38h0c-1.71,0-3.12-1.91-3.8-3l-1.34-2.18a142.46,142.46,0,0,1-7.43-13.24c-3.19-6.8-5.75-13.89-8.23-20.76l-.07-.2c-.7-1.93-1.4-3.87-2.12-5.8-.32-.87-.64-1.75-1-2.63l-.09-.26c-.52-1.44-1-2.93-1.62-4.37a72.13,72.13,0,0,1-3.71-15,68.34,68.34,0,0,1-.69-19.8c1.25-9.75,3.29-17.48,6.43-24.31,1.3-2.85,2.56-5.7,3.78-8.47,1.77-4,3.6-8.13,5.53-12.17.2-.43.43-.94.66-1.47,1-2.32,1.56-3.45,2.23-3.75s2.34.37,3.17,1A2.28,2.28,0,0,1,124,128a13.68,13.68,0,0,1-1.93,3.76,37.43,37.43,0,0,0-2.3,4.11q-1.08,2.43-2.19,4.86l0,.09a188.42,188.42,0,0,0-7.88,19.3c-3.89,12-4.58,22.87-2.12,33.33.43,1.83.76,3.69,1.09,5.5.41,2.3.83,4.66,1.44,6.92.89,3.22,2,6.47,3.13,9.61.49,1.4,1,2.79,1.45,4.19.28.83.57,1.67.86,2.5.64,1.82,1.28,3.66,1.82,5.51a66.51,66.51,0,0,0,6.74,15c2.31,4,4.73,7.93,7.37,12.17a8.81,8.81,0,0,0,.72.8c1.17,1.22,2,2.15,2,3h0a5,5,0,0,1-1.41,3A2.34,2.34,0,0,1,131.08,262.38Zm-10.9-136.24h0a17.93,17.93,0,0,0-1.52,3.07c-.24.54-.47,1.07-.68,1.51-1.92,4-3.74,8.15-5.51,12.14-1.22,2.77-2.48,5.63-3.79,8.48-3.08,6.71-5.09,14.32-6.32,23.93A66.86,66.86,0,0,0,103,194.7a70.74,70.74,0,0,0,3.64,14.73c.58,1.46,1.11,2.95,1.63,4.4l.06.18c.35,1,.66,1.83,1,2.7.72,1.93,1.42,3.87,2.12,5.81l.07.2c2.47,6.84,5,13.91,8.19,20.65a138.55,138.55,0,0,0,7.36,13.1l1.34,2.19c.9,1.49,1.93,2.42,2.69,2.42h0a1.16,1.16,0,0,0,.74-.41,3.76,3.76,0,0,0,1-2.05c0-.4-1.15-1.58-1.63-2.09a7.08,7.08,0,0,1-.89-1c-2.65-4.25-5.07-8.24-7.4-12.2a67.93,67.93,0,0,1-6.86-15.27c-.53-1.82-1.16-3.65-1.78-5.41-.3-.88-.6-1.72-.88-2.56-.47-1.39-1-2.77-1.44-4.16-1.12-3.17-2.26-6.44-3.16-9.71-.63-2.31-1.06-4.7-1.47-7-.32-1.8-.65-3.65-1.08-5.45-2.51-10.69-1.81-21.82,2.15-34a190.26,190.26,0,0,1,7.93-19.42l0-.1q1.09-2.41,2.18-4.85a40.74,40.74,0,0,1,2.38-4.26,17,17,0,0,0,1.76-3.27c0-.1-.08-.3-.34-.55A4.27,4.27,0,0,0,120.18,126.14Z"/><path class="cls-1" d="M117.22,113.45a5.32,5.32,0,0,1-.51-1c-2-5.77-6.63-20.4-7-21.48-.59-1.7-1.17-3.4-1.81-5.24L107,83.09l-.25-.12c-4.48-2-8.19-1.72-10.72.89l-.25.25.08.35a1.12,1.12,0,0,1,0,.21,2.1,2.1,0,0,0,.25.83,9.46,9.46,0,0,1,.8,8.4,5.59,5.59,0,0,0,0,2.76,12.44,12.44,0,0,0,4.5,7.38c3.46,2.75,7,5.44,10.51,8l4.26,3.2.53.41,1-1.35-.18-.35Z"/><path class="cls-2" d="M116.88,116.61l-1.06-.81-4.26-3.2c-3.46-2.6-7-5.28-10.52-8.06a13,13,0,0,1-4.74-7.75,6.21,6.21,0,0,1,0-3.09,8.85,8.85,0,0,0-.73-7.86,2.8,2.8,0,0,1-.34-1.08l0-.16-.16-.68.49-.51c2.74-2.83,6.7-3.19,11.46-1l.51.23,1,2.9c.63,1.84,1.22,3.54,1.8,5.24.11.33.62,1.9,1.33,4.1,1.61,5,4.3,13.36,5.67,17.38a5.05,5.05,0,0,0,.46.89h0l-.56.32.57-.3c.1.18.21.36.3.54l.38.7ZM96.49,84.31a2.51,2.51,0,0,1,0,.27,1.44,1.44,0,0,0,.17.58,10.09,10.09,0,0,1,.85,9,5.23,5.23,0,0,0,0,2.43,11.85,11.85,0,0,0,4.28,7c3.46,2.76,7,5.44,10.49,8,1.42,1.07,2.84,2.13,4.26,3.21h0l.34-.48c-.09-.17-.18-.33-.28-.49l.56-.35-.57.33a6.6,6.6,0,0,1-.56-1.13c-1.37-4-4.07-12.4-5.68-17.4-.7-2.19-1.21-3.75-1.32-4.08-.58-1.7-1.17-3.4-1.8-5.24l-.82-2.37C103.54,82.23,99.42,81.28,96.49,84.31Z"/><path class="cls-1" d="M113.49,73.21l.62.05a2.19,2.19,0,0,0,.56,0h.13a2.9,2.9,0,0,0,1-.18c2.9-1.19,5.16-.68,7.12,1.59a4,4,0,0,0,1,.77,3.72,3.72,0,0,1,.57.37,4.35,4.35,0,0,0,5,.54,42.73,42.73,0,0,1,6.6-2.33,7.09,7.09,0,0,1,7,1.81,5.25,5.25,0,0,1,1.18,5.34,14.07,14.07,0,0,0,.82,11.2,4.82,4.82,0,0,1,.54,1.54,29.09,29.09,0,0,1,.2,3.84c0,2.88-2,4.56-4.08,6.34l-.47.41c-1.9,1.64-3.81,3.27-5.85,5l-4.28,3.64,2-.17,3.91-.36c2.8-.26,5.44-.5,8.06-.61a67.72,67.72,0,0,1,7.9.3l1.18.09c3,.26,6.08.52,8.94-.72a33.66,33.66,0,0,0,14-10.54c2-2.71,2.61-9.38.38-12.24A40.46,40.46,0,0,0,171.83,83a35.29,35.29,0,0,1-9.09-11c-1.76-3.54-4.35-5-8.14-4.49l-.6.08a12.7,12.7,0,0,1-1.5.15c-5.58.17-9.3-1-12.44-3.87a64.82,64.82,0,0,0-8.07-6l-1.54-1a8,8,0,0,0-3.81-1.22c-5.58-.27-13.88,3.91-14.34,12.42-.09,1.62-.19,3.45,1,4.93Z"/><path class="cls-2" d="M129.11,114l5.83-4.94c2-1.73,3.95-3.35,5.84-5l.47-.41c2.05-1.76,3.82-3.28,3.86-5.86a29.48,29.48,0,0,0-.19-3.76,4.2,4.2,0,0,0-.48-1.31A14.71,14.71,0,0,1,143.58,81a4.64,4.64,0,0,0-1-4.71,6.47,6.47,0,0,0-6.32-1.62,42.07,42.07,0,0,0-6.5,2.29,5,5,0,0,1-5.68-.63,2.79,2.79,0,0,0-.44-.29,4.66,4.66,0,0,1-1.22-.93c-1.77-2-3.73-2.49-6.37-1.41a3.45,3.45,0,0,1-1.17.23h-.14a3.06,3.06,0,0,1-.66,0l-.88-.07-.36-.43c-1.36-1.67-1.25-3.73-1.16-5.38.47-8.83,9.19-13.3,15-13a8.6,8.6,0,0,1,4.14,1.33l1.54,1a65.11,65.11,0,0,1,8.15,6c3,2.76,6.57,3.87,12,3.7a13.82,13.82,0,0,0,1.4-.14l.64-.09c4-.5,6.93,1.09,8.81,4.85a34.51,34.51,0,0,0,8.93,10.76,41.23,41.23,0,0,1,5.72,6c2.42,3.11,1.83,10.09-.38,13a34.23,34.23,0,0,1-14.25,10.74c-3,1.31-6.18,1-9.24.78l-1.2-.09a66.28,66.28,0,0,0-7.82-.3c-2.59.11-5.22.35-8,.61-1.27.12-2.57.24-3.93.35ZM138,73.14a7.47,7.47,0,0,1,5.47,2.25,5.9,5.9,0,0,1,1.32,6,13.47,13.47,0,0,0,.78,10.71,5.27,5.27,0,0,1,.61,1.76,30.27,30.27,0,0,1,.2,3.92c0,3.17-2.21,5-4.31,6.83l-.47.4c-1.89,1.65-3.81,3.27-5.85,5l-2.73,2.32L137,112c2.82-.27,5.46-.51,8.09-.62a68.25,68.25,0,0,1,8,.3l1.2.1c2.92.24,5.93.5,8.63-.68a32.93,32.93,0,0,0,13.73-10.33c1.89-2.51,2.41-8.86.39-11.45a39.68,39.68,0,0,0-5.54-5.81,36,36,0,0,1-9.25-11.17c-1.64-3.3-3.95-4.57-7.48-4.14l-.59.08a13.92,13.92,0,0,1-1.57.16c-5.78.17-9.63-1-12.9-4a63.87,63.87,0,0,0-8-5.92l-1.55-1a7.24,7.24,0,0,0-3.49-1.12C121.31,56,113.38,60.1,113,68.1c-.09,1.58-.18,3.21.87,4.49h0l.34,0a2.38,2.38,0,0,0,.44,0h.15a2.51,2.51,0,0,0,.78-.14c3.15-1.29,5.72-.72,7.85,1.76a3.17,3.17,0,0,0,.85.64,4.45,4.45,0,0,1,.66.44,3.71,3.71,0,0,0,4.31.43,44.08,44.08,0,0,1,6.71-2.36A8.6,8.6,0,0,1,138,73.14Z"/><path class="cls-1" d="M125.92,113.11c2.71-2.93,5.69-5.94,9.6-7.85a26.3,26.3,0,0,0,4.9-3.4l.53-.44c2.57-2.07,2.77-3.39,1-6.11-2.85-4.26-3.28-8.37-1.29-12.56.61-1.29,1.15-3-.14-4.49a2.66,2.66,0,0,0-.45-.44,2.61,2.61,0,0,0-.84-.44,5.23,5.23,0,0,0-2.64.13l-2.52.55c-2.12.47-4.3.94-6.45,1.47a5.13,5.13,0,0,1-5.34-1.4c-.8-.82-1.64-1.6-2.5-2.4a9.72,9.72,0,0,0-3.68-.64c-2.25.94-3.61,2.13-4.18,3.65s-.32,3.38.78,5.64A22.62,22.62,0,0,1,114,87.73c.33,1.06.63,2.14.92,3.22.44,1.59.88,3.24,1.45,4.83,1,2.71,2,5.44,3.07,8.08.68,1.74,1.36,3.48,2,5.23.42,1.11.79,2.27,1.17,3.49.2.61.4,1.24.61,1.91l.34,1L125,114Z"/><path class="cls-2" d="M123.32,116.75l-.67-2.06c-.21-.63-.4-1.24-.59-1.82-.41-1.31-.77-2.46-1.18-3.55-.66-1.75-1.34-3.49-2-5.23-1-2.63-2.1-5.36-3.08-8.09-.58-1.63-1-3.28-1.47-4.88-.29-1.09-.58-2.15-.91-3.2a22.92,22.92,0,0,0-1.33-3.26c-1.19-2.43-1.45-4.44-.81-6.15s2.12-3,4.54-4a8.85,8.85,0,0,1,4.37.77c.84.77,1.7,1.57,2.52,2.41a4.48,4.48,0,0,0,4.73,1.23c2.16-.53,4.35-1,6.46-1.47l2.52-.56a5.86,5.86,0,0,1,3-.12,3.32,3.32,0,0,1,1.07.56,3.38,3.38,0,0,1,.54.53c1.54,1.83.87,3.84.23,5.19-1.88,4-1.48,7.87,1.24,11.92,2,3,1.74,4.69-1.08,7l-.53.43a26,26,0,0,1-5,3.49c-3.81,1.85-6.74,4.82-9.41,7.7l-.9.93Zm-7-41h-.13c-2,.84-3.23,1.91-3.73,3.24s-.26,3,.76,5.13a23.83,23.83,0,0,1,1.4,3.45c.33,1.06.63,2.14.92,3.21.44,1.6.88,3.23,1.45,4.81,1,2.72,2,5.43,3.06,8.06.68,1.74,1.36,3.49,2,5.24.43,1.13.79,2.29,1.18,3.53.21.67.4,1.27.61,1.9h0l.69-.72c.35-.35.61-.63.87-.91h0c2.76-3,5.79-6,9.8-8a25.39,25.39,0,0,0,4.77-3.33l.53-.43c2.31-1.87,2.45-2.8.82-5.25-3-4.46-3.43-8.78-1.34-13.2.56-1.18,1-2.56,0-3.79a2.36,2.36,0,0,0-.36-.35A1.9,1.9,0,0,0,139,78a4.77,4.77,0,0,0-2.3.14l-2.53.56c-2.11.46-4.29.93-6.43,1.46a5.82,5.82,0,0,1-6-1.58c-.79-.81-1.65-1.61-2.47-2.37A12.8,12.8,0,0,0,116.34,75.71Z"/><path class="cls-1" d="M181.76,122.46a16.36,16.36,0,0,1-1.3-4.5c-.47-3.31-2.43-5.31-5.52-5.63s-6.52-.48-9.72,1.52c-2.6,1.62-5.45,1.52-8.9,1.21a65.63,65.63,0,0,0-10.3.1c-3.59.27-7.13.67-10.87,1.09-1.62.18-3.26.37-4.94.54l-.78.09.22.74a3.49,3.49,0,0,0,2.69,2.8q1.92.39,3.84.81c2.81.6,5.73,1.23,8.64,1.63,8.6,1.17,17.36,2.19,25.84,3.19l3.4.39a30.74,30.74,0,0,0,3.62.23c.61,0,1.2,0,1.77-.07a3.15,3.15,0,0,0,2.6-1.14C182.59,124.55,182.18,123.38,181.76,122.46Z"/><path class="cls-2" d="M177.68,127.32a32.07,32.07,0,0,1-3.7-.23l-3.4-.4c-8.48-1-17.25-2-25.85-3.19-2.94-.4-5.86-1-8.69-1.64-1.28-.27-2.55-.55-3.82-.8a4.12,4.12,0,0,1-3.19-3.25l-.44-1.5,1.55-.16,4.18-.46.76-.09c3.77-.42,7.3-.81,10.89-1.09a67,67,0,0,1,10.4-.1c3.33.3,6.07.4,8.51-1.11,3.37-2.11,7-1.94,10.13-1.62,3.37.35,5.59,2.6,6.09,6.19a16.21,16.21,0,0,0,1.25,4.32h0c.48,1.06,1,2.43.26,3.6a3.71,3.71,0,0,1-3.11,1.46C178.91,127.29,178.31,127.32,177.68,127.32Zm-47.4-9.88h0a2.83,2.83,0,0,0,2.19,2.34l3.84.81c2.81.61,5.71,1.23,8.59,1.62,8.6,1.17,17.35,2.2,25.82,3.19l3.41.4a28.91,28.91,0,0,0,5.28.16c.71-.06,1.7-.2,2.08-.83s0-1.62-.33-2.4h0a17.3,17.3,0,0,1-1.34-4.68c-.43-3-2.14-4.79-4.94-5.07s-6.29-.47-9.31,1.42c-2.78,1.73-5.74,1.62-9.31,1.31a64.31,64.31,0,0,0-10.19.1c-3.57.27-7.09.67-10.82,1.08l-.79.09-4.18.46Z"/><path class="cls-1" d="M26.78,159.23A8.39,8.39,0,0,0,21,156.12a33.68,33.68,0,0,0-4.59-.34q-.73,0-1.44,0A16.35,16.35,0,0,0,5,160c-.38.35-.74.72-1.08,1.1A13.24,13.24,0,0,0,.7,171.2a52.93,52.93,0,0,1,.08,5.49c0,.85,0,1.7,0,2.54v9l.82-.23,3.28-.91c2.12-.59,4.05-1.12,6-1.7,9.9-3,15.71-9.58,17.28-19.52A8.73,8.73,0,0,0,26.78,159.23Z"/><path class="cls-2" d="M.1,189.12v-9.89c0-.81,0-1.61,0-2.42v-.13c0-1.81.07-3.66-.07-5.43a13.9,13.9,0,0,1,3.36-10.56c.35-.39.73-.78,1.13-1.15a17.07,17.07,0,0,1,10.38-4.38c.48,0,1,0,1.47,0a33.67,33.67,0,0,1,4.68.35,9,9,0,0,1,6.22,3.36h0A9.35,9.35,0,0,1,28.73,166C27.12,176.21,21.16,183,11,186c-1.94.59-3.9,1.13-6,1.7l-3.27.91Zm16.24-32.69c-.45,0-.9,0-1.34,0a15.76,15.76,0,0,0-9.57,4,12.63,12.63,0,0,0-4.08,10.64,51.46,51.46,0,0,1,.08,5.55v.14q0,1.2,0,2.4v8.17l3.28-.91c2.06-.57,4-1.11,5.94-1.69,9.64-2.94,15.3-9.33,16.82-19a8.08,8.08,0,0,0-1.19-6.19h0a7.74,7.74,0,0,0-5.35-2.85,32.57,32.57,0,0,0-4.5-.33Z"/><path class="cls-1" d="M63.15,134.55c-1.67-6.47-7-10.39-13.24-9.74A30.88,30.88,0,0,0,42,127a15.14,15.14,0,0,0-5.16,3.24,119.18,119.18,0,0,0-8.37,9.55c-1.36,1.72-3.24,4.58-3.73,5.35s2.18,3.89,4.14,2.39,5.39-9.41,9.56-13.17a16.25,16.25,0,0,1,5.45-3,41.24,41.24,0,0,1,6.45-1.55l.69-.13a6,6,0,0,1,6.94,3.2,11.85,11.85,0,0,1,1.6,7.93c-1.28,7.6-2.47,15.47-3.54,23.37-.34,2.56-.59,5.16-.83,7.68-.29,3-.58,6-1,9S53,187,52.32,190c-.32,1.39-.64,2.79-.93,4.19q-2.2,10.33-4.4,20.68c-2.49,11.75-5.34,24.33-9.27,36.67-2,6.17-3.5,12.6-5,18.81-.63,2.66-1.27,5.33-1.93,8-.32,1.25-.59,2.51-.86,3.76-.15.67-.29,1.34-.44,2-.35,1.56-.71,3.13-1.07,4.69-.79,3.41-1.6,6.94-2.33,10.42-.49,2.3-.88,4.66-1.27,6.94-.17,1-.35,2.05-.53,3.08l-.07.38,1.52,1.23.41-.31c.16-.12.34-.23.52-.34A3.5,3.5,0,0,0,28,309a16.15,16.15,0,0,0,1.54-3.88c.74-3,1.45-6.08,2.17-9.13,1-4.33,2.06-8.8,3.18-13.18,1.77-6.91,3.74-13.9,5.65-20.65L41,260.7c.56-2,1.16-4,1.77-5.93.93-3,1.89-6.16,2.66-9.29,1-4.11,1.86-8.34,2.68-12.42q.54-2.76,1.11-5.52l1.64-7.84q1.63-7.78,3.25-15.58c.89-4.3,1.53-7.6,2.07-10.7.42-2.39.8-4.79,1.17-7.18.24-1.5.47-3,.72-4.47l.2-1.24c.65-4,1.31-7.95,2-11.92.63-3.56,1.29-7.11,1.94-10.67l.8-4.28C64.1,147.68,64.88,141.22,63.15,134.55Z"/><path class="cls-2" d="M25.76,311.65l-2.21-1.79.13-.75c.17-.93.32-1.87.48-2.8l.05-.28c.39-2.28.78-4.64,1.27-7,.75-3.52,1.55-7,2.33-10.43l1.08-4.7.39-1.79,0-.2c.28-1.27.55-2.53.86-3.79.67-2.65,1.3-5.31,1.94-8,1.47-6.22,3-12.65,5-18.86C41,239,43.87,226.46,46.36,214.72q2.19-10.33,4.39-20.68c.29-1.35.6-2.69.9-4l0-.16c.69-3,1.39-6.05,1.84-9.07s.73-6,1-8.86c.25-2.58.5-5.18.85-7.77,1.06-7.89,2.26-15.76,3.54-23.38a11.27,11.27,0,0,0-1.53-7.52,5.38,5.38,0,0,0-6.25-2.87l-.69.13A41.12,41.12,0,0,0,44.11,132a15.39,15.39,0,0,0-5.23,2.83c-2.32,2.09-4.47,5.6-6.19,8.42-1.39,2.27-2.49,4.06-3.42,4.78-1.14.88-2.68.66-4-.55-.87-.8-1.54-1.94-1.06-2.7s2.32-3.59,3.77-5.41a118.44,118.44,0,0,1,8.41-9.6,16,16,0,0,1,5.39-3.4,31.75,31.75,0,0,1,8.08-2.23c6.58-.69,12.18,3.43,13.94,10.23h0c1.76,6.79,1,13.33-.14,19.38l-.8,4.29q-1,5.33-1.94,10.66c-.71,4-1.37,8-2,11.91l-.2,1.24c-.25,1.49-.48,3-.71,4.47-.37,2.36-.76,4.8-1.18,7.19-.54,3.1-1.18,6.41-2.07,10.72q-1.59,7.71-3.21,15.4l-1.68,8c-.38,1.84-.75,3.67-1.12,5.51-.81,4.09-1.66,8.32-2.68,12.46-.77,3.14-1.73,6.28-2.66,9.31-.61,2-1.22,4-1.78,5.93l-.41,1.46c-1.92,6.8-3.88,13.76-5.64,20.63-1.11,4.36-2.16,8.81-3.17,13.12-.72,3.1-1.44,6.15-2.18,9.19a16.8,16.8,0,0,1-1.6,4A4.13,4.13,0,0,1,27,310.73l-.47.31Zm-.8-2.32.83.67a5,5,0,0,1,.51-.34,3,3,0,0,0,1.15-1A15.47,15.47,0,0,0,28.94,305c.74-3,1.45-6.08,2.17-9.12,1-4.37,2.07-8.83,3.18-13.2,1.77-6.89,3.73-13.85,5.63-20.58l.43-1.55c.56-2,1.17-4,1.77-5.91.94-3.06,1.9-6.17,2.66-9.28,1-4.12,1.85-8.33,2.67-12.4.37-1.84.73-3.69,1.12-5.52l1.68-8c1.07-5.14,2.15-10.27,3.2-15.4.89-4.3,1.53-7.59,2.07-10.68.42-2.39.8-4.82,1.17-7.18.24-1.49.47-3,.71-4.47l.21-1.24c.64-3.88,1.29-7.89,2-11.92.63-3.57,1.28-7.12,2-10.68l.79-4.28c1.08-5.91,1.86-12.28.16-18.83-1.59-6.15-6.64-9.86-12.54-9.25a30.3,30.3,0,0,0-7.74,2.14,14.69,14.69,0,0,0-4.94,3.1A116,116,0,0,0,29,140.2c-1.27,1.6-3.06,4.3-3.64,5.22a3.2,3.2,0,0,0,1.56,1.65,1.43,1.43,0,0,0,1.58,0,22.63,22.63,0,0,0,3.1-4.43c1.76-2.89,4-6.49,6.43-8.71a17,17,0,0,1,5.66-3.09,44.34,44.34,0,0,1,6.53-1.57l.71-.13a6.72,6.72,0,0,1,7.63,3.53A12.52,12.52,0,0,1,60.21,141c-1.28,7.61-2.47,15.46-3.53,23.35-.35,2.56-.6,5.15-.84,7.66-.28,3-.58,6-1,9s-1.17,6.15-1.85,9.13l0,.2q-.47,2-.9,4Q49.82,204.66,47.63,215c-2.5,11.77-5.35,24.37-9.29,36.73-2,6.17-3.49,12.57-5,18.77-.63,2.66-1.27,5.33-1.93,8-.32,1.24-.59,2.49-.86,3.74l0,.2c-.13.61-.26,1.21-.4,1.81-.35,1.57-.71,3.13-1.07,4.7-.78,3.39-1.59,6.9-2.32,10.4-.49,2.31-.89,4.65-1.27,6.91l0,.29c-.16.93-.31,1.87-.48,2.8Z"/></g></g></svg>