<svg xmlns="http://www.w3.org/2000/svg" viewBox="0 0 141.73 141.73"><defs><style>.cls-1{fill:#e4cab7;}.cls-2{fill:#fff;}.cls-3{fill:#80445a;}</style></defs><g id="Calque_2" data-name="Calque 2"><g id="Calque_1-2" data-name="Calque 1"><polygon class="cls-1" points="140.73 141.38 0.37 141.38 0.37 5.6 141.36 5.6 140.73 141.38"/><path class="cls-2" d="M141.36,118.07a40.32,40.32,0,0,0-5.84-4.61,39.44,39.44,0,0,0-6.45-2.83c-5.82-2.06-13.22-4.12-14.46-5a6.94,6.94,0,0,1-1.79-2.31,10.65,10.65,0,0,1-1.33-4.86c0-2.59-.12-5.17-.25-7.75,0-.75-.4-1.49-.45-2.25-.07-1.34,0-2.69,0-4a4.91,4.91,0,0,0,.36-.89c-.12-.08.35-2.21.33-2.54-.11-2-.54-10.4-.49-10.9a6.25,6.25,0,0,0-.77-2.81,1.47,1.47,0,0,1,0-.88,5.2,5.2,0,0,0-.11-2.82,6.31,6.31,0,0,1,0-1.94c0-.62.2-1.24-.3-1.77a.33.33,0,0,1,0-.29c.58-.73.15-8.18.76-9.21.44-.75-.52-13.6-.83-14.1l0,0a6.32,6.32,0,0,0-1-2.73c-.17-.32-2-5.48-3-7-.15-.26-.26-.72-.78-.51,0,0-.14-.18-.21-.28-.87-1.28-1.72-2.57-2.61-3.83a19,19,0,0,0-1.21-1.48,1,1,0,0,0-.67-.35l.24.42-.1.09c-.19-.14-.53-.27-.55-.44C99.68,19,98.68,19,98,18.62c-.49-.22-.94-.34-1.17-.95-.13-.34-.6-.6-1-.81-1-.55-2-1.06-3-1.58a4.88,4.88,0,0,1-.69-.33c-.6-.44-1.18-.83-2-.41-.14.07-.47-.2-.71-.32s-.62-.34-1.07-.59V13c-1.07-.44-1.28-1.54-1.83-2.36a15.23,15.23,0,0,0-1-1.58V10c-.68-.61-1.26-1.14-1.87-1.65a.87.87,0,0,0-.48-.17,6.38,6.38,0,0,1-2.69-.42c-.2-.11-.53,0-.81,0-1,0-2,0-3,.06s-1.86.29-2.85.45l.08.42c-.47.21-1,.41-1.44.64a1.1,1.1,0,0,0-.51.41c-.23.46-.5.64-1,.44a.93.93,0,0,0-.71.16c-.82.56-1.6,1.16-2.4,1.73a2.22,2.22,0,0,1-.84.42c.3-1,1.39-1.35,2-2a14.82,14.82,0,0,0-2,.15c-.29,0-.52.41-.89.74l-.57.26-1.65.66L62.48,13l0,0-1.26.87c-.1.07-.24.09-.33.17a47,47,0,0,0-4.37,3.55,54.89,54.89,0,0,0-4.85,5.59,48.71,48.71,0,0,0-2.83,4.67.85.85,0,0,0,.28,1.27c-.34-1.37.69-2.16,1.25-3.13.26-.44.59-.84,1-1.35.08.21.17.33.14.37a22.72,22.72,0,0,1-1.23,1.94c-.36.48-.72.85-.4,1.54.12.24-.12.71-.3,1-.29.48-.68.89-1,1.35a4.22,4.22,0,0,0-.43.88c-.58,1.56-1.14,3.13-1.7,4.7-.14.4-.27.8-.4,1.21l.17.15a2.71,2.71,0,0,0,.49-.53c.73-1.37,1.43-2.75,2.15-4.11a5.89,5.89,0,0,1,.41-.57l.18.11c0,.14-.1.28-.16.41a5.56,5.56,0,0,0-.74,2.31.37.37,0,0,1-.09.2c-.95,1.24-1.14,2.78-1.7,4.18a26.53,26.53,0,0,0-.76,3A12.06,12.06,0,0,1,45.5,44c.06-.31.13-.62.2-.93l-.19,0-.66,1.77.22.09.4-.78a5,5,0,0,1-.88,2,27.44,27.44,0,0,0-1.36,3.68c-.69,2-1.34,4.09-2,6.11a24.61,24.61,0,0,1-1.26,2.88c-.16.31-.56.51-.89.8-.33.88-.72,1.87-1.08,2.88-.17.47-.25,1-.42,1.44s-.34.84-.53,1.25c-.72,1.56-1.45,3.11-2.17,4.67a1.78,1.78,0,0,0,0,.47l.57-.42c.05.08.12.14.12.2-.08.91-.17,1.83-.24,2.74a1.56,1.56,0,0,0,0,.61,5.31,5.31,0,0,1-.21,3,1.75,1.75,0,0,0,.06,1l.48-1.66.25.9.44-.72-2,6.86-.38-.56L33.51,84l.48-.56a14.46,14.46,0,0,1-1.18,5.47l1-.83c.33,1.13-.47,1.86-.87,2.71a14.64,14.64,0,0,0-.78,1.59l.88-1,.25.17-1.09,1.91c-.08.13-.18.25-.25.38-.2.41-.14,1-.76,1.14-.13,0-.21.4-.25.62a21,21,0,0,1-.38,2.1,12.22,12.22,0,0,1-.76,1.65,26.1,26.1,0,0,0-1.48,3.29,38.92,38.92,0,0,0-.83,4.06l-.33-.18c.25,1.11-9.32,2.74-16.32,5A27.88,27.88,0,0,0,5.09,114a19.69,19.69,0,0,0-4.72,3.78V.68h141Z"/><path class="cls-2" d="M98.43,77.65c.1-.28.2-.57.33-.85a.69.69,0,0,1,.31.09,6.24,6.24,0,0,1-.09.69c1.16.67,1.41,1,1.34,2.17a2.78,2.78,0,0,0-.35-.7,3.15,3.15,0,0,0-1.19-.88,1.13,1.13,0,0,0-1.35.85,26.24,26.24,0,0,1-1.13,3,1.76,1.76,0,0,0,.24,1.78c.34.62,1,.65,1.85.18a1.31,1.31,0,0,1,.44-.12c0,.16,0,.37-.15.5a1.84,1.84,0,0,1-2.54-.23c-.16-.21-.3-.45-.5-.76-.2.27-.38.47-.52.7q-1.66,2.76-3.32,5.52a18.15,18.15,0,0,0-1.52,2.71,9.6,9.6,0,0,0-.3,2.3c-.18,1.5-.31,3-.56,4.51s-.59,2.77-.88,4.16c0,.09,0,.18.17.33a12.12,12.12,0,0,0,.57-1.14c1.2-3.2,2.37-6.41,3.59-9.61.36-.94.86-1.83,1.3-2.74,0,0,0-.11.09-.12a1.06,1.06,0,0,0,.86-1.19,13.49,13.49,0,0,1,.23-1.59l1.34-.72c.06.51.73,1-.18,1.47-.13.07-.15.52-.1.78a32.26,32.26,0,0,1,.34,8.55,57.35,57.35,0,0,1-1.19,6,1.51,1.51,0,0,1-.6.79l-.06-.71c.19-.18.49-.33.5-.5a30.28,30.28,0,0,0,.12-3.57c-.18.89-.33,1.79-.56,2.67-.3,1.1-.65,2.19-1,3.27a.61.61,0,0,1-.52.24c-1.24-.36-2.47-.77-3.7-1.15L88.39,104c-.47,1.48-.86,2.88-1.35,4.25a23.52,23.52,0,0,0-1.45,3.89c-.2,1.34-1.25,2.4-1,3.85.06.43-.28.9-.35,1.37-.29,1.81-.52,3.64-.82,5.45-.13.82-.41,1.61-.55,2.42-.31,1.84-.54,3.7-.88,5.54a5.43,5.43,0,0,0-.11,2.6c.12.42-.39,1-.66,1.53a15.48,15.48,0,0,1-.83,1.42,6.87,6.87,0,0,1-.48.62,3.66,3.66,0,0,1-.54-.65,9,9,0,0,1-.56-1.22c-.06-.17-6.68-5.9-7.16-6.08-.26-.09-1.23-.86-1.55-1-1-.46-1.45-1.42-2-2.25a2.64,2.64,0,0,0-.45-.58,2.08,2.08,0,0,1-.86-2.4,1.8,1.8,0,0,0-.58-1.27,1.38,1.38,0,0,1-.45-.94c-.08-.61-.42-1.18-.56-1.79-.27-1.23-.48-2.47-.73-3.71a1.35,1.35,0,0,0-.25-.63,3.7,3.7,0,0,1-.7-3.46,7.5,7.5,0,0,0-.06-1.49c-.12-2.85-.24-5.71-.35-8.56a16.69,16.69,0,0,1,0-3.6c.29-1.55-.72-2.12-1.64-2.84a17.5,17.5,0,0,1-4-4.48C56.2,88.06,55,86.18,54,84.21a28.35,28.35,0,0,1-2-4.86q-1.47-4.87-2.68-9.82a15.91,15.91,0,0,1-.13-3.25c0-.1.06-.2,0-.3-.21-1.58.72-2.85,1.26-4.19a27.42,27.42,0,0,1,2.34-4.24c.24-.39.83-.58,1.35-.92l.47,1.07c.75-1,1.55-.24,2.25,0a10.11,10.11,0,0,0,6.62.38,17.09,17.09,0,0,1,2-.28c.44-.06.87-.17,1.31-.25l0-.23H63.68L64,54.71,66.18,56l.12-.19-2.06-2.15.91-.2c-.44-.7-.81-1.37-1.26-2s-.89-1.07-1.35-1.6a2.41,2.41,0,0,0-1.76-1.15,7.73,7.73,0,0,0-3.26.62,7.21,7.21,0,0,0-3.26,1.93,1.53,1.53,0,0,1-1.23.48c-.75-.18-.78-1-.9-1.61a6.76,6.76,0,0,1,.07-1.9,2.4,2.4,0,0,1,2-2.11,8.36,8.36,0,0,1,1.46-.44,4.26,4.26,0,0,1,1.37.4,2,2,0,0,0,.47.43c1,.47,2.08.92,3.12,1.38a1.38,1.38,0,0,0,.43.15l3.84.24a.37.37,0,0,0,.21-.06,1.14,1.14,0,0,1,1.88.36l.13-.16c-.09-.27-.11-.6-.29-.78a3.32,3.32,0,0,1-1.09-2.26c0-.26-.62-.63-1-.7-1.56-.31-3.13-.51-4.69-.78-.25,0-.47-.27-.68-.29L54,43.3c.24-.78.37-1.39.6-2,.57-1.49,1.19-3,1.78-4.44.68-1.68,1.26-3.41,2.06-5a29.9,29.9,0,0,1,2.22-3.5,8.37,8.37,0,0,1,1.15-1.48c.72-.65,1.52-1.2,2.29-1.78.09-.08.24-.11.31-.2,1.2-1.61,3.11-2.14,4.74-3.08a10.11,10.11,0,0,1,2.41-.57,8.21,8.21,0,0,0,1.8-.64,5.15,5.15,0,0,1,3.27-.48,1.39,1.39,0,0,0,.73,0A4.19,4.19,0,0,1,80,20a7.15,7.15,0,0,0,3.78-.24.74.74,0,0,1,.44,0c.85.2,1.7.41,2.54.63a.76.76,0,0,1,.38.19A9.31,9.31,0,0,0,90.32,23a2.27,2.27,0,0,1,.68.6c.65.74,1.28,1.5,2,2.23a2.82,2.82,0,0,0,.67.42,2.51,2.51,0,0,1,.57.36c.5.59,1,1.21,1.45,1.8a1.51,1.51,0,0,0,.28.22c.28.21.69.36.79.63a40.62,40.62,0,0,1,1.6,4.9,8,8,0,0,0,.83,2.8,8.48,8.48,0,0,1,.78,2.12c.55,1.64.43,3.34.79,5a28.29,28.29,0,0,1,.18,4.59c0,.73.11,1.47.1,2.2,0,3.76,0,7.52-.21,11.27-.17,2.77-.68,5.52-1.12,8.27-.32,2-.76,4-1.17,5.94,0,.26-.28.48-.34.74a2.18,2.18,0,0,0,.06.71Zm-5.7-20.87c.62-.29,1.31-1,2-1.06a1.25,1.25,0,0,0,.76-.46.74.74,0,0,0,.11-.69c-.87-1-1.24-2.42-2.38-3.35-.72-.59-1.53-1-2.27-1.58a2.62,2.62,0,0,0-.9-.36c-.76-.18-1.53-.32-2.3-.47-.47-.09-.95-.16-1.42-.24l-.08-.33A23.52,23.52,0,0,1,89,46.78a7,7,0,0,1,2.76-.59,11.89,11.89,0,0,1,3,.78,2.79,2.79,0,0,1,.91.67c.46.47.86,1,1.33,1.44.15.15.53.29.64.21s.45-.51.39-.7a6,6,0,0,0-.83-2.14,15.46,15.46,0,0,0-4.32-3.14,1.06,1.06,0,0,0-.58-.14c-1.41.09-2.83.17-4.23.31a24.53,24.53,0,0,0-6.46,1.8,3.81,3.81,0,0,0-2.21,2.94,6.84,6.84,0,0,0,0,1.43c.84-.12,1.51-.23,2.18-.3a.57.57,0,0,1,.39.27c0,.06-.07.27-.16.36-.89.93-1.8,1.84-2.68,2.77a3.76,3.76,0,0,0-.88,1.17c-.2.61-1,1-1,1.21a6.08,6.08,0,0,0,.82,3.61c.06.14,0,.16.4.31s3-1,3.35-1.06a5.46,5.46,0,0,1,2.11.15,10.09,10.09,0,0,0,3,.78,12.23,12.23,0,0,0,2.1-.37c.88-.12,1.12-.57,1.69-.8S92.12,57.07,92.73,56.78ZM85.18,84.57a3,3,0,0,0-.67-.28c-2.49-.51-5-1-7.47-1.46a4.25,4.25,0,0,0-2.24,0,8.08,8.08,0,0,1-3.23.63c-.7,0-1.32.08-1.48.85-1.27,0-2.38-.25-3-1.3a7,7,0,0,1-1.28.42c-.85.1-1.71.11-2.57.18a2,2,0,0,0-.58.23,1.69,1.69,0,0,0,.3.49c.62.52,1.25,1,1.89,1.5a2,2,0,0,0,.56.15L65,85.22c.82-.66,1.44-.53,1.89.32.08.15.32.33.45.31a.63.63,0,0,0,.37-.41,1.35,1.35,0,0,0-.06-.55,15.25,15.25,0,0,1,1.79,0,3.92,3.92,0,0,1,1.2.46.63.63,0,0,1,.16.49c-.79.6,0,1.26-.17,1.88a.28.28,0,0,0,.15-.11l.47-.6c.2.23.57.39.22.8,0,.06.16.33.32.63L72.4,87l.69,1.41.4-.78,1.39,1,.34-1h.21a7.06,7.06,0,0,1,.25.9c0,.24-.19.58-.08.72.48.65.18,1-.62,1.16C77.19,90.63,84.33,86.54,85.18,84.57ZM77.29,74c.42-.3.68-.75.25-1.13-.19-.16-.72,0-1.05.1a1.15,1.15,0,0,0-.54.53,11.62,11.62,0,0,0-.49,1.07A5.17,5.17,0,0,0,77.29,74Zm-7-.35.11-.24-1.07-.67c-.11.28-.4.65-.31.83C69.35,74.25,69.83,73.55,70.27,73.66Zm4.16,16.78v-.13l-2.64-.15v.28Z"/><path class="cls-2" d="M31,97l.75.69.25,0c-.69-1.09-.07-1.92.36-3l.21.66.93-2a6.14,6.14,0,0,0,.17,3.4.72.72,0,0,1-.16.62,2.76,2.76,0,0,0-.78,2.26,6.1,6.1,0,0,1-1.14,3.18c-.05.09-.51,0-.51,0-.05-.4-.69-.78,0-1.23.19-.12.11-.7.16-1.11-.54.22-.61,0-.46-.46a4.86,4.86,0,0,0,.4-1.14A14.66,14.66,0,0,0,31,97Z"/><path class="cls-2" d="M59.24,58.17c-.66-.24-1.35-.44-2-.74A5.62,5.62,0,0,1,56,56.5a1.22,1.22,0,0,1,.12-1.57A2.87,2.87,0,0,1,58.32,54c-.26,1.45-.33,2.87,1.09,3.88Z"/><path class="cls-2" d="M63.24,51.61l-4.3-.33-.34-1.12c1.28-.86,2.08-.73,3.1.41a4.76,4.76,0,0,0,1,.64C62.92,51.34,63.1,51.5,63.24,51.61Z"/><path class="cls-2" d="M38.92,104.41l1.15-12.16C40.49,93,39.69,102.47,38.92,104.41Z"/><path class="cls-2" d="M98.4,87.55c.13,1.41.27,2.71.34,4,0,.27-.26.56-.41.85C97.43,91.31,97.41,87.88,98.4,87.55Z"/><path class="cls-2" d="M46.41,97.05c.91,1.68,1.44,5.61,1,6.73-.07-1.09-.12-2.14-.23-3.17a5,5,0,0,0-.61-2.43C46.38,98,46.46,97.57,46.41,97.05Z"/><path class="cls-2" d="M35.66,85.42,34.14,91A12.77,12.77,0,0,1,35.66,85.42Z"/><path class="cls-2" d="M98.77,75.2a7.54,7.54,0,0,1,1-.79c.06,0,.3.23.45.36a3.22,3.22,0,0,1-.63.69C99.49,75.54,99.2,75.34,98.77,75.2Z"/><path class="cls-2" d="M56.79,51.59c.13-.22.29-.62.38-.61a3.35,3.35,0,0,1,.86.4l-1,.45Z"/><path class="cls-2" d="M44.84,97.48V94.54h.22l-.23,3Z"/><path class="cls-2" d="M35.92,74.82l.27-1.91.24,0-.16,1.94Z"/><path class="cls-2" d="M59.76,55c.23.11.58.18.6.3a4.47,4.47,0,0,1,0,1c-.14,0-.39,0-.41-.08C59.84,55.86,59.81,55.5,59.76,55Z"/><path class="cls-2" d="M47.22,106.43l-.1-1.61.25,0,.16,1.63Z"/><path class="cls-2" d="M44.83,97.5c.12,0,.35.07.35.11a6.17,6.17,0,0,1-.13,1.81c-.07-.65-.14-1.29-.2-1.94Z"/><path class="cls-2" d="M29,102.85l-.18,1.21a3.21,3.21,0,0,1-.41-.18c.1-.38.23-.75.36-1.12Z"/><path class="cls-2" d="M82.57,51.42c-.22.26-.43.53-.64.8l-.58.77c.27.78.83.7,1.47.39l.07.18c-.08.15-.11.36-.23.45-.64.48-1.3,1-2,1.4-.14.1-.41.18-.51.11A.72.72,0,0,1,80,55c0-.19.19-.42.14-.56-.2-.5-.58-.83-.1-1.52a6.24,6.24,0,0,1,1.33-1.12,6,6,0,0,1,1-.57Z"/><path class="cls-2" d="M88.75,57.55c.82-1.35,1.26-2.64.54-4a2.78,2.78,0,0,1,2.22,1.76.77.77,0,0,1,0,.37A5.67,5.67,0,0,1,88.75,57.55Z"/><path class="cls-2" d="M83.93,54.11c-.43,2.24-.18,2.83,1.39,3.67-.9-.21-1.85-.42-2.79-.65a2,2,0,0,1-1-1.52l.6.34A3.23,3.23,0,0,1,83.93,54.11Z"/><path class="cls-2" d="M83.17,51.38a12.08,12.08,0,0,1,.63,1.43c0,.16-.19.4-.3.61-.14-.13-.28-.28-.43-.4C82.47,52.55,82.48,52.06,83.17,51.38Z"/><path class="cls-3" d="M140.73,1V140.73H1V1H140.73m1-1H0V141.73H141.73V0Z"/></g></g></svg>