<?xml version="1.0" encoding="utf-8"?>
<!-- Generator: Adobe Illustrator 25.2.1, SVG Export Plug-In . SVG Version: 6.00 Build 0)  -->
<svg version="1.1" id="Calque_1" xmlns="http://www.w3.org/2000/svg" xmlns:xlink="http://www.w3.org/1999/xlink" x="0px" y="0px"
	 viewBox="0 0 141.7 141.7" style="enable-background:new 0 0 141.7 141.7;" xml:space="preserve">
<style type="text/css">
	.st0{fill:#E4CAB7;}
	.st1{fill:#FFFFFF;}
	.st2{fill:#80445A;}
</style>
<g>
	<polygon class="st0" points="140.9,141.4 0.5,141.4 0.5,5.6 141.5,5.6 	"/>
	<path class="st1" d="M141.5,118.1c0,0-3.6-3.4-5.8-4.6c-2.2-1.2-3.6-1.8-6.4-2.8c-5.8-2.1-13.2-4.1-14.5-5
		c-0.8-0.6-1.3-1.5-1.8-2.3c-0.8-1.5-1.3-3.1-1.3-4.9c-0.1-2.6-0.1-5.2-0.2-7.7c0-0.8-0.4-1.5-0.5-2.2c-0.1-1.3,0-2.7,0-4
		c0.1,0,0.5-1.3,0.4-0.9c-0.1-0.1,0.3-2.2,0.3-2.5c-0.1-2-0.5-10.4-0.5-10.9c0.1-1.1-0.5-1.9-0.8-2.8c-0.1-0.3-0.1-0.6,0-0.9
		c0.3-1,0.1-1.9-0.1-2.8c-0.1-0.6-0.1-1.3,0-1.9c0-0.6,0.2-1.2-0.3-1.8c-0.1-0.1-0.1-0.2,0-0.3c0.6-0.7,0.2-8.2,0.8-9.2
		c0.4-0.7-0.5-13.6-0.8-14.1l0,0c0-1-0.5-1.9-1-2.7c-0.2-0.3-2.1-5.5-3-7c-0.2-0.3-0.3-0.7-0.8-0.5c0,0-0.1-0.2-0.2-0.3
		c-0.9-1.3-1.7-2.6-2.6-3.8c-0.4-0.5-0.8-1-1.2-1.5c-0.2-0.2-0.4-0.3-0.7-0.4c0.1,0.1,0.2,0.3,0.2,0.4c0,0-0.1,0.1-0.1,0.1
		c-0.2-0.1-0.5-0.3-0.6-0.4c-0.1-1.1-1.1-1.1-1.9-1.5c-0.5-0.2-0.9-0.3-1.2-1c-0.1-0.3-0.6-0.6-1-0.8c-1-0.6-2-1.1-3-1.6
		c-0.2-0.1-0.5-0.2-0.7-0.3c-0.6-0.4-1.2-0.8-2-0.4c-0.1,0.1-0.5-0.2-0.7-0.3c-0.3-0.2-0.6-0.3-1.1-0.6c0-0.1,0-0.4,0-0.7
		c-1.1-0.4-1.3-1.5-1.8-2.4c-0.3-0.5-0.6-1.1-1-1.6c0,0.3,0,0.5,0,0.9c-0.7-0.6-1.3-1.1-1.9-1.6c-0.1-0.1-0.3-0.1-0.5-0.2
		c-0.9-0.1-1.8,0.1-2.7-0.4c-0.2-0.1-0.5,0-0.8,0c-1,0-2,0-2.9,0.1C75.9,7.9,75,8.1,74,8.3c0,0.1,0,0.2,0.1,0.4
		c-0.5,0.2-1,0.4-1.4,0.6c-0.2,0.1-0.4,0.2-0.5,0.4c-0.2,0.5-0.5,0.6-1,0.4c-0.2-0.1-0.5,0-0.7,0.2c-0.8,0.6-1.6,1.2-2.4,1.7
		c-0.2,0.2-0.5,0.3-0.8,0.4c0.3-1,1.4-1.4,2-2c-0.7,0-1.4,0-2,0.1c-0.3,0.1-0.5,0.4-0.9,0.7c-0.1,0-0.3,0.2-0.6,0.3
		c-0.6,0.2-1.1,0.5-1.6,0.7c-0.5,0.2-0.9,0.5-1.4,0.7c0,0,0,0,0,0c-0.4,0.3-0.8,0.6-1.3,0.9c-0.1,0.1-0.2,0.1-0.3,0.2
		c-1.5,1.2-3.1,2.2-4.4,3.5c-1.7,1.7-3.4,3.6-4.8,5.6c-1.1,1.4-1.9,3.1-2.8,4.7c-0.3,0.5-0.2,0.9,0.3,1.3C49,27.7,50,27,50.6,26
		c0.3-0.4,0.6-0.8,0.9-1.3c0.1,0.2,0.2,0.3,0.1,0.4c-0.4,0.7-0.8,1.3-1.2,1.9c-0.4,0.5-0.7,0.9-0.4,1.5c0.1,0.2-0.1,0.7-0.3,1
		c-0.3,0.5-0.7,0.9-1,1.4c-0.2,0.3-0.3,0.6-0.4,0.9c-0.6,1.6-1.1,3.1-1.7,4.7c-0.1,0.4-0.3,0.8-0.4,1.2c0.1,0.1,0.1,0.1,0.2,0.2
		c0.2-0.2,0.4-0.3,0.5-0.5c0.7-1.4,1.4-2.7,2.2-4.1c0.1-0.2,0.3-0.4,0.4-0.6c0.1,0,0.1,0.1,0.2,0.1c-0.1,0.1-0.1,0.3-0.2,0.4
		c-0.3,0.7-0.8,1.5-0.7,2.3c0,0.1,0,0.1-0.1,0.2c-0.9,1.2-1.1,2.8-1.7,4.2c-0.4,0.9-0.5,2-0.8,3c-0.1,0.4-0.3,0.8-0.5,1.3
		c0.1-0.3,0.1-0.6,0.2-0.9c-0.1,0-0.1,0-0.2-0.1c-0.2,0.6-0.4,1.2-0.7,1.8c0.1,0,0.1,0.1,0.2,0.1c0.1-0.3,0.3-0.5,0.4-0.8
		c0,0.8-0.5,1.3-0.9,2c-0.6,1.2-0.9,2.4-1.4,3.7c-0.7,2-1.3,4.1-2.1,6.1c-0.3,1-0.8,1.9-1.3,2.9c-0.2,0.3-0.6,0.5-0.9,0.8
		c-0.3,0.9-0.7,1.9-1.1,2.9c-0.2,0.5-0.3,1-0.4,1.4c-0.1,0.4-0.3,0.8-0.5,1.2c-0.7,1.6-1.4,3.1-2.2,4.7c0,0.1,0,0.2,0,0.5
		c0.2-0.2,0.4-0.3,0.6-0.4c0.1,0.1,0.1,0.1,0.1,0.2c-0.1,0.9-0.2,1.8-0.2,2.7c0,0.2,0,0.4,0,0.6c0.4,1,0,2-0.2,3
		c-0.1,0.3-0.1,0.6,0.1,1c0.1-0.5,0.3-1,0.5-1.7c0.1,0.4,0.2,0.6,0.3,0.9c0.1-0.2,0.2-0.4,0.4-0.7c-0.7,2.4-1.3,4.6-2,6.9
		c-0.1-0.2-0.2-0.3-0.4-0.6c-0.1,0.6-0.2,1.1-0.4,1.7c0.2-0.3,0.3-0.4,0.5-0.6c0.1,2-0.6,3.7-1.2,5.5c0.3-0.3,0.6-0.5,1-0.8
		c0.3,1.1-0.5,1.9-0.9,2.7c-0.3,0.5-0.6,1-0.8,1.6c0.3-0.3,0.6-0.7,0.9-1c0.1,0.1,0.2,0.1,0.3,0.2c-0.4,0.6-0.7,1.3-1.1,1.9
		c-0.1,0.1-0.2,0.2-0.2,0.4c-0.2,0.4-0.1,1-0.8,1.1c-0.1,0-0.2,0.4-0.2,0.6c-0.1,0.7-0.2,1.4-0.4,2.1c-0.2,0.6-0.5,1.1-0.8,1.6
		c-0.5,1.1-1.1,2.1-1.5,3.3c-0.4,1.3-0.6,2.7-0.8,4.1c0,0-0.1-0.1-0.3-0.2c0.2,1.1-9.3,2.7-16.3,5c-2.4,0.8-3.2,1.1-5.7,2.5
		s-4.7,3.8-4.7,3.8s0-70.1,0-117.1c34.7,0,106.3,0,141,0C141.5,35.9,141.5,118.1,141.5,118.1z"/>
	<path class="st1" d="M98.6,77.7c0.1-0.3,0.2-0.6,0.3-0.9c0,0,0.3,0.1,0.3,0.1c0,0.2,0,0.4-0.1,0.7c1.2,0.7,1.4,1,1.3,2.2
		c-0.2-0.3-0.2-0.6-0.3-0.7c-0.4-0.3-0.7-0.8-1.2-0.9c-0.6-0.1-1.1,0.2-1.3,0.9c-0.4,1-0.7,2-1.1,3c-0.3,0.7-0.1,1.2,0.2,1.8
		c0.3,0.6,1,0.7,1.9,0.2c0.1-0.1,0.3-0.1,0.4-0.1c0,0.2,0,0.4-0.1,0.5c-0.5,0.6-2,0.5-2.5-0.2c-0.2-0.2-0.3-0.5-0.5-0.8
		c-0.2,0.3-0.4,0.5-0.5,0.7c-1.1,1.8-2.2,3.7-3.3,5.5c-0.5,0.9-1.1,1.8-1.5,2.7c-0.3,0.7-0.2,1.5-0.3,2.3c-0.2,1.5-0.3,3-0.6,4.5
		c-0.2,1.4-0.6,2.8-0.9,4.2c0,0.1,0,0.2,0.2,0.3c0.2-0.4,0.4-0.7,0.6-1.1c1.2-3.2,2.4-6.4,3.6-9.6c0.4-0.9,0.9-1.8,1.3-2.7
		c0,0,0-0.1,0.1-0.1c0.6-0.1,0.9-0.6,0.9-1.2c0-0.5,0.1-0.9,0.2-1.6c0.3-0.1,0.8-0.4,1.3-0.7c0.1,0.5,0.7,1-0.2,1.5
		c-0.1,0.1-0.2,0.5-0.1,0.8c0.5,2.8,0.6,5.7,0.3,8.6c-0.2,2-0.8,4-1.2,6c-0.1,0.3-0.3,0.6-0.6,0.8c0-0.3,0-0.5-0.1-0.7
		c0.2-0.2,0.5-0.3,0.5-0.5c0.1-1.2,0.1-2.4,0.1-3.6c-0.2,0.9-0.3,1.8-0.6,2.7c-0.3,1.1-0.7,2.2-1,3.3c0,0.1-0.4,0.3-0.5,0.2
		c-1.2-0.4-2.5-0.8-3.7-1.2c-0.4-0.1-0.8-0.2-1.3-0.4c-0.5,1.5-0.9,2.9-1.3,4.2c-0.5,1.3-1.2,2.6-1.4,3.9c-0.2,1.3-1.2,2.4-1,3.8
		c0.1,0.4-0.3,0.9-0.4,1.4c-0.3,1.8-0.5,3.6-0.8,5.5c-0.1,0.8-0.4,1.6-0.6,2.4c-0.3,1.8-0.5,3.7-0.9,5.5c-0.2,0.9-0.4,1.7-0.1,2.6
		c0.1,0.4-0.4,1-0.7,1.5c-0.3,0.5-0.5,1-0.8,1.4c-0.1,0.2-0.3,0.4-0.5,0.6c-0.2-0.2-0.4-0.4-0.5-0.6c-0.2-0.4-0.4-0.8-0.6-1.2
		c-0.1-0.2-6.7-5.9-7.2-6.1c-0.3-0.1-1.2-0.9-1.5-1c-1-0.5-1.4-1.4-2-2.2c-0.1-0.2-0.3-0.4-0.5-0.6c-0.9-0.7-1-1.3-0.9-2.4
		c0.1-0.4-0.3-1-0.6-1.3c-0.3-0.3-0.4-0.5-0.4-0.9c-0.1-0.6-0.4-1.2-0.6-1.8c-0.3-1.2-0.5-2.5-0.7-3.7c0-0.2-0.1-0.5-0.3-0.6
		c-0.9-1-0.9-2.2-0.7-3.5c0.1-0.5,0-1-0.1-1.5c-0.1-2.9-0.2-5.7-0.3-8.6c0-1.2-0.3-2.4,0-3.6c0.3-1.5-0.7-2.1-1.6-2.8
		c-1.6-1.3-2.9-2.8-4-4.5c-1.2-1.9-2.4-3.8-3.4-5.7c-0.8-1.5-1.4-3.2-1.9-4.9c-1-3.2-1.9-6.5-2.7-9.8c-0.3-1-0.1-2.2-0.1-3.3
		c0-0.1,0.1-0.2,0.1-0.3c-0.2-1.6,0.7-2.9,1.3-4.2c0.6-1.5,1.5-2.9,2.3-4.2c0.2-0.4,0.8-0.6,1.4-0.9c0.2,0.4,0.3,0.7,0.5,1.1
		c0.7-1,1.5-0.2,2.3,0c2.2,0.9,4.4,1,6.6,0.4c0.7-0.2,1.4-0.2,2-0.3c0.4-0.1,0.9-0.2,1.3-0.3c0-0.1,0-0.2,0-0.2c-1.1,0-2.2,0-3.2,0
		c0.1-0.9,0.2-1.8,0.3-2.7c0.7,0.4,1.4,0.9,2.2,1.3c0-0.1,0.1-0.1,0.1-0.2c-0.7-0.7-1.3-1.4-2.1-2.2c0.3-0.1,0.5-0.1,0.9-0.2
		c-0.4-0.7-0.8-1.4-1.3-2c-0.4-0.6-0.9-1.1-1.3-1.6c-0.5-0.6-0.9-1.1-1.8-1.1c-1.1-0.1-2.2,0.2-3.3,0.6c-1.2,0.5-2.4,0.9-3.3,1.9
		c-0.3,0.3-0.9,0.6-1.2,0.5c-0.7-0.2-0.8-1-0.9-1.6c-0.1-0.6,0-1.3,0.1-1.9c0.1-1.1,0.9-1.9,2-2.1c0.5-0.1,1-0.4,1.5-0.4
		c0.4,0,0.9,0.3,1.4,0.4c0.1,0.1,0.3,0.3,0.5,0.4c1,0.5,2.1,0.9,3.1,1.4c0.1,0.1,0.3,0.1,0.4,0.2c1.3,0.1,2.6,0.2,3.8,0.2
		c0.1,0,0.2,0,0.2-0.1c0.7-0.5,1.3-0.5,1.9,0.4c0-0.1,0.1-0.1,0.1-0.2c-0.1-0.3-0.1-0.6-0.3-0.8c-0.6-0.6-1-1.3-1.1-2.3
		c0-0.3-0.6-0.6-1-0.7c-1.6-0.3-3.1-0.5-4.7-0.8c-0.3,0-0.5-0.3-0.7-0.3c-1.7-0.1-3.5-0.2-5.4-0.3c0.2-0.8,0.4-1.4,0.6-2
		c0.6-1.5,1.2-3,1.8-4.4c0.7-1.7,1.3-3.4,2.1-5c0.6-1.2,1.5-2.3,2.2-3.5c0.3-0.5,0.7-1.1,1.2-1.5c0.7-0.6,1.5-1.2,2.3-1.8
		c0.1-0.1,0.2-0.1,0.3-0.2c1.2-1.6,3.1-2.1,4.7-3.1c0.7-0.4,1.6-0.4,2.4-0.6c0.6-0.2,1.2-0.3,1.8-0.6c1-0.5,2.1-0.7,3.3-0.5
		c0.2,0,0.5,0.1,0.7,0c0.9-0.5,1.7-0.2,2.6-0.1c1.3,0.1,2.6,0.3,3.8-0.2c0.1-0.1,0.3-0.1,0.4,0c0.8,0.2,1.7,0.4,2.5,0.6
		c0.1,0,0.3,0.1,0.4,0.2c0.9,1.1,1.9,1.9,3.2,2.5c0.3,0.1,0.5,0.4,0.7,0.6c0.7,0.7,1.3,1.5,1.9,2.2c0.2,0.2,0.4,0.3,0.7,0.4
		c0.2,0.1,0.4,0.2,0.6,0.4c0.5,0.6,1,1.2,1.4,1.8c0.1,0.1,0.2,0.1,0.3,0.2c0.3,0.2,0.7,0.4,0.8,0.6c0.6,1.6,1.2,3.2,1.6,4.9
		c0.2,1,0.3,2,0.8,2.8c0.4,0.7,0.5,1.4,0.8,2.1c0.6,1.6,0.4,3.3,0.8,5c0.3,1.6,0.1,3.1,0.2,4.6c0,0.7,0.1,1.5,0.1,2.2
		c0,3.8,0,7.5-0.2,11.3c-0.2,2.8-0.7,5.5-1.1,8.3c-0.3,2-0.8,4-1.2,5.9c-0.1,0.3-0.3,0.5-0.3,0.7c0,0.2,0,0.5,0.1,0.7
		C98.4,77.8,98.5,77.7,98.6,77.7z M92.9,56.8c0.6-0.3,1.3-1,2-1.1c0.3,0,0.6-0.2,0.8-0.5c0.1-0.2,0.2-0.6,0.1-0.7
		c-0.9-1-1.2-2.4-2.4-3.3c-0.7-0.6-1.5-1-2.3-1.6c-0.3-0.2-0.6-0.3-0.9-0.4c-0.8-0.2-1.5-0.3-2.3-0.5c-0.5-0.1-0.9-0.2-1.4-0.2
		c0-0.1,0-0.2-0.1-0.3c0.9-0.5,1.8-1.1,2.8-1.5c0.9-0.3,1.8-0.6,2.8-0.6c1,0,2,0.5,3,0.8c0.3,0.1,0.6,0.4,0.9,0.7
		c0.5,0.5,0.9,1,1.3,1.4c0.2,0.1,0.5,0.3,0.6,0.2c0.2-0.2,0.4-0.5,0.4-0.7c-0.2-0.7-0.4-1.6-0.8-2.1c-1.1-1.4-2.8-2.2-4.3-3.1
		c-0.2-0.1-0.4-0.2-0.6-0.1c-1.4,0.1-2.8,0.2-4.2,0.3c-2.3,0.2-4.4,1-6.5,1.8c-1.3,0.5-1.9,1.6-2.2,2.9c-0.1,0.5,0,1,0,1.4
		c0.8-0.1,1.5-0.2,2.2-0.3c0.1,0,0.3,0.1,0.4,0.3c0,0.1-0.1,0.3-0.2,0.4c-0.9,0.9-1.8,1.8-2.7,2.8c-0.3,0.4-0.7,0.7-0.9,1.2
		c-0.2,0.6-1,1-1,1.2c-0.2,1.3,0.3,2.5,0.8,3.6c0.1,0.1,0,0.2,0.4,0.3c0.4,0.2,3-1,3.4-1.1c0.7,0,1.5-0.1,2.1,0.1c1,0.4,2,0.7,3,0.8
		c0.6,0,2-0.4,2.1-0.4c0.9-0.1,1.1-0.6,1.7-0.8C91.6,57.5,92.3,57.1,92.9,56.8z M85.3,84.6c-0.2-0.1-0.4-0.2-0.7-0.3
		c-2.5-0.5-5-1-7.5-1.5c-0.7-0.1-1.6-0.3-2.2,0c-1.1,0.5-2.1,0.6-3.2,0.6c-0.7,0-1.3,0.1-1.5,0.9c-1.3,0-2.4-0.2-3-1.3
		c-0.5,0.2-0.9,0.4-1.3,0.4c-0.8,0.1-1.7,0.1-2.6,0.2c-0.2,0-0.4,0.2-0.6,0.2c0.1,0.2,0.2,0.4,0.3,0.5c0.6,0.5,1.2,1,1.9,1.5
		c0.1,0.1,0.3,0.1,0.6,0.1c-0.2-0.3-0.3-0.6-0.4-0.8c0.8-0.7,1.4-0.5,1.9,0.3c0.1,0.1,0.3,0.3,0.4,0.3c0.2,0,0.3-0.2,0.4-0.4
		c0-0.2,0-0.4-0.1-0.5c0.6,0,1.2-0.1,1.8,0c0.4,0.1,0.8,0.3,1.2,0.5c0.1,0.1,0.2,0.5,0.2,0.5c-0.8,0.6,0,1.3-0.2,1.9
		c0.1,0,0.1-0.1,0.2-0.1c0.2-0.2,0.3-0.4,0.5-0.6c0.2,0.2,0.6,0.4,0.2,0.8c0,0.1,0.2,0.3,0.3,0.6c0.2-0.5,0.4-0.9,0.6-1.5
		c0.3,0.6,0.5,0.9,0.7,1.4c0.2-0.3,0.3-0.6,0.4-0.8c0.5,0.3,0.9,0.6,1.4,1c0.2-0.5,0.2-0.7,0.3-1c0.1,0,0.1,0,0.2,0
		c0.1,0.3,0.2,0.6,0.2,0.9c0,0.2-0.2,0.6-0.1,0.7c0.5,0.7,0.2,1-0.6,1.2C77.3,90.7,84.5,86.6,85.3,84.6z M77.4,74
		c0.4-0.3,0.7-0.8,0.2-1.1c-0.2-0.2-0.7,0-1.1,0.1c-0.2,0.1-0.4,0.3-0.5,0.5c-0.2,0.3-0.3,0.7-0.5,1.1C75.9,74.7,77.3,74.2,77.4,74z
		 M70.4,73.7c0-0.1,0.1-0.2,0.1-0.2c-0.4-0.2-0.7-0.4-1.1-0.7c-0.1,0.3-0.4,0.7-0.3,0.8C69.5,74.3,70,73.6,70.4,73.7z M74.6,90.5
		c0,0,0-0.1,0-0.1c-0.9,0-1.8-0.1-2.6-0.1c0,0.1,0,0.2,0,0.3C72.8,90.5,73.7,90.5,74.6,90.5z"/>
	<path class="st1" d="M31.2,97.1c0.2,0.2,0.5,0.4,0.8,0.7c0.1,0,0.2,0,0.3,0c-0.7-1.1-0.1-1.9,0.4-3c0.1,0.3,0.1,0.5,0.2,0.7
		c0.3-0.7,0.6-1.4,0.9-2c-0.3,1.2-0.2,2.3,0.2,3.4c0.1,0.2,0,0.5-0.2,0.6c-0.7,0.6-0.8,1.4-0.8,2.3c0,1.2-0.5,2.2-1.1,3.2
		c-0.1,0.1-0.5,0-0.5,0c-0.1-0.4-0.7-0.8,0-1.2c0.2-0.1,0.1-0.7,0.2-1.1c-0.5,0.2-0.6,0-0.5-0.5c0.1-0.4,0.4-0.8,0.4-1.1
		C31.4,98.4,31.3,97.7,31.2,97.1z"/>
	<path class="st1" d="M59.4,58.2c-0.7-0.2-1.4-0.4-2-0.7c-0.5-0.2-0.9-0.6-1.3-0.9c-0.4-0.3-0.3-1.1,0.1-1.6c0.6-0.6,1.4-1,2.2-0.9
		c-0.3,1.5-0.3,2.9,1.1,3.9C59.5,58,59.5,58.1,59.4,58.2z"/>
	<path class="st1" d="M63.4,51.6c-1.4-0.1-2.9-0.2-4.3-0.3c-0.1-0.3-0.2-0.7-0.3-1.1c1.3-0.9,2.1-0.7,3.1,0.4c0.3,0.3,0.7,0.4,1,0.6
		C63.1,51.4,63.3,51.5,63.4,51.6z"/>
	<path class="st1" d="M39.1,104.4c0.4-4,0.8-8.1,1.2-12.2C40.6,93,39.8,102.5,39.1,104.4z"/>
	<path class="st1" d="M98.6,87.6c0.1,1.4,0.3,2.7,0.3,4c0,0.3-0.3,0.6-0.4,0.8C97.6,91.3,97.6,87.9,98.6,87.6z"/>
	<path class="st1" d="M46.6,97.1c0.9,1.7,1.4,5.6,1,6.7c-0.1-1.1-0.1-2.1-0.2-3.2c-0.1-0.8-0.1-1.7-0.6-2.4
		C46.5,98,46.6,97.6,46.6,97.1z"/>
	<path class="st1" d="M35.8,85.4c-0.5,1.9-1,3.7-1.5,5.5C34.5,89.1,34.8,87.2,35.8,85.4z"/>
	<path class="st1" d="M98.9,75.2c0.4-0.4,0.7-0.6,1-0.8c0.1,0,0.3,0.2,0.5,0.4c-0.2,0.2-0.4,0.5-0.6,0.7
		C99.6,75.6,99.4,75.4,98.9,75.2z"/>
	<path class="st1" d="M56.9,51.6c0.1-0.2,0.3-0.6,0.4-0.6c0.3,0.1,0.6,0.3,0.9,0.4c-0.3,0.1-0.7,0.3-1,0.4
		C57.1,51.8,57,51.7,56.9,51.6z"/>
	<path class="st1" d="M45,97.5c0-1,0-2,0-2.9c0.1,0,0.1,0,0.2,0C45.1,95.6,45.1,96.5,45,97.5L45,97.5z"/>
	<path class="st1" d="M36.1,74.9c0.1-0.6,0.2-1.3,0.3-1.9c0.1,0,0.2,0,0.2,0c-0.1,0.6-0.1,1.3-0.2,1.9
		C36.3,74.9,36.2,74.9,36.1,74.9z"/>
	<path class="st1" d="M59.9,55c0.2,0.1,0.6,0.2,0.6,0.3c0.1,0.3,0,0.7,0,1c-0.1,0-0.4,0-0.4-0.1C60,55.9,60,55.5,59.9,55z"/>
	<path class="st1" d="M47.4,106.5c0-0.5-0.1-1.1-0.1-1.6c0.1,0,0.2,0,0.2,0c0.1,0.5,0.1,1.1,0.2,1.6
		C47.6,106.5,47.5,106.5,47.4,106.5z"/>
	<path class="st1" d="M45,97.5c0.1,0,0.4,0.1,0.4,0.1c0,0.6,0,1.2-0.1,1.8C45.1,98.8,45.1,98.2,45,97.5C45,97.5,45,97.5,45,97.5z"/>
	<path class="st1" d="M29.1,102.9c-0.1,0.4-0.1,0.8-0.2,1.2c-0.1-0.1-0.4-0.2-0.4-0.2c0.1-0.4,0.2-0.7,0.4-1.1
		C29,102.8,29.1,102.9,29.1,102.9z"/>
	<path class="st1" d="M82.7,51.4c-0.2,0.3-0.4,0.5-0.6,0.8c-0.2,0.3-0.4,0.5-0.6,0.8c0.3,0.8,0.8,0.7,1.5,0.4c0,0.1,0,0.1,0.1,0.2
		c-0.1,0.2-0.1,0.4-0.2,0.4c-0.6,0.5-1.3,1-2,1.4c-0.1,0.1-0.4,0.2-0.5,0.1c-0.1-0.1-0.2-0.3-0.2-0.5c0-0.2,0.2-0.4,0.1-0.6
		c-0.2-0.5-0.6-0.8-0.1-1.5c0.4-0.5,0.9-0.7,1.3-1.1c0.3-0.3,0.7-0.4,1-0.6C82.6,51.3,82.7,51.4,82.7,51.4z"/>
	<path class="st1" d="M88.9,57.6c0.8-1.4,1.3-2.6,0.5-4c0.9,0.1,2,1,2.2,1.8c0,0.1,0,0.3,0,0.4C91.5,56.2,89.7,57.5,88.9,57.6z"/>
	<path class="st1" d="M84.1,54.1c-0.4,2.2-0.2,2.8,1.4,3.7c-0.9-0.2-1.8-0.4-2.8-0.6c-0.4-0.1-1.1-1-1-1.5c0.2,0.1,0.4,0.2,0.6,0.3
		C82.5,55.1,83.2,54.6,84.1,54.1z"/>
	<path class="st1" d="M83.3,51.4c0.2,0.5,0.5,1,0.6,1.4c0,0.2-0.2,0.4-0.3,0.6c-0.1-0.1-0.3-0.3-0.4-0.4
		C82.6,52.6,82.6,52.1,83.3,51.4z"/>
	<path class="st2" d="M140.9,1v139.7H1.2V1H140.9 M141.9,0H0.2v141.7h141.7V0L141.9,0z"/>
</g>
</svg>
