<svg xmlns="http://www.w3.org/2000/svg" viewBox="0 0 194.87 194.32"><defs><style>.cls-1{fill:#fff;}.cls-2{fill:#80445a;}</style></defs><g id="Calque_2" data-name="Calque 2"><g id="Calque_1-2" data-name="Calque 1"><path class="cls-1" d="M163,109.17c-.85,4.62-3.27,8-5.81,11.28-1.94,2.5-4.27,4.4-7.71,4.59-5.11.28-9.95-1-14.79-2.29-.39-.1-.79-.14-1.64-.29,2.91,3.85,5.81,7.12,6.42,11.76s-.81,8.77-2.13,13.42c3.91,3.21,7.82,6.48,13.34,6.62a9.66,9.66,0,0,1,1.18.19c6.37.9,12.5.57,18.32-2.65,4.63-2.56,8-5.89,9.14-11.26,1.62-7.88-.47-14.95-4.51-21.62a8.61,8.61,0,0,0-1.35-1.66c-2.09-2-4.14-4-6.35-5.75A28.65,28.65,0,0,0,163,109.17Z"/><path class="cls-2" d="M157.61,155.38a41.15,41.15,0,0,1-5.79-.44l-.47-.08a3.65,3.65,0,0,0-.65-.1c-5.62-.14-9.62-3.43-13.49-6.6l-.41-.34.46-1.62c1.17-4,2.27-7.84,1.74-11.92s-2.75-6.87-5.33-10.23q-.49-.63-1-1.29l-.77-1,1.25.22.77.13a7.9,7.9,0,0,1,.92.18c4.88,1.35,9.67,2.54,14.63,2.27,2.84-.15,5.1-1.51,7.34-4.4,2.55-3.27,4.9-6.58,5.72-11.06l.13-.69.6.34c.5.28,1,.52,1.45.76a14.39,14.39,0,0,1,2.73,1.63c1.82,1.49,3.56,3.12,5.23,4.7l1.15,1.08a8.29,8.29,0,0,1,1.44,1.76c4.57,7.55,6.06,14.74,4.56,22-1,4.93-4,8.61-9.37,11.59A25.71,25.71,0,0,1,157.61,155.38Zm-19.67-7.92c3.88,3.19,7.55,6.17,12.78,6.3a4.37,4.37,0,0,1,.83.12l.41.07c7.24,1,13,.2,18-2.59s7.92-6.24,8.89-10.92c1.44-7,0-13.94-4.45-21.26a7.13,7.13,0,0,0-1.27-1.55L172,116.55c-1.67-1.57-3.39-3.19-5.18-4.66a14.55,14.55,0,0,0-2.55-1.51l-.88-.45c-1,4.36-3.28,7.61-5.78,10.83-1.51,1.94-4,4.56-8.07,4.78-5.12.27-10-.93-14.95-2.31l-.35-.07.22.28c2.56,3.33,5,6.47,5.53,10.71s-.57,8.19-1.77,12.33Z"/><path class="cls-1" d="M156.52,62c.59,9-4.48,15-11.1,20.41,5.67,1.5,10.79,3.51,14.41,8,3.45,4.3,7.13,8.5,7.33,14.29,3,1.28,7,0,9.47-1.12a45,45,0,0,0,12.88-8.79A14.85,14.85,0,0,0,193.72,87a26.67,26.67,0,0,0,.54-3.78,14.62,14.62,0,0,0,0-3.74,11.6,11.6,0,0,0-3.9-6.92c-2.85-2.39-5.8-4.68-8.83-6.83a15.62,15.62,0,0,0-4.11-1.79,47.61,47.61,0,0,0-5.49-1.55,31.41,31.41,0,0,0-6.07-.88C162.84,61.44,159.84,61.78,156.52,62Z"/><path class="cls-2" d="M170,105.75a7.7,7.7,0,0,1-3-.57l-.3-.13v-.31c-.18-5.27-3.29-9.12-6.57-13.19l-.65-.81c-3.67-4.58-9-6.48-14.14-7.85l-1-.25.76-.62c6-4.93,11.51-10.77,10.91-20l0-.5.5,0c1-.06,2-.14,2.95-.21,2.21-.17,4.28-.34,6.41-.32a30.56,30.56,0,0,1,6,.87l.13,0a47.3,47.3,0,0,1,5.55,1.57l.39.13a14.67,14.67,0,0,1,3.85,1.72c2.91,2.06,5.89,4.37,8.86,6.85a12.16,12.16,0,0,1,4.07,7.21,13.94,13.94,0,0,1,.05,3.65l0,.23a28.41,28.41,0,0,1-.55,3.84,15.27,15.27,0,0,1-4.36,8.12,44.83,44.83,0,0,1-13,8.89A17.74,17.74,0,0,1,170,105.75Zm-2.36-1.38c2.16.77,5.11.36,8.78-1.23a44.06,44.06,0,0,0,12.74-8.69,14.26,14.26,0,0,0,4.06-7.61,26.38,26.38,0,0,0,.53-3.7l0-.23a13.7,13.7,0,0,0,0-3.39A11,11,0,0,0,190,72.89c-3-2.47-5.91-4.76-8.8-6.81a13.81,13.81,0,0,0-3.58-1.58l-.4-.13a45.88,45.88,0,0,0-5.43-1.54l-.13,0a30.8,30.8,0,0,0-5.84-.84c-2.07,0-4.14.15-6.33.32l-2.46.18c.38,9-5,15-10.56,19.71,5,1.4,10.1,3.41,13.73,8l.65.8C164.05,94.86,167.33,98.94,167.65,104.37Z"/><path class="cls-1" d="M129.92,160.34c-.53.2-1.12.43-1.71.63-5,1.66-9.83,1.58-14.43-1.39a23.78,23.78,0,0,1-7.15-7.22c-1.31-2.05-2.26-4.34-3.43-6.65a3.5,3.5,0,0,0-.48.72c-1.34,5.27-4.2,9.74-7.58,13.84a21.2,21.2,0,0,1-5.43,4.18,31.82,31.82,0,0,1-4.86,2c-.23,3.72-.2,7.39,1.53,10.77,1,2,2.26,3.82,3.37,5.74a30.46,30.46,0,0,0,6.65,7.74,18.63,18.63,0,0,0,3,1.84c3.69,2.08,7.56,1.24,11.37.57a27.49,27.49,0,0,0,7.72-3.11,16.52,16.52,0,0,0,7-6.7c1.49-2.63,2.77-5.38,4.13-8.08a4.85,4.85,0,0,0,.44-1.11C131.06,169.62,131.61,165.17,129.92,160.34Z"/><path class="cls-2" d="M104.8,194.32a11.06,11.06,0,0,1-5.6-1.38c-.26-.15-.52-.28-.78-.42A12.47,12.47,0,0,1,96.08,191a30.4,30.4,0,0,1-6.76-7.87c-.41-.71-.84-1.41-1.27-2.11-.72-1.18-1.47-2.4-2.11-3.65-1.69-3.3-1.85-6.8-1.59-11l0-.32.3-.11c.52-.21,1-.39,1.57-.57A16.66,16.66,0,0,0,89.45,164,21,21,0,0,0,94.76,160c3.95-4.8,6.33-9.13,7.48-13.64a1.64,1.64,0,0,1,.34-.6c.06-.08.13-.17.2-.28l.48-.71.38.76c.37.73.72,1.45,1.06,2.17a42.28,42.28,0,0,0,2.35,4.44,23.26,23.26,0,0,0,7,7.07c4.12,2.66,8.7,3.1,14,1.33l1.21-.43,1-.36.17.48c1.76,5,1.11,9.72.14,14a5.63,5.63,0,0,1-.48,1.22c-.39.76-.77,1.53-1.15,2.3-.94,1.91-1.92,3.9-3,5.79a17,17,0,0,1-7.15,6.9l-.61.32a25.47,25.47,0,0,1-7.25,2.84l-.62.11A31.65,31.65,0,0,1,104.8,194.32ZM85.33,166.76c-.23,3.93,0,7.18,1.5,10.19.62,1.22,1.36,2.42,2.07,3.58.44.71.87,1.42,1.28,2.14a29.57,29.57,0,0,0,6.55,7.61,11.3,11.3,0,0,0,2.16,1.35l.8.44c3.33,1.87,6.77,1.26,10.41.62l.63-.11a24.9,24.9,0,0,0,7-2.75l.6-.32A16.05,16.05,0,0,0,125,183c1.06-1.87,2-3.84,3-5.75.38-.77.76-1.54,1.15-2.3a4.23,4.23,0,0,0,.39-1c.91-4,1.53-8.34.05-13h0c-.4.15-.82.31-1.25.45-5.6,1.87-10.46,1.4-14.85-1.44a24.21,24.21,0,0,1-7.3-7.37,42.63,42.63,0,0,1-2.41-4.55c-.21-.44-.42-.89-.64-1.33-1.21,4.59-3.63,9-7.63,13.84A21.64,21.64,0,0,1,90,164.87a17,17,0,0,1-3.4,1.45Z"/><path class="cls-1" d="M64.09,153.89a10.66,10.66,0,0,1-2.8-7.38c0-1.42.15-2.83.22-4.27-.27,0-.44,0-.57.06-5.72,2.73-11.47,2.07-17.13-.11-2.49-1-4.8-2.39-7.45-3.73-2,2.61-4,4.89-5.59,7.41C28,150.14,27.12,155,26.67,160c-.41,4.67,1.7,8.39,5.3,11.14A24.31,24.31,0,0,0,39.29,175a43,43,0,0,0,10.87,2.48c2.84.14,5.69.22,8.52.15a5.78,5.78,0,0,0,2.62-1A69.47,69.47,0,0,0,72,168.4a8.05,8.05,0,0,0,3-4.94C70.17,161.69,67.31,157.58,64.09,153.89Z"/><path class="cls-2" d="M56.47,178.19c-2,0-4-.06-6.34-.18a43.37,43.37,0,0,1-11-2.49,24.61,24.61,0,0,1-7.47-4c-4-3-5.9-7-5.49-11.58s1.21-9.72,4.17-14.34a61.06,61.06,0,0,1,3.75-5.06c.61-.77,1.23-1.56,1.86-2.38l.25-.33.37.19c.85.43,1.67.86,2.47,1.29A43.09,43.09,0,0,0,44,141.72c6.42,2.47,11.74,2.51,16.74.12a1.44,1.44,0,0,1,.53-.09h.21l.57-.05,0,.57c0,.45,0,.9-.08,1.35-.06,1-.11,1.93-.14,2.9a10.09,10.09,0,0,0,2.68,7l1.44,1.69c2.72,3.23,5.29,6.28,9.3,7.74l.38.14-.06.4a8.55,8.55,0,0,1-3.18,5.24,70.42,70.42,0,0,1-10.79,8.36,6.44,6.44,0,0,1-2.86,1Zm-20-39.09c-.54.7-1.09,1.39-1.62,2.06a61.94,61.94,0,0,0-3.69,5c-2.84,4.44-3.62,9.51-4,13.89-.37,4.17,1.39,7.87,5.1,10.7a23.88,23.88,0,0,0,7.17,3.84A43.06,43.06,0,0,0,50.19,177c3.14.16,5.91.21,8.48.15a5.33,5.33,0,0,0,2.37-.9A69.15,69.15,0,0,0,71.68,168a7.84,7.84,0,0,0,2.8-4.25c-4-1.61-6.73-4.79-9.33-7.88-.48-.56-1-1.13-1.44-1.68h0a11.16,11.16,0,0,1-2.92-7.73c0-1,.09-2,.14-2.93,0-.24,0-.49,0-.73-5.12,2.39-10.81,2.34-17.35-.18a43.49,43.49,0,0,1-5.06-2.46C37.9,139.83,37.21,139.46,36.5,139.1Z"/><path class="cls-1" d="M130.76,96.89c1,.31,1.79.64,2.62.83,5.69,1.24,11,3.71,16.37,5.7,3.11,1.15,6.11,2.66,9.66,2.83a11.22,11.22,0,0,1,.38-2.23,4.55,4.55,0,0,0-.11-3.48A48.18,48.18,0,0,0,157,94.7c-1.42-2.5-1.84-2.54-4.65-1.81-3.36.88-6.71,1.9-10.13,2.51-2.87.51-5.83.47-8.75.75C132.63,96.23,131.59,95.63,130.76,96.89Z"/><path class="cls-2" d="M159.83,106.77l-.45,0a24.14,24.14,0,0,1-7.87-2.1c-.64-.25-1.28-.51-1.93-.75-1.52-.56-3-1.15-4.54-1.75a77.44,77.44,0,0,0-11.77-3.94,14,14,0,0,1-1.76-.53c-.28-.1-.58-.21-.9-.31l-.62-.2.36-.55a2.28,2.28,0,0,1,2.48-1,2.43,2.43,0,0,0,.59,0c1.08-.1,2.17-.16,3.26-.22a47.4,47.4,0,0,0,5.45-.52c2.54-.45,5.09-1.15,7.56-1.82l2.53-.68c3-.79,3.64-.7,5.21,2a48.11,48.11,0,0,1,2.71,5.91,5.06,5.06,0,0,1,.12,3.85,5.14,5.14,0,0,0-.26,1.31,7.94,7.94,0,0,1-.1.8ZM131.7,96.67l.14,0a15.21,15.21,0,0,0,1.65.51,78.27,78.27,0,0,1,11.92,4c1.5.59,3,1.19,4.52,1.74.65.24,1.3.5,1.95.76a24.8,24.8,0,0,0,7.1,2l0-.31a5.69,5.69,0,0,1,.32-1.57,4,4,0,0,0-.12-3.11A47.61,47.61,0,0,0,156.56,95c-1.31-2.3-1.52-2.25-4.09-1.57l-2.52.67c-2.49.68-5.06,1.38-7.65,1.84a47.71,47.71,0,0,1-5.57.54c-1.07.06-2.15.12-3.22.22a3.55,3.55,0,0,1-.8,0A1.87,1.87,0,0,0,131.7,96.67Z"/><path class="cls-1" d="M150.41,120.24a8.92,8.92,0,0,0,3-1.93c1.8-2.45,4.36-4.52,4.48-8.2q-12.47-4.74-25-9.52a.27.27,0,0,0-.21.08.58.58,0,0,0-.1.19c1.31,1.58,2.59,3.19,3.94,4.72,2.78,3.15,6.21,5.71,8.31,9.51a33.4,33.4,0,0,0,3.57,4.48C148.89,120.23,149.54,120.72,150.41,120.24Z"/><path class="cls-2" d="M149.73,120.93a2.36,2.36,0,0,1-1.77-1.05c-.37-.45-.76-.89-1.16-1.33a18.47,18.47,0,0,1-2.47-3.22,29.3,29.3,0,0,0-5.37-6.44c-1-1-2-1.94-2.87-3s-1.85-2.17-2.73-3.24l-1.23-1.49-.21-.25.15-.29a.9.9,0,0,1,.21-.33.73.73,0,0,1,.72-.19l22.54,8.56,2.85,1.09,0,.35c-.1,3-1.74,5-3.32,6.92-.44.52-.87,1-1.26,1.57a6.46,6.46,0,0,1-2.39,1.68l-.75.39A1.9,1.9,0,0,1,149.73,120.93Zm-16.1-19.5.5.6c.88,1.07,1.78,2.17,2.71,3.22s1.87,2,2.82,2.93a29.41,29.41,0,0,1,5.54,6.66,17.41,17.41,0,0,0,2.35,3c.4.45.8.9,1.18,1.36.63.77,1,.78,1.43.55h0c.26-.14.53-.27.8-.4a5.74,5.74,0,0,0,2-1.39c.4-.55.84-1.08,1.29-1.61,1.47-1.78,2.87-3.45,3.07-6l-2.17-.82Z"/><path class="cls-1" d="M144.21,120l.29-.55c-1.76-1.86-3.59-3.66-5.28-5.58s-3.14-4-4.79-5.94-2.51-5.68-3.67-4.84-1.22,9-3,11.62c3.46,3.26,6.34,2.23,10.52,4.26C140.2,119.92,142.23,119.84,144.21,120Z"/><path class="cls-2" d="M144.5,120.57l-.34,0c-.44-.05-.89-.08-1.34-.11a12.38,12.38,0,0,1-4.72-1,18.24,18.24,0,0,0-4.41-1.4,11.59,11.59,0,0,1-6.24-2.94l-.3-.29.23-.35c.87-1.32,1.31-4.22,1.7-6.78.45-2.93.72-4.48,1.39-5a1,1,0,0,1,.86-.19c.73.17,1.21,1.12,1.87,2.42a14.09,14.09,0,0,0,1.61,2.69c.78.91,1.53,1.88,2.26,2.81s1.65,2.11,2.53,3.12c1.16,1.33,2.42,2.63,3.64,3.88.54.56,1.09,1.12,1.62,1.68l.25.26Zm-16.07-5.91a10.69,10.69,0,0,0,5.48,2.42,19.56,19.56,0,0,1,4.63,1.48,11.15,11.15,0,0,0,4.35.87l.94.07-1.31-1.34c-1.22-1.27-2.49-2.57-3.67-3.92-.9-1-1.75-2.12-2.57-3.17s-1.46-1.87-2.23-2.77a14.7,14.7,0,0,1-1.74-2.89c-.38-.73-.94-1.85-1.22-1.9-.4.32-.76,2.64-1,4.34C129.69,110.31,129.27,113.07,128.43,114.66Z"/><path class="cls-1" d="M134.41,89a34.92,34.92,0,0,1-3,3.68c7.05,0,13.61-.61,20-2.88a33.68,33.68,0,0,0-15.24-4.88A31.46,31.46,0,0,1,134.41,89Z"/><path class="cls-2" d="M132.08,93.14h-1.73l.67-.81c.4-.48.78-.9,1.13-1.31A16.17,16.17,0,0,0,134,88.7h0a15.68,15.68,0,0,0,1.16-2.61c.17-.45.35-.92.55-1.4l.13-.34.36,0a34.28,34.28,0,0,1,15.47,5l.91.54-1,.36C145.93,92.24,139.9,93.14,132.08,93.14Zm4.39-7.74c-.14.36-.27.7-.39,1a17.6,17.6,0,0,1-1.24,2.78h0a18,18,0,0,1-1.94,2.46l-.41.46a55.88,55.88,0,0,0,17.7-2.5A33.21,33.21,0,0,0,136.47,85.4Z"/><path class="cls-1" d="M69.07,153.69c3.51,3.48,7.27,6.16,12.37,6.81.83-2.36,1.73-22.06,1.09-24.47A99.22,99.22,0,0,0,69.07,153.69Z"/><path class="cls-2" d="M81.78,161l-.4,0c-5.73-.73-9.62-3.92-12.66-6.94l-.29-.28.21-.34a99.82,99.82,0,0,1,13.53-17.75l.61-.62.23.84c.64,2.4-.24,22.3-1.1,24.76ZM69.7,153.61c3.9,3.8,7.34,5.72,11.37,6.33.7-3.24,1.41-18.47,1.1-22.82A99.58,99.58,0,0,0,69.7,153.61Z"/><path class="cls-1" d="M77.41,131.17a10.7,10.7,0,0,0-3.9-2.14c-.68-.27-4,2.35-4.42,4.79-.68,3.76-1.24,7.56-1.62,11.36a30.06,30.06,0,0,0,.47,5.33,16,16,0,0,0,1.46-1.58c1.15-1.71,2.25-3.46,3.4-5.17,2.58-3.83,5.23-5.95,7.87-9.75C81.27,133.16,78.09,131.79,77.41,131.17Z"/><path class="cls-2" d="M67.55,151.67l-.11-1.11c-.06-.68-.15-1.31-.24-1.91a15.24,15.24,0,0,1-.23-3.52c.36-3.6.9-7.32,1.63-11.4.36-2,2.47-4.13,3.86-4.91a1.49,1.49,0,0,1,1.23-.25,11,11,0,0,1,4.06,2.23h0a8.26,8.26,0,0,0,1,.65c1.34.8,2.3,1.41,2.46,2.13a.87.87,0,0,1-.14.72,50.54,50.54,0,0,1-3.87,4.76,46.74,46.74,0,0,0-4,5c-.56.83-1.1,1.67-1.65,2.51s-1.15,1.78-1.74,2.66a6.79,6.79,0,0,1-.84.94l-.67.7Zm5.86-22.14c-.66,0-3.44,2.26-3.83,4.38-.72,4.05-1.25,7.75-1.61,11.32a14.12,14.12,0,0,0,.22,3.28c0,.29.09.59.13.89a6.52,6.52,0,0,0,.67-.75c.59-.87,1.16-1.76,1.73-2.64s1.1-1.69,1.66-2.53a47.28,47.28,0,0,1,4.08-5.08,49.35,49.35,0,0,0,3.8-4.67,8.53,8.53,0,0,0-2-1.42,7.59,7.59,0,0,1-1.17-.77h0a10.06,10.06,0,0,0-3.66-2Z"/><path class="cls-1" d="M92.47,153c-1.81-4.4-3.72-8.77-5.61-13.14,0-.07-.27-.05-.72-.13,0,6.76-1.19,13.44-.47,20.27a3.31,3.31,0,0,0,1,.08A9.29,9.29,0,0,0,92.43,155,2.81,2.81,0,0,0,92.47,153Z"/><path class="cls-2" d="M86.49,160.57a2.63,2.63,0,0,1-.49,0l-.37-.05-.42,0,0-.41a73.88,73.88,0,0,1,.12-12.72c.17-2.49.34-5.07.35-7.61v-.59l.58.1.4.06c.27,0,.57.06.7.37l.62,1.43c1.66,3.83,3.37,7.79,5,11.72a3.26,3.26,0,0,1-.05,2.42,9.76,9.76,0,0,1-6,5.32A1.22,1.22,0,0,1,86.49,160.57Zm-.36-1h0a1.23,1.23,0,0,0,.39,0A8.77,8.77,0,0,0,92,154.78a2.26,2.26,0,0,0,0-1.62h0c-1.62-3.92-3.33-7.88-5-11.71l-.39-.89c0,2.29-.19,4.58-.34,6.81A74.66,74.66,0,0,0,86.13,159.53Z"/><path class="cls-1" d="M95.82,134c-1.74,1.43-3.53,1.36-5.52,2l4.83,12.57C97.9,142.51,97.59,139.49,95.82,134Z"/><path class="cls-2" d="M95.1,149.9l-5.46-14.17.5-.17a18.82,18.82,0,0,1,1.88-.5,7.51,7.51,0,0,0,3.49-1.43l.56-.47.23.7c1.86,5.77,2,8.89-.71,14.95ZM91,136.35l4.2,10.94c2-4.87,1.89-7.66.4-12.46A9.78,9.78,0,0,1,92.24,136C91.82,136.13,91.39,136.23,91,136.35Z"/><path class="cls-1" d="M112.53,149.89a2,2,0,0,0,1.4,2c1.71.66,3.43,1.3,5.14,1.95,3.85,1.48,7.05.3,9.89-2.19-5.82-7.5-16.14-20.57-17.1-20.57s-.62,1.75-.48,3.17c.3,3.08.63,6.16.87,9.24C112.42,145.61,112.49,147.75,112.53,149.89Z"/><path class="cls-2" d="M122.38,155a9.78,9.78,0,0,1-3.49-.68l-2.4-.91-2.74-1A2.46,2.46,0,0,1,112,149.9h0c0-2.51-.13-4.54-.27-6.39-.18-2.21-.41-4.47-.62-6.65l-.32-3.13c-.13-1.17-.25-2.27.25-2.84a1,1,0,0,1,.79-.33c.41,0,1.37,0,17.49,20.76l.29.38-.35.31A10.42,10.42,0,0,1,122.38,155ZM113,149.88a1.49,1.49,0,0,0,1.08,1.53l2.73,1,2.41.92c3.19,1.22,6.06.65,9-1.8-8.88-11.43-15.25-19.17-16.44-20a5,5,0,0,0,0,2l.32,3.14c.22,2.19.45,4.45.62,6.68.15,1.86.24,3.91.28,6.44Z"/><path class="cls-1" d="M134.22,139.93c-1.9-1.13-3.75-2.21-5.59-3.32s-3.67-2.24-5.52-3.35-3.22-2.71-5.66-3.59L131,149.57C132.14,146.29,134.1,143.46,134.22,139.93Z"/><path class="cls-2" d="M131.15,150.68l-15-22,1.45.52a14.66,14.66,0,0,1,4,2.37,18.15,18.15,0,0,0,1.78,1.26l2.92,1.78,2.59,1.58,3.82,2.26,2,1.2v.3a18.24,18.24,0,0,1-2,6.76c-.44,1-.9,2-1.26,3ZM118.9,130.91l12,17.58c.3-.75.62-1.48.94-2.19a17.52,17.52,0,0,0,1.89-6.09l-1.51-.9c-1.29-.76-2.56-1.51-3.82-2.27l-2.6-1.58-2.91-1.77a17.88,17.88,0,0,1-1.88-1.33A20.16,20.16,0,0,0,118.9,130.91Z"/><path class="cls-1" d="M124.19,120.49l-5.39,4.3c4.91,3.27,9.44,7,15,9.22C133.19,129.58,128.18,122.63,124.19,120.49Z"/><path class="cls-2" d="M134.46,134.8l-.81-.32a59.61,59.61,0,0,1-11.6-6.84c-1.17-.82-2.34-1.64-3.53-2.43l-.57-.38,6.18-4.94.29.16c4.15,2.22,9.25,9.36,9.92,13.89Zm-14.82-10c1,.67,2,1.37,3,2.06a62.17,62.17,0,0,0,10.53,6.36c-1.08-4.11-5.38-10-8.92-12.09Z"/><path class="cls-1" d="M108.86,146.34c-1.07-7.45.1-15-.72-14.31-1.71,1.36-5.72-.46-5.36,1.24.88,4.22,2.57,7,4.48,10.81A18.18,18.18,0,0,0,108.86,146.34Z"/><path class="cls-2" d="M109.64,148.29l-1.19-1.66c-.17-.23-.34-.46-.52-.68a10.41,10.41,0,0,1-1.12-1.65c-.35-.71-.69-1.38-1-2a32.85,32.85,0,0,1-3.5-8.89,1.06,1.06,0,0,1,.2-1c.44-.51,1.28-.46,2.34-.39s2.32.14,3-.4a.6.6,0,0,1,.66-.08c.5.24.5.87.44,3.77a66.45,66.45,0,0,0,.42,11Zm-6.39-15.22a.3.3,0,0,0,0,.1,32.2,32.2,0,0,0,3.41,8.65c.33.65.68,1.32,1,2a6.72,6.72,0,0,0,.43.71,74.14,74.14,0,0,1-.21-9.27c0-1,0-2,0-2.57a6.93,6.93,0,0,1-3.17.3A4.73,4.73,0,0,0,103.25,133.07Z"/><path class="cls-1" d="M32.76,75.36A22.18,22.18,0,0,1,39.4,70a21.18,21.18,0,0,1,13.19-2.18,12,12,0,0,1,2.25.77l1.79.64a17.34,17.34,0,0,0-1.1-1.52c-4-4-5.58-9.29-6.57-14.58-1-5.13,1.28-9.63,4.12-13.53-2.21-1.17-4.57-2.29-6.79-3.64-3.17-1.94-6.56-3.6-10.21-3.68-8.52-.17-15.64,3.23-21.36,9.55A11.1,11.1,0,0,0,12.33,47a37.83,37.83,0,0,0-.47,12.37,14.09,14.09,0,0,0,3.22,8.09,29.22,29.22,0,0,0,8,6.32,59.35,59.35,0,0,0,5.62,2.56A3.14,3.14,0,0,0,32.76,75.36Z"/><path class="cls-2" d="M30.27,77.17a4.44,4.44,0,0,1-1.71-.37,59,59,0,0,1-5.67-2.58,29.7,29.7,0,0,1-8.18-6.42,14.58,14.58,0,0,1-3.34-8.38,37.83,37.83,0,0,1,.47-12.53,11.67,11.67,0,0,1,2.51-5.37c6-6.62,13.32-9.91,21.74-9.72,4,.09,7.51,1.94,10.46,3.75,1.53.93,3.14,1.76,4.7,2.56l2.07,1.07.5.27-.33.47c-2.23,3-5.06,7.73-4,13.13.9,4.78,2.36,10.21,6.43,14.33a5.59,5.59,0,0,1,.64.83c.14.2.3.45.51.74l.94,1.3-3.29-1.17c-.25-.08-.49-.18-.73-.28a5.58,5.58,0,0,0-1.42-.46,20.45,20.45,0,0,0-12.89,2.12,21.65,21.65,0,0,0-6.49,5.22h0A3.66,3.66,0,0,1,30.27,77.17ZM35.45,32.8c-7.87,0-14.72,3.15-20.36,9.39a10.6,10.6,0,0,0-2.27,4.92,36.7,36.7,0,0,0-.46,12.21,13.39,13.39,0,0,0,3.09,7.81,28.73,28.73,0,0,0,7.91,6.21,61.09,61.09,0,0,0,5.58,2.54A2.64,2.64,0,0,0,32.37,75a22.77,22.77,0,0,1,6.79-5.46,21.66,21.66,0,0,1,13.5-2.23,6.36,6.36,0,0,1,1.67.52c.23.09.45.19.68.27l.31.11-.15-.17c-4.26-4.31-5.78-9.92-6.71-14.84-1-5.51,1.61-10.24,3.88-13.44L50.79,39c-1.57-.81-3.2-1.64-4.76-2.6-2.84-1.73-6.24-3.52-10-3.6Z"/><path class="cls-1" d="M121.92,72.49a5.74,5.74,0,0,0-.74-4.91s-2.46-2.31-3.58-3.19-5.51-1.32-6.88-.9c-2.79.84-3.34,2.17-5.22,4.35a29.06,29.06,0,0,0-5.35,9.25c-1,3-3.84,3.2-4.14,2.14a5.9,5.9,0,0,1-.32-3c.74-4.07,1.49-8.15-.56-12.14-1.82-3.54-2.66-4.64-6.45-4.49-3.31.13-5.44,2.24-7.11,4.65a7.48,7.48,0,0,0-1.14,6.56A51.23,51.23,0,0,1,81.71,79a2.28,2.28,0,0,1-.86,1.72,1.73,1.73,0,0,1-1.56-.54c-1.52-2.52-4-3.82-6.33-5.39a6.69,6.69,0,0,0-6.61-.49,10.43,10.43,0,0,0-6.3,7.83c-.94,4.2.66,6.93,3.94,9.11,2,1.32,4,2.61,6,3.89,1.7,1.08,2.06,2.79.83,3.5s-2.09-.42-3.12-.72a8.84,8.84,0,0,0-8.77,3.26,10.16,10.16,0,0,0-1.7,7.14c.42,4.59,1.64,7,5.06,7,1.38,0,3.68-1.18,6.73-2.94,1.92-1.11,6.13-3.62,6.89-2.55s-2.35,3-4.41,4.88c-2.74,2.53-2.91,3.83-2.43,5.68a9.58,9.58,0,0,0,9.45,6.82c3.3,0,5.54-9,6.23-10.49s1.24-2.93,2.45-2.47a6.09,6.09,0,0,1,1.34,3c.08,1.53.42,8.7.5,9.12.6,3.21,3.39,3,8.76,1.68s5.69-1.7,5.75-5.42a41.2,41.2,0,0,0-1.4-6.25c-.45-1.77-.78-4.76-.46-4.81.83-1.15,1.94,1.88,3.51,3.19s3.33,3.81,5.14,4.83A2.89,2.89,0,0,0,113,120c3.31-1.21,7.33-1.84,8.91-5.21,1.07-2.25,2.61-4.33.9-6.16-1.27-1.35-3.35-4-5.88-5.46s-4.82-1.95-5.08-3.77,2.27-1.32,5.59-2.26,8.69-.72,9.54-2.8c1.64-4,5-11.6,0-13.62-1.8-.73-4.08-2.51-7.29-.92-2.6,1.28-3.78,2.63-5.48,3.59-2,1.16-3.7,1.42-3.7.65a4.91,4.91,0,0,1,1.74-3.79,27.12,27.12,0,0,1,5.19-3.53S121,75.2,121.92,72.49Zm-9.21,2.42c-.23,0-1.46,1.1-3.28,3.42-3.51,4.48-10.4,11.55-11,12.08s1,2.23,1,2.23,10.61-4,15.33-5c3.07-.66,4.66-4.8,7.13-3.79s2,4.89,1,6.54-3.69.56-7,1.65c-6,2-11.48,1.67-16,3.43A2.57,2.57,0,0,0,98.48,98c.77.63,1.65,1.31,2.49,2,3.72,3.25,10,7.62,11.55,7.7s2,1.76,2.18,2.47c.33,1-1,2.46-2.45,2.88s-2.73,0-3.19-1.3c-.34-1,.1-.94-.92-2.62s-11.49-8.8-11.49-8.8l-1.15,1.2.38,6.38s.92,9.45,1.57,10.09A6.15,6.15,0,0,1,99,121.17c.15,1.17-3,1.73-4.79,1.55s-2.17-.81-1.58-3.85-.42-8.83-.42-8.83-.23-5.32-.17-7.26c0-1.27-1.68-.51-1.75-.6S87,107.72,87,107.72s-5,6.39-7.38,9.55c-1.72,2.34-1.14,4.28-2.68,4.28s-1.19-.17-2.38-1.81,1.08-2.44,3-4.13c2.36-2.12,4.69-6.91,6.83-9.89,2-2.79,3.65-4.69,3.13-5.35-1.85-2.33-2-1.82-2-1.82s-14.16,6.13-16.37,8.17-3.83,2.89-5.61,3-2.32-2.29-2.42-3.45,2.31-4.8,4.12-4.81,2,2.59,3.39,1.69c3.27-2.12,19.74-7.22,16.2-8.83a105.45,105.45,0,0,1-9.8-5c-1.66-.81-3.13-1.64-5.15-1.13s-2.82-.43-3.11-2.35a5.43,5.43,0,0,1,1.13-4,2.25,2.25,0,0,1,2.4-1.2,3,3,0,0,1,2.15,2.32,4.5,4.5,0,0,0,.45,2c.51,1.23,12.11,6.64,13.06,6.37A13.69,13.69,0,0,0,90,87.58c.3-.69-1.93-7.28-2.88-10.89a3.28,3.28,0,0,0-1.46-2.28,2.37,2.37,0,0,1-.39-4,11.72,11.72,0,0,1,3.18-2,2.24,2.24,0,0,1,2.86.41,2.55,2.55,0,0,1,.32,2.91,6.69,6.69,0,0,0-.53,1.54,18.86,18.86,0,0,0-.13,6.36c.41,2.51.44,7.09,1,7.35s3.14,2,3.84,2.23,3.88-5,5.13-7.09,7.39-7.61,8.17-10,2.44-3.08,2.77-2.79C112.8,70.06,115.75,74.18,112.71,74.91Z"/><path class="cls-2" d="M92.4,129.53A4.41,4.41,0,0,1,90,129a3.42,3.42,0,0,1-1.43-2.4c-.06-.29-.21-2.93-.49-8.81l0-.38a5.31,5.31,0,0,0-1.14-2.63c-.54-.13-.89.44-1.6,2l-.09.23c-.12.26-.3.8-.53,1.48-1.09,3.25-3.11,9.3-6.16,9.3a10.14,10.14,0,0,1-9.94-7.19c-.53-2.09-.28-3.54,2.58-6.17.56-.52,1.19-1,1.79-1.52,1-.81,2.84-2.31,2.55-2.71-.14-.19-1-.33-5.93,2.52l-.3.18c-3.41,2-5.51,3.07-7,3-4.28-.06-5.2-3.63-5.56-7.48a10.72,10.72,0,0,1,1.79-7.47,9.23,9.23,0,0,1,9.32-3.46,4.52,4.52,0,0,1,1,.49c.69.4,1.11.6,1.69.28a.88.88,0,0,0,.48-.77,2.51,2.51,0,0,0-1.33-1.88c-2-1.28-4-2.58-6-3.9-3.75-2.48-5.07-5.54-4.15-9.62a10.9,10.9,0,0,1,6.59-8.19,7.17,7.17,0,0,1,7.09.54l1.25.83a15.33,15.33,0,0,1,5.23,4.71,1.65,1.65,0,0,0,.92.35,1.86,1.86,0,0,0,.57-1.21l-.14-1.25A41.09,41.09,0,0,0,80,70.91a7.94,7.94,0,0,1,1.21-7c1.51-2.18,3.73-4.71,7.5-4.86,4-.15,5,1.11,6.92,4.76,2.11,4.12,1.35,8.32.62,12.39A5.24,5.24,0,0,0,96.46,79l0,.1c0,.11.22.21.54.22.93,0,2.11-.72,2.65-2.37a29.33,29.33,0,0,1,5.44-9.43c.37-.42.69-.82,1-1.18A8,8,0,0,1,110.57,63c1.45-.44,6-.06,7.33,1,1.14.9,3.52,3.13,3.62,3.23a6.17,6.17,0,0,1,.88,5.43c-1,2.89-4.6,4.42-4.76,4.49h0a27.13,27.13,0,0,0-5,3.44A4.5,4.5,0,0,0,111,83.93a5.65,5.65,0,0,0,3-1,16.92,16.92,0,0,0,1.9-1.31,21.69,21.69,0,0,1,3.61-2.3c2.87-1.42,5.1-.33,6.73.46.34.16.66.32,1,.44a4.36,4.36,0,0,1,2.49,2.4c1.34,3.19-.68,8.12-2,11.39l-.2.48c-.68,1.67-3.37,2-6.22,2.45a29.38,29.38,0,0,0-3.64.65,24.65,24.65,0,0,1-3,.6c-2,.32-2.36.47-2.27,1.11.13,1,1.08,1.5,2.74,2.3.64.32,1.36.67,2.1,1.11a24.14,24.14,0,0,1,5.24,4.73c.27.31.52.58.74.82,1.69,1.81.68,3.78-.3,5.7q-.25.49-.51,1c-1.38,2.93-4.39,3.9-7.31,4.83-.64.21-1.27.41-1.88.63a3.37,3.37,0,0,1-3.08-.31,14.79,14.79,0,0,1-3.24-2.91,23.09,23.09,0,0,0-2-2,10.89,10.89,0,0,1-1.71-2c-.35-.49-.87-1.23-1.09-1.29l-.12.16-.18.09a.43.43,0,0,0,.31-.24,16.21,16.21,0,0,0,.55,4.44l.37,1.45a27.07,27.07,0,0,1,1,4.93c-.07,4-.64,4.57-6.14,5.9A25.31,25.31,0,0,1,92.4,129.53ZM86.73,113.7a1.79,1.79,0,0,1,.65.13l.12,0,.08.1A6.55,6.55,0,0,1,89,117.31l0,.39c.33,6.8.44,8.47.47,8.67a2.48,2.48,0,0,0,1,1.74c1.2.77,3.53.42,7.16-.46,5.31-1.28,5.32-1.62,5.37-4.93a29.11,29.11,0,0,0-1-4.67l-.38-1.46c-.22-.85-.91-4.45-.45-5.17l.18-.2a1.06,1.06,0,0,1,.7-.32c.68,0,1.21.76,1.89,1.72a10,10,0,0,0,1.53,1.84,23.78,23.78,0,0,1,2.07,2.07,14.6,14.6,0,0,0,3,2.72,2.43,2.43,0,0,0,2.25.24c.62-.23,1.27-.43,1.92-.64,2.71-.87,5.51-1.77,6.71-4.31l.52-1.05c1-2,1.61-3.33.46-4.56-.23-.24-.48-.52-.75-.83a23.43,23.43,0,0,0-5-4.54c-.7-.42-1.41-.76-2-1.07-1.65-.8-3.07-1.5-3.29-3.06-.25-1.72,1.31-2,3.11-2.24a22.25,22.25,0,0,0,2.84-.57,30.55,30.55,0,0,1,3.77-.69c2.45-.34,5-.69,5.44-1.82l.2-.49c1.27-3.12,3.2-7.82,2-10.62a3.35,3.35,0,0,0-2-1.86c-.32-.13-.67-.3-1-.47-1.61-.78-3.43-1.67-5.86-.47a20.17,20.17,0,0,0-3.44,2.21,19.35,19.35,0,0,1-2,1.38c-.68.38-3,1.59-4,1A.86.86,0,0,1,110,84a5.43,5.43,0,0,1,1.9-4.16,27.3,27.3,0,0,1,5.31-3.61c.07,0,3.41-1.44,4.22-3.9a5.24,5.24,0,0,0-.67-4.45h0s-2.4-2.24-3.49-3.1-5.16-1.2-6.43-.82a7.08,7.08,0,0,0-4,3c-.3.38-.62.78-1,1.22a28.16,28.16,0,0,0-5.25,9.08,4,4,0,0,1-3.57,3.06h0a1.44,1.44,0,0,1-1.48-.94l0-.1a6.19,6.19,0,0,1-.3-3.16c.75-4.15,1.45-8-.51-11.82-1.74-3.39-2.4-4.37-6-4.22-3.32.13-5.34,2.44-6.72,4.43a7,7,0,0,0-1.07,6.14,42.67,42.67,0,0,1,1.16,7.08L82.2,79a2.74,2.74,0,0,1-1,2.18,1.14,1.14,0,0,1-.89.12,2.33,2.33,0,0,1-1.4-.8c-1.18-2-3-3.15-4.92-4.4l-1.26-.83a6.16,6.16,0,0,0-6.13-.45,10,10,0,0,0-6,7.48c-.82,3.68.33,6.32,3.73,8.58,2,1.32,4,2.61,6,3.89a3.39,3.39,0,0,1,1.79,2.74,1.89,1.89,0,0,1-1,1.61,2.46,2.46,0,0,1-2.69-.27,3.85,3.85,0,0,0-.82-.4,8.28,8.28,0,0,0-8.21,3.06,9.62,9.62,0,0,0-1.62,6.82c.44,4.75,1.68,6.53,4.57,6.57h0c1.36,0,3.93-1.42,6.45-2.87l.3-.17c4.06-2.35,6.41-3.41,7.24-2.24s-.81,2.51-2.73,4.06c-.59.49-1.21,1-1.74,1.48-2.73,2.51-2.68,3.64-2.29,5.19a9.12,9.12,0,0,0,9,6.44c2.33,0,4.35-6,5.21-8.62.25-.73.42-1.26.56-1.57l.1-.22C85,115.09,85.57,113.7,86.73,113.7Zm8.19,9.55c-.27,0-.52,0-.74,0a2.58,2.58,0,0,1-1.92-.81c-.54-.72-.45-1.88-.11-3.63.58-3-.41-8.6-.42-8.65,0-.29-.24-5.43-.18-7.36,0-.14,0-.19,0-.2s-.26-.08-.85.06l-.17,0c-.42.58-1.85,3-3.09,5.31-.09.13-5.1,6.48-7.4,9.6a8.47,8.47,0,0,0-1.25,2.59c-.32,1-.62,1.89-1.84,1.89s-1.57-.19-2.18-1.13c-.15-.23-.34-.52-.6-.89-1.18-1.61.23-2.65,1.6-3.66a18,18,0,0,0,1.42-1.13c1.47-1.32,3-3.77,4.41-6.13.81-1.34,1.58-2.61,2.35-3.68q.6-.84,1.14-1.56c.93-1.26,2.09-2.82,2-3.21a8.65,8.65,0,0,0-1.5-1.61c-1.18.51-14.11,6.16-16.14,8-2.29,2.12-4,3-5.93,3.11s-2.77-2-2.94-3.91c-.08-.94.92-2.66,1.94-3.78a4.15,4.15,0,0,1,2.68-1.57h0a2.8,2.8,0,0,1,2.18,1.3c.57.68.65.66.94.47a52.47,52.47,0,0,1,6.66-3c3.36-1.36,9.61-3.89,9.8-4.88h0a1.35,1.35,0,0,0-.2-.11,86.79,86.79,0,0,1-8.34-4.23c-.56-.33-1-.59-1.47-.82l-.32-.15c-1.49-.74-2.78-1.38-4.49-1a3,3,0,0,1-2.43-.25,3.4,3.4,0,0,1-1.29-2.51,5.75,5.75,0,0,1,1.22-4.36,2.73,2.73,0,0,1,2.91-1.41,3.45,3.45,0,0,1,2.54,2.75c0,.19,0,.34,0,.48a3.16,3.16,0,0,0,.37,1.38c.68,1.15,11.29,6.08,12.5,6.08h0a14.58,14.58,0,0,0,3.71-3.38,46.77,46.77,0,0,0-1.65-6.23c-.46-1.53-.93-3.11-1.25-4.34a2.79,2.79,0,0,0-1.25-2,3.08,3.08,0,0,1-1.55-2.24A3.14,3.14,0,0,1,84.88,70a12,12,0,0,1,3.31-2.09,2.73,2.73,0,0,1,3.46.53,3.06,3.06,0,0,1,.4,3.44,6.25,6.25,0,0,0-.5,1.43,18.32,18.32,0,0,0-.13,6.19c.16,1,.26,2.23.36,3.44a20.33,20.33,0,0,0,.46,3.58c.32.16.92.52,1.6.94s1.58,1,2,1.17c.32-.23,1.39-1.36,4.65-6.81A31.64,31.64,0,0,1,103.81,78c2-2.1,4.37-4.71,4.8-6a4.52,4.52,0,0,1,2.64-3.15,1,1,0,0,1,.94.13c.8.69,2.72,3.28,2.3,5a2,2,0,0,1-1.62,1.47,17.67,17.67,0,0,0-3.05,3.26A163.42,163.42,0,0,1,98.76,90.78a4.47,4.47,0,0,0,.84,1.27c1.84-.67,10.79-3.94,15.09-4.87a7.46,7.46,0,0,0,3.21-2.09c1.26-1.16,2.55-2.36,4.21-1.68A3.29,3.29,0,0,1,124,85.53a6.81,6.81,0,0,1-.63,5.14c-.72,1.16-2,1.22-3.56,1.3a13.6,13.6,0,0,0-3.76.56,50.76,50.76,0,0,1-8.59,1.8,34.17,34.17,0,0,0-7.4,1.63A1.83,1.83,0,0,0,99,97.76l.54.44c.57.46,1.18,1,1.77,1.46,3.89,3.4,10,7.51,11.25,7.58,1.77.1,2.32,1.84,2.58,2.67l.05.15a1.86,1.86,0,0,1-.19,1.45,4.55,4.55,0,0,1-2.6,2.06c-1.75.53-3.28-.12-3.8-1.62a3.12,3.12,0,0,1-.19-.87,3.56,3.56,0,0,0-.69-1.65c-.69-1.14-6.82-5.56-11-8.4l-.7.73.37,6.16c.42,4.37,1.08,9.24,1.44,9.79a6.63,6.63,0,0,1,1.69,3.4,1.2,1.2,0,0,1-.37,1C98.36,122.91,96.41,123.25,94.92,123.25Zm-3.63-21.72a1.34,1.34,0,0,1,.86.27,1.18,1.18,0,0,1,.4,1c-.06,1.9.17,7.16.17,7.22s1,5.73.41,9c-.32,1.63-.34,2.48-.07,2.84s.53.35,1.21.42c1.55.14,3.61-.26,4.15-.82.1-.1.1-.16.09-.18a5.48,5.48,0,0,0-1.42-2.83c-.67-.67-1.36-6.8-1.71-10.4L95,101.38l1.59-1.66.35.24c1.08.73,10.59,7.22,11.63,9a4.39,4.39,0,0,1,.83,2.06,2.39,2.39,0,0,0,.14.65,1.9,1.9,0,0,0,2.58,1,3.58,3.58,0,0,0,2-1.57,1,1,0,0,0,.12-.67l0-.16c-.29-.92-.69-1.91-1.69-2-1.79-.1-8.32-4.74-11.85-7.82-.57-.51-1.17-1-1.74-1.44l-1-.77,0-.28A2.82,2.82,0,0,1,99.7,95a35,35,0,0,1,7.61-1.69,48.82,48.82,0,0,0,8.43-1.76,14.61,14.61,0,0,1,4-.61c1.52-.07,2.34-.15,2.76-.83a5.86,5.86,0,0,0,.53-4.3,2.31,2.31,0,0,0-1.32-1.51c-1-.41-1.86.3-3.15,1.49a8.19,8.19,0,0,1-3.68,2.33c-4.64,1-15.16,4.92-15.27,5l-.31.12L99.09,93c-.31-.34-1.32-1.48-1.29-2.31a.91.91,0,0,1,.3-.65c.6-.52,7.45-7.56,10.94-12,1.54-2,3-3.49,3.55-3.61h0c.7-.17.86-.51.92-.75.27-1.14-1.17-3.28-1.92-4-.33,0-1.44.64-2,2.51-.5,1.55-2.8,4-5,6.43a32.21,32.21,0,0,0-3.19,3.72c-4.63,7.75-5.23,7.5-5.75,7.29a24.91,24.91,0,0,1-2.29-1.31c-.65-.4-1.34-.82-1.57-.92-.57-.26-.7-1.28-1-4.37-.09-1.19-.19-2.43-.35-3.35a19.54,19.54,0,0,1,.13-6.53,6.79,6.79,0,0,1,.58-1.66,2.05,2.05,0,0,0-.24-2.38,1.75,1.75,0,0,0-2.28-.29,11.39,11.39,0,0,0-3,1.9,2.22,2.22,0,0,0-.79,1.76A2.1,2.1,0,0,0,85.88,74a3.76,3.76,0,0,1,1.68,2.58c.32,1.21.79,2.78,1.25,4.3,1.46,4.88,1.85,6.38,1.61,6.92-.35.8-3.28,3.62-4.41,4-1.36.39-13.1-5.33-13.65-6.66a4.29,4.29,0,0,1-.45-1.73c0-.11,0-.24,0-.4a2.47,2.47,0,0,0-1.76-1.89c-.74-.16-1.27.12-1.89,1a4.87,4.87,0,0,0-1,3.64A2.58,2.58,0,0,0,68,87.52a2,2,0,0,0,1.64.11c2.07-.51,3.58.23,5.17,1l.32.15c.48.24,1,.51,1.54.85A80.87,80.87,0,0,0,85,93.84a1.12,1.12,0,0,1,.79,1c0,1.43-3.37,2.94-10.44,5.8a53,53,0,0,0-6.48,2.88c-1.1.71-1.79-.12-2.26-.67s-.78-.94-1.41-.94h0a3.23,3.23,0,0,0-1.94,1.24,6.13,6.13,0,0,0-1.68,3c0,.32.31,3.11,1.89,3s3.2-.9,5.3-2.85S83.21,99,85,98.18l0-.07.36-.1c.34-.06.84,0,2.43,2,.65.83-.28,2.1-2,4.4L84.73,106c-.74,1-1.5,2.29-2.31,3.62-1.48,2.42-3,4.94-4.59,6.36a17.87,17.87,0,0,1-1.5,1.18c-1.58,1.17-1.91,1.56-1.38,2.28.28.38.47.69.63.93.43.67.43.67,1.34.67.44,0,.55-.15.89-1.2A9.2,9.2,0,0,1,79.2,117c2.32-3.13,7.33-9.5,7.38-9.56,3.13-5.7,3.35-5.72,3.66-5.74l.19,0h0A3.81,3.81,0,0,1,91.29,101.53Zm.86-15h0Z"/><path class="cls-1" d="M67.39,32.82c2.2.25,4.45.14,6.56,1.08A30.23,30.23,0,0,1,89.69,49.22c.19.42.66.72,1.18,1.27.41-4.47.86-8.44,3.81-11.84,4.31-5,8.91-9.29,15.74-10.46.84-3.91-.26-7.48-1.29-11-.7-2.38-1.43-4.9-3.59-6.61A15.21,15.21,0,0,1,103,7.77C100.71,4.7,97.93,2.31,94,1.61c-.63-.12-1.22-.41-1.84-.51-3.4-.55-6.86-1.22-10.08.52-1.88,1-3.56,2.4-5.35,3.58A25.67,25.67,0,0,0,69,13.44c-3,5-3.92,10.75-5.92,16.11a16.25,16.25,0,0,0-.46,3.23A43.26,43.26,0,0,1,67.39,32.82Z"/><path class="cls-2" d="M91.26,51.64l-.76-.81c-.17-.18-.33-.33-.48-.47a2.94,2.94,0,0,1-.78-.93,29.51,29.51,0,0,0-15.5-15.07,13.49,13.49,0,0,0-4.7-.9c-.57,0-1.14-.08-1.71-.15h0a21.31,21.31,0,0,0-3-.05l-1.66,0h-.58l.08-.56c.06-.41.09-.8.12-1.17a8.09,8.09,0,0,1,.37-2.18c.68-1.82,1.24-3.72,1.79-5.57A43.27,43.27,0,0,1,68.6,13.18a25.86,25.86,0,0,1,7.85-8.39c.64-.43,1.26-.87,1.88-1.32a31,31,0,0,1,3.5-2.29C85.05-.56,88.46,0,91.75.53l.47.07a6.47,6.47,0,0,1,1,.28,6,6,0,0,0,.83.23c3.58.64,6.55,2.66,9.36,6.36l.26.34a12.83,12.83,0,0,0,2.15,2.42c2.27,1.8,3.05,4.45,3.74,6.8l.11.35c1,3.44,2.06,7,1.2,10.92l-.07.33-.33.06C104.15,29.77,99.73,33.58,95.06,39c-2.94,3.38-3.32,7.54-3.69,11.57ZM67.45,32.32c.55.06,1.1.1,1.66.14a14.25,14.25,0,0,1,5,1A30.84,30.84,0,0,1,90.14,49a1.42,1.42,0,0,0,.33.4c.37-3.85,1-7.77,3.83-11.09C99,32.86,103.53,29,110,27.76c.67-3.55-.31-6.88-1.25-10.1l-.09-.29c-.7-2.37-1.4-4.76-3.42-6.36a13.39,13.39,0,0,1-2.33-2.6l-.26-.34c-2.64-3.48-5.42-5.38-8.74-6a6.73,6.73,0,0,1-1-.27,6.75,6.75,0,0,0-.87-.24l-.48-.08c-3.27-.53-6.36-1-9.29.55a32.36,32.36,0,0,0-3.39,2.22c-.63.46-1.26.91-1.91,1.34a25,25,0,0,0-7.54,8.09,41.89,41.89,0,0,0-4.07,10.37c-.55,1.86-1.12,3.79-1.81,5.64a7.45,7.45,0,0,0-.32,1.91c0,.21,0,.43,0,.65l1.07,0a22.17,22.17,0,0,1,3.17.06Z"/><path class="cls-1" d="M35,122.38c2.66-6.95,6.69-12.44,13.38-15.81C42.64,106,38,103.49,33.72,100c-4.55-3.74-5.55-9.07-7-14.56a44.19,44.19,0,0,0-6.18-.08c-4.46.55-8.19,2.89-11.76,5.43a23.67,23.67,0,0,0-3.85,3.36,18,18,0,0,0-2.12,3.42,17.48,17.48,0,0,0-2.28,7.72,9.89,9.89,0,0,0,2.89,8c2.51,2.41,5.59,3.87,8.33,5.86,3.77,2.74,8.22,3.61,12.68,3.58C27.85,122.7,31.3,121.85,35,122.38Z"/><path class="cls-2" d="M24.17,123.22c-5.16,0-9.33-1.2-12.73-3.68-1-.71-2-1.37-3.06-2a32.6,32.6,0,0,1-5.33-3.88c-2.2-2.12-3.17-4.79-3-8.42a17.88,17.88,0,0,1,2.34-7.94l.36-.66a13.89,13.89,0,0,1,1.83-2.86,24.46,24.46,0,0,1,3.93-3.43c3.34-2.37,7.29-4.94,12-5.52a24.7,24.7,0,0,1,4.3,0c.65,0,1.3.08,2,.09h.38l.09.36c.15.54.29,1.07.43,1.61,1.26,4.85,2.45,9.42,6.43,12.7,4.76,3.91,9.33,6,14.4,6.49l1.7.18-1.53.77c-6.07,3.06-10.24,8-13.13,15.54l-.15.38-.39-.06a27.4,27.4,0,0,0-6.66.09c-1.27.12-2.58.24-3.87.25Zm-1.86-37.5a12.46,12.46,0,0,0-1.73.1c-4.47.55-8.29,3-11.53,5.33a23.9,23.9,0,0,0-3.77,3.29A13.37,13.37,0,0,0,3.59,97.1l-.36.67A16.92,16.92,0,0,0,1,105.27c-.12,3.32.75,5.75,2.74,7.65a30.63,30.63,0,0,0,5.16,3.76c1,.65,2.1,1.32,3.11,2.06,3.28,2.38,7.34,3.51,12.38,3.48,1.25,0,2.48-.12,3.78-.25a29.86,29.86,0,0,1,6.5-.13c2.76-7,6.64-11.82,12.12-15a28,28,0,0,1-13.4-6.51c-4.23-3.48-5.46-8.21-6.76-13.22l-.33-1.24-1.62-.08C23.88,85.76,23.09,85.72,22.31,85.72Z"/><path class="cls-1" d="M124.36,38.86c.33,1.07.82,2.08,1.15,3.15a19.24,19.24,0,0,1,.71,3c.45,3.11,1.09,6.22.3,9.53a28.19,28.19,0,0,1,9.62-4.16,13.41,13.41,0,0,1,4.68-.61c2.06.19,7,.58,8.35-.7,4.56-4.26,6.4-8.83,8.7-14.64,1.09-2.73-2.17-10.32-2.3-10.68-1.24-3.41-4.62-4.19-7.26-5.83-1.28-.8-6.13-.17-7-.16-4.66,0-8.36,2.4-11.93,4.95a38.18,38.18,0,0,0-9.23,9.36C122.9,34.54,123.16,35,124.36,38.86Z"/><path class="cls-2" d="M125.72,55.75l.32-1.32a21.3,21.3,0,0,0-.15-8.24l-.17-1.11a19.32,19.32,0,0,0-.68-2.92c-.17-.52-.37-1-.57-1.54s-.42-1.06-.59-1.61c-1.18-3.81-1.41-4.18-4.06-6.56l-.33-.3.25-.36a38.68,38.68,0,0,1,9.35-9.49c3.7-2.64,7.42-5,12.21-5,.18,0,.53,0,1-.07,2.49-.2,5.24-.35,6.31.31.64.4,1.34.75,2,1.1,2.18,1.1,4.43,2.24,5.43,5l.07.18c1.51,3.72,3.12,8.61,2.23,10.85-2.23,5.61-4.15,10.46-8.83,14.82-1.42,1.32-5.66,1.11-8.73.84a13,13,0,0,0-4.51.59,27.24,27.24,0,0,0-9.45,4.08ZM120.82,32c2.48,2.26,2.83,2.9,4,6.72h0c.16.52.36,1,.56,1.53s.42,1.06.59,1.61a20.27,20.27,0,0,1,.72,3.08l.17,1.1a24.93,24.93,0,0,1,.36,7.4A30.81,30.81,0,0,1,136,49.89a14.3,14.3,0,0,1,4.86-.62c5.54.5,7.39,0,8-.57,4.52-4.21,6.31-8.73,8.58-14.46.59-1.48-.22-5.17-2.23-10.1l-.08-.22c-.87-2.37-2.85-3.37-4.94-4.43-.71-.35-1.43-.72-2.11-1.14-.88-.55-4.25-.28-5.7-.16-.48,0-.85.07-1,.07-4.5,0-8.07,2.31-11.64,4.85A37.54,37.54,0,0,0,120.82,32Z"/><path class="cls-1" d="M32.29,92.41c.94,2.21,2.78,3.62,4.69,5,1.38,1,2.61,1.62,4.32.72a33.11,33.11,0,0,1,3.59-1.26,24.82,24.82,0,0,1,8.53-2.07A18.68,18.68,0,0,0,57,94l0-.53c-8.55-2.87-16.74-6.91-26.19-7.94A18.13,18.13,0,0,0,32.29,92.41Z"/><path class="cls-2" d="M39.7,99.05a5.33,5.33,0,0,1-3-1.24c-2.08-1.5-3.89-2.93-4.85-5.2h0a18.81,18.81,0,0,1-1.45-7l0-.57.57.06c7,.76,13.27,3.15,19.38,5.45,2.26.85,4.6,1.73,6.91,2.51l.36.12-.06,1.3-.38.08c-.36.08-.73.18-1.1.29a10.84,10.84,0,0,1-2.61.48,24.35,24.35,0,0,0-8.36,2,14.4,14.4,0,0,1-1.49.49,11.28,11.28,0,0,0-2,.75A3.87,3.87,0,0,1,39.7,99.05ZM31.4,86.12a17.67,17.67,0,0,0,1.35,6.1h0c.86,2,2.56,3.36,4.52,4.77,1.43,1,2.4,1.42,3.79.69a11.88,11.88,0,0,1,2.24-.83c.47-.14,1-.28,1.41-.46a25.06,25.06,0,0,1,8.7-2.1,9.34,9.34,0,0,0,2.36-.45l.42-.11C54.09,93,52,92.21,50,91.45,44.08,89.23,38,86.94,31.4,86.12Z"/><path class="cls-1" d="M53.59,53.2a48.23,48.23,0,0,0,6,5.06c3.26,2.41,6.64,4.64,10,7,.79.55,1.49,1.22,2.23,1.84l.42-.38c-5.11-8.44-9.59-17.25-15.7-25.37a17.7,17.7,0,0,0-3.68,6.48C52.23,49.66,52.17,51.74,53.59,53.2Z"/><path class="cls-2" d="M71.75,67.73l-.33-.28c-.24-.19-.47-.4-.7-.6a18,18,0,0,0-1.49-1.21c-1.23-.87-2.48-1.72-3.72-2.57-2.06-1.42-4.2-2.89-6.25-4.4a49.68,49.68,0,0,1-6-5.12h0c-1.34-1.39-1.66-3.42-.93-5.9A18.14,18.14,0,0,1,56.08,41l.41-.47.37.5a171.34,171.34,0,0,1,11.3,17.86c1.44,2.48,2.92,5.06,4.43,7.55l.22.36ZM54,52.85a47.87,47.87,0,0,0,5.91,5c2,1.51,4.16,3,6.22,4.38,1.24.86,2.49,1.71,3.72,2.58a15.36,15.36,0,0,1,1.26,1c-1.29-2.14-2.54-4.33-3.76-6.44A176.4,176.4,0,0,0,56.44,42.13a16.63,16.63,0,0,0-3.18,5.81c-.43,1.47-.67,3.51.69,4.91Z"/><path class="cls-1" d="M41.08,73.64c-3,2-5.79,4.14-7.82,7.64l23.66,9.13C55.13,88,53.72,86,52.08,84.05,49.12,80.61,46,77.29,43,73.9A1.35,1.35,0,0,0,41.08,73.64Z"/><path class="cls-2" d="M58.38,91.5l-25.85-10,.29-.51c2-3.4,4.62-5.59,8-7.81a1.84,1.84,0,0,1,2.57.35c1.12,1.26,2.26,2.51,3.39,3.76,1.88,2.08,3.83,4.23,5.69,6.39,1.12,1.31,2.15,2.71,3.24,4.19.51.7,1,1.44,1.62,2.2ZM34,81l21.5,8.29-.6-.82C53.81,87,52.8,85.65,51.7,84.37,49.85,82.22,47.91,80.08,46,78l-3.4-3.77a.85.85,0,0,0-1.27-.19h0C38.28,76.09,35.83,78.07,34,81Z"/><path class="cls-1" d="M73.51,60.82c-.66-7.9-1.31-15.8-2-23.79-3.48-.75-7-2.37-10.49.46L72.84,61Z"/><path class="cls-2" d="M72.57,61.58,60.41,37.35l.31-.25c3.15-2.52,6.24-1.73,9.22-1,.57.15,1.13.29,1.7.41l.36.08,2,24.57ZM61.67,37.64,73,60.1,71.06,37.44c-.45-.1-.91-.22-1.37-.34C66.93,36.39,64.32,35.72,61.67,37.64Z"/><path class="cls-1" d="M74.24,38.63A120.43,120.43,0,0,1,76.67,59.5c3.09-2.28,5.48-5,9.1-5.34C85.2,47.31,78.5,38.89,74.24,38.63Z"/><path class="cls-2" d="M76.19,60.47l0-1a120.28,120.28,0,0,0-2.42-20.78l-.13-.63.65,0c4.7.27,11.43,9.23,12,16l0,.49-.49,0c-2.64.28-4.66,1.91-6.79,3.63-.67.54-1.35,1.09-2.07,1.62ZM74.87,39.24a120.93,120.93,0,0,1,2.27,19.27c.43-.33.85-.67,1.26-1,2.13-1.72,4.14-3.35,6.82-3.79C84.45,47.48,78.71,40.22,74.87,39.24Z"/><path class="cls-1" d="M121.24,42.18c-1.17-3.48-2.59-6.44-6.42-7.75a126.89,126.89,0,0,0-7.59,20.11Z"/><path class="cls-2" d="M106.31,56l.44-1.61a126.67,126.67,0,0,1,7.61-20.19l.19-.41L115,34c4.19,1.43,5.62,4.77,6.73,8.07l.11.32Zm8.77-21a127.12,127.12,0,0,0-6.9,18l12.48-11C119.45,38.53,118.09,36.24,115.08,35.05Z"/><path class="cls-1" d="M104.51,52.25c3.29-6,4.88-12.25,7.35-18.75a22.25,22.25,0,0,0-10.24,5.17C102.57,43.15,103.49,47.45,104.51,52.25Z"/><path class="cls-2" d="M104.3,53.67l-3.23-15.2.23-.19A22.88,22.88,0,0,1,111.77,33l.88-.18-.32.84c-.76,2-1.44,4-2.1,5.92a78.17,78.17,0,0,1-5.29,12.91Zm-2.13-14.81,2.54,12a86.47,86.47,0,0,0,4.58-11.55c.56-1.66,1.15-3.36,1.78-5.08A22.16,22.16,0,0,0,102.17,38.86Z"/><path class="cls-1" d="M120.53,58.15a25.38,25.38,0,0,0,1.18-11.87c-2.36,1.08-10.41,9.13-11.84,11.8C113.37,57.49,116.8,57.05,120.53,58.15Z"/><path class="cls-2" d="M120.83,58.76l-.44-.14c-3.6-1-6.86-.65-10.44,0l-1,.17.49-.9c1.51-2.81,9.63-10.89,12.07-12l.63-.29.08.69A25.7,25.7,0,0,1,121,58.32ZM115.69,57a17.5,17.5,0,0,1,4.53.56,24.42,24.42,0,0,0,1.07-10.44A63.48,63.48,0,0,0,110.9,57.4,32,32,0,0,1,115.69,57Z"/><path class="cls-1" d="M99.15,41.48c-1.43,2.16-2.67,4.36-3.85,6.59-1,1.79-1.55,3.66-1.06,5.35l6.46,5.39C101.19,52.61,100.22,47.07,99.15,41.48Z"/><path class="cls-2" d="M101.12,59.81l-7.32-6.1,0-.15c-.46-1.59-.1-3.46,1.1-5.72,1.42-2.69,2.62-4.74,3.87-6.64l.68-1,.23,1.21c1.14,5.93,2,11.34,1.56,17.47Zm-6.44-6.67,5.58,4.66a60.9,60.9,0,0,0-1.37-15c-1,1.59-2,3.34-3.15,5.51C94.7,50.25,94.36,51.84,94.68,53.14Z"/><path class="cls-1" d="M39.84,121.17c-1.7,3.25-2.87,6.32-1.16,10a125.7,125.7,0,0,0,19.77-8.44Z"/><path class="cls-2" d="M38.42,131.79l-.19-.41c-1.87-4-.45-7.36,1.17-10.44l.15-.3,20.61,1.74-1.47.79a126.45,126.45,0,0,1-19.85,8.47Zm1.71-10.1c-1.69,3.29-2.41,5.86-1.18,8.86a126.82,126.82,0,0,0,17.76-7.46Z"/><path class="cls-1" d="M58.69,126.28c-6.6,1.76-12.23,4.95-18.64,7.67a22.49,22.49,0,0,0,10.82,3.82Z"/><path class="cls-2" d="M51.11,138.3l-.3,0a22.92,22.92,0,0,1-11-3.9l-.74-.52.83-.35c2-.83,3.87-1.72,5.72-2.58a79.19,79.19,0,0,1,13-5.11l1.3-.34Zm-10-4.25a22.11,22.11,0,0,0,9.53,3.18l6.87-10.09A84.79,84.79,0,0,0,46,131.82C44.41,132.56,42.77,133.32,41.1,134.05Z"/><path class="cls-1" d="M51.86,110.64A25.23,25.23,0,0,0,42.48,118c2.41,1,13.79,1.21,16.71.4C56.34,116.26,53.65,114.09,51.86,110.64Z"/><path class="cls-2" d="M52.55,119.38c-4.16,0-8.78-.34-10.26-.92l-.64-.26.44-.53a25.54,25.54,0,0,1,9.57-7.49l.43-.18.21.41c1.73,3.33,4.27,5.4,7.19,7.58l.81.61-1,.27A31.73,31.73,0,0,1,52.55,119.38Zm-9.19-1.65a63.61,63.61,0,0,0,14.63.38,22.27,22.27,0,0,1-6.35-6.83A24.37,24.37,0,0,0,43.36,117.73Z"/><path class="cls-1" d="M54.61,137.61c2.55-.47,5-1.1,7.43-1.78,2-.55,4.22-8.38,4-11.33C61.24,128.43,57.91,133,54.61,137.61Z"/><path class="cls-2" d="M53.49,138.32l.71-1c3.5-4.93,6.78-9.32,11.54-13.21l.75-.61.07,1c.2,2.93-2.06,11.18-4.38,11.84-2.94.83-5.25,1.38-7.48,1.79Zm12.06-12.74a61,61,0,0,0-9.8,11.3c1.83-.38,3.78-.86,6.15-1.53C63.31,135,65.3,129,65.55,125.58Z"/><path class="cls-1" d="M151.82,71.46c1.72-3.24,2.9-6.31,1.22-10a127.13,127.13,0,0,0-19.82,8.33Z"/><path class="cls-2" d="M152.11,72l-20.6-1.85,1.48-.79A125.34,125.34,0,0,1,152.88,61l.42-.14.19.4c1.84,4,.41,7.37-1.22,10.44ZM135,69.45l16.58,1.48c1.7-3.28,2.43-5.85,1.22-8.85A128.2,128.2,0,0,0,135,69.45Z"/><path class="cls-1" d="M133,66.24c6.61-1.72,12.25-4.88,18.68-7.56a22.26,22.26,0,0,0-10.8-3.88C138.28,58.57,135.79,62.2,133,66.24Z"/><path class="cls-2" d="M131.83,67.06l8.81-12.79.3,0a22.92,22.92,0,0,1,11,4l.73.52-.83.35c-2,.82-3.88,1.7-5.74,2.55a78.19,78.19,0,0,1-13,5Zm9.29-11.73-6.93,10.06a86.6,86.6,0,0,0,11.53-4.61c1.59-.73,3.23-1.48,4.92-2.21A22.24,22.24,0,0,0,141.12,55.33Z"/><path class="cls-1" d="M139.75,81.92a25.21,25.21,0,0,0,9.42-7.3c-2.41-1-13.78-1.28-16.71-.49C135.29,76.28,138,78.46,139.75,81.92Z"/><path class="cls-2" d="M139.51,82.56l-.21-.41c-1.7-3.34-4.24-5.42-7.14-7.62l-.81-.61,1-.27c3.08-.83,14.54-.49,17,.51l.64.26-.45.52a25.48,25.48,0,0,1-9.61,7.44Zm-5.85-8.14A22.25,22.25,0,0,1,140,81.28a24.27,24.27,0,0,0,8.31-6.4A63.35,63.35,0,0,0,133.66,74.42Z"/><path class="cls-1" d="M137.14,54.94c-2.55.45-5,1.07-7.44,1.74-1.95.54-3.72,1.39-4.61,2.91.19,3,.35,5.45.53,8.4C130.46,64.08,133.82,59.57,137.14,54.94Z"/><path class="cls-2" d="M125.19,69l-.61-9.51.08-.13c.84-1.43,2.44-2.46,4.91-3.14,2.94-.81,5.25-1.36,7.48-1.76l1.21-.21-.71,1c-3.53,4.91-6.83,9.28-11.61,13.14Zm.41-9.26.46,7.25A60.46,60.46,0,0,0,136,55.66c-1.83.37-3.79.85-6.16,1.5C127.71,57.75,126.32,58.59,125.6,59.72Z"/><path class="cls-1" d="M65.27,69.3A18.14,18.14,0,0,1,69,69L55.24,58.16l-.42.28c.44,1,.81,2,1.34,2.93.73,1.29,1.62,2.49,2.38,3.77,1.16,2,2.25,3.94,3.41,6A19.49,19.49,0,0,1,65.27,69.3Z"/><path class="cls-2" d="M61.76,71.79l-1.27-2.24c-.79-1.4-1.57-2.79-2.38-4.16-.35-.58-.72-1.15-1.1-1.72s-.89-1.35-1.29-2.05a19.37,19.37,0,0,1-1-2.07q-.18-.45-.39-.9l-.17-.39,1.07-.71L70.35,69.39l-1.3.09c-.47,0-.91,0-1.34.06a8.43,8.43,0,0,0-2.29.24,9.08,9.08,0,0,0-2.09,1.08c-.36.22-.73.46-1.13.68Zm-6.1-12.66v0a18.72,18.72,0,0,0,.92,2c.39.68.83,1.35,1.25,2s.78,1.17,1.13,1.77c.81,1.38,1.6,2.77,2.4,4.18l.77,1.36L62.8,70a10.27,10.27,0,0,1,2.33-1.19h0a9.29,9.29,0,0,1,2.51-.28Z"/><path class="cls-1" d="M55.71,82.09c.64-2.67,1.2-5,1.77-7.44-2.88-1.8-4.26-2.12-10.48-2.16C50.22,75.38,52.42,79.19,55.71,82.09Z"/><path class="cls-2" d="M56,83l-.63-.55a41.07,41.07,0,0,1-4.51-5,41.11,41.11,0,0,0-4.2-4.66l-1-.88H47c6.23,0,7.74.36,10.74,2.23l.31.19ZM48.27,73c1.22,1.23,2.31,2.58,3.38,3.89a45.76,45.76,0,0,0,3.77,4.26l1.49-6.27C54.48,73.41,53.06,73.08,48.27,73Z"/><path class="cls-1" d="M52.65,103.07c1.33-1.86,2.57-3.57,3.92-5.45L43.9,100.86C47.51,102.83,50.1,103.32,52.65,103.07Z"/><path class="cls-2" d="M51.44,103.63a16,16,0,0,1-7.78-2.33l-1.12-.61,15.24-3.9-4.86,6.75-.22,0C52.27,103.61,51.86,103.63,51.44,103.63ZM45.3,101a13.1,13.1,0,0,0,7.07,1.57l3-4.15Z"/></g></g></svg>