<svg xmlns="http://www.w3.org/2000/svg" viewBox="0 0 77.4 76.84"><defs><style>.cls-1{fill:#fff;}.cls-2{fill:#80445a;}</style></defs><g id="Calque_2" data-name="Calque 2"><g id="Calque_1-2" data-name="Calque 1"><path class="cls-1" d="M36.08,33.06l.58,0,3.73-8.6-5.55.49Z"/><path class="cls-2" d="M35.65,33.56l-1.38-9.08,6.91-.62L37,33.54Zm-.23-8.18,1,6.87L39.6,25Z"/><path class="cls-1" d="M33.28.52a50.38,50.38,0,0,0-6.36.87c-3.32.73-5.68,3.15-8.07,5.29a5.92,5.92,0,0,0-2.05,5.84,49.21,49.21,0,0,0,1.84,5.41,5.4,5.4,0,0,0,1,1.26c1.21-1.78,1.6-3.75,3.57-4.83s4-.06,5.91-.07c3.1-2.89,4.83-3.09,7.93-.69.61-4,.85-7.51-.65-11A2.86,2.86,0,0,0,33.28.52Z"/><path class="cls-2" d="M19.68,20l-.43-.52c-.12-.15-.24-.28-.36-.41a3.08,3.08,0,0,1-.72-1l-.26-.69a40.57,40.57,0,0,1-1.59-4.78,6.41,6.41,0,0,1,2.19-6.33l.77-.7c2.18-2,4.44-4,7.53-4.71A54.24,54.24,0,0,1,33.24,0h0a3.34,3.34,0,0,1,3.62,2.34c1.48,3.48,1.36,6.91.68,11.32l-.13.84L36.74,14c-2.88-2.24-4.31-2.11-7.28.66l-.14.13H29.1a10.4,10.4,0,0,1-1.93-.24,5.17,5.17,0,0,0-3.72.24,6.29,6.29,0,0,0-2.41,3,16,16,0,0,1-1,1.72ZM33.33,1a51.08,51.08,0,0,0-6.3.87C24.19,2.5,22,4.46,20,6.35l-.78.7a5.49,5.49,0,0,0-1.89,5.35,42.41,42.41,0,0,0,1.55,4.66l.27.7a2.21,2.21,0,0,0,.46.61c.21-.36.4-.73.59-1.09A7.11,7.11,0,0,1,23,13.92a6.09,6.09,0,0,1,4.39-.35,11.17,11.17,0,0,0,1.57.22c3-2.74,4.91-3,7.75-1.08.53-3.85.56-6.91-.74-10A2.38,2.38,0,0,0,33.33,1Z"/><path class="cls-1" d="M10.36,23.75a17.42,17.42,0,0,0-8.19,5.14A4.4,4.4,0,0,0,1.1,30.7c-1.12,4.05-.55,8.06.65,12a3.49,3.49,0,0,0,1.84,2,13.88,13.88,0,0,0,7.16.73,12.61,12.61,0,0,1-1.4-6.57c.22-2.63,2.45-3.48,4.18-4.69-2.13-5-2.5-5.35.7-9.9A5.41,5.41,0,0,0,10.36,23.75Z"/><path class="cls-2" d="M8.57,46.14a15.22,15.22,0,0,1-5.14-1,3.93,3.93,0,0,1-2.16-2.37C-.17,38.09-.38,34.2.62,30.57a4.8,4.8,0,0,1,1.19-2,17.75,17.75,0,0,1,8.43-5.27h0a5.9,5.9,0,0,1,4.2.56l.55.25-.35.5c-2.91,4.14-2.8,4.41-.9,8.83l.4,1-.33.24-1,.65c-1.45.91-2.81,1.77-3,3.68a11.92,11.92,0,0,0,1.36,6.31l.27.6-.64.11A13.46,13.46,0,0,1,8.57,46.14Zm1.91-21.9a16.73,16.73,0,0,0-8,5,3.93,3.93,0,0,0-.95,1.59C.64,34.27.84,38,2.23,42.53a3,3,0,0,0,1.53,1.72,13.51,13.51,0,0,0,6.26.8,12.69,12.69,0,0,1-1.17-6.21c.21-2.4,1.92-3.49,3.43-4.44.21-.13.42-.26.62-.4l-.08-.19c-1.86-4.34-2.21-5.15.65-9.29a4.48,4.48,0,0,0-3-.28Z"/><path class="cls-1" d="M12.63,38.05A6,6,0,0,0,14,44.8a2.29,2.29,0,0,0,2.43.48c1-.36,2.08-.63,3-.91-.16-2.61-.31-5.18-.48-8-1.16-.05-2.2-.18-3.22-.12A3.35,3.35,0,0,0,12.63,38.05Z"/><path class="cls-2" d="M15.56,45.94a2.81,2.81,0,0,1-1.87-.76,6.49,6.49,0,0,1-1.51-7.34h0a3.81,3.81,0,0,1,3.53-2.11,18.29,18.29,0,0,1,2.21.06l1.06.06.45,0L20,44.73l-1.23.37c-.69.19-1.41.4-2.13.65A3,3,0,0,1,15.56,45.94Zm-2.48-7.67a5.54,5.54,0,0,0,1.26,6.16,1.82,1.82,0,0,0,1.93.38c.73-.26,1.48-.47,2.19-.67l.46-.14-.43-7.18-.63,0a18.55,18.55,0,0,0-2.09-.05,2.83,2.83,0,0,0-2.69,1.54Z"/><path class="cls-1" d="M25.23,16.8c-2.89,1.6-4.51,5.45-1,8.73a1.45,1.45,0,0,0,2.12,0c1.2-.9,2.44-1.75,4.08-2.92-.85-1.81-1.6-3.62-2.53-5.33A1.84,1.84,0,0,0,25.23,16.8Z"/><path class="cls-2" d="M25.3,26.5a2,2,0,0,1-1.37-.61,5.78,5.78,0,0,1-2.15-5A6.08,6.08,0,0,1,25,16.37h0A2.76,2.76,0,0,1,27.11,16a2.05,2.05,0,0,1,1.26,1c.67,1.22,1.25,2.5,1.81,3.74l.74,1.62.18.37-1.77,1.26c-1,.69-1.82,1.28-2.64,1.9A2.38,2.38,0,0,1,25.3,26.5Zm1.19-9.56a2.14,2.14,0,0,0-1,.3h0A5.17,5.17,0,0,0,22.77,21a4.89,4.89,0,0,0,1.84,4.19c.5.46.86.46,1.48,0,.83-.62,1.68-1.22,2.66-1.92l1.09-.77-.57-1.24c-.58-1.29-1.12-2.5-1.77-3.68a1.11,1.11,0,0,0-.67-.56A1.21,1.21,0,0,0,26.49,16.94Z"/><path class="cls-1" d="M22.26,37.36s.13,4.5,1.1,6.71l5.55-2.46,3.68-1.94Z"/><path class="cls-2" d="M23.1,44.73l-.2-.46c-1-2.27-1.13-6.71-1.14-6.9l0-.64L34,39.48l-4.89,2.57-5.58,2.48ZM22.79,38a23.7,23.7,0,0,0,.85,5.41l5.06-2.24,2.46-1.3Z"/><path class="cls-1" d="M16.25,26c-1.34,1.1-1.84,4.07-1,5.94.75,1.66,1.84,2,4.35,1.45l2.33-5.6C19.39,25.58,17.47,25,16.25,26Z"/><path class="cls-2" d="M17.77,34.13a3,3,0,0,1-3-2c-.93-2.06-.37-5.3,1.13-6.54s3.58-.59,6.33,1.8l.27.23L20,33.82l-.25,0A9,9,0,0,1,17.77,34.13ZM17.61,26a1.58,1.58,0,0,0-1,.35h0c-1.16,1-1.6,3.71-.86,5.36.55,1.22,1.2,1.7,3.53,1.22l2.09-5C20.16,27,18.75,26,17.61,26Z"/><path class="cls-1" d="M22.53,35c1.36.42,2.18.69,3,.92a85.07,85.07,0,0,0,8.74,1.76l-9.72-7.52C23.86,31.81,23.26,33.23,22.53,35Z"/><path class="cls-2" d="M34.22,38.17a26.49,26.49,0,0,1-3.73-.64c-2.09-.43-4.19-.9-5.09-1.15-.55-.15-1.09-.32-1.79-.54l-1.75-.55,2.48-5.95L34.87,37.5l-.14.35C34.65,38.05,34.6,38.17,34.22,38.17Zm-11-3.51.7.23c.69.21,1.22.38,1.76.53,1.32.36,4.69,1.08,6.79,1.48l-7.7-6Z"/><path class="cls-1" d="M26.81,28.72c2.44,1.84,7.26,5.42,7.26,5.42l-2.49-8.42A25.83,25.83,0,0,0,26.81,28.72Z"/><path class="cls-2" d="M35,35.44l-1.2-.9S29,31,26.51,29.12L26,28.76l.43-.4a25.92,25.92,0,0,1,4.89-3.09l.53-.26ZM27.61,28.7l5.56,4.15-1.9-6.41A27.63,27.63,0,0,0,27.61,28.7Z"/><path class="cls-1" d="M36.58,20.7a7.66,7.66,0,0,0,.24-1.76,16.26,16.26,0,0,0-.65-3.19c-.35-1-1.38-1-2.24-1s-1,.86-1.2,1.55a6.37,6.37,0,0,0,1.49,5.39Z"/><path class="cls-2" d="M34.05,22.3,33.82,22a6.81,6.81,0,0,1-1.58-5.79l0-.11c.14-.68.38-1.81,1.66-1.84.84,0,2.26,0,2.72,1.34a16.58,16.58,0,0,1,.67,3.29,3.63,3.63,0,0,1-.13,1.3c0,.18-.08.38-.11.59l0,.28Zm.1-7h-.21c-.42,0-.53.24-.7,1l0,.12a5.66,5.66,0,0,0,1.18,4.67l1.74-.74c0-.13,0-.25.08-.37a3.27,3.27,0,0,0,.11-1,15.57,15.57,0,0,0-.63-3.09C35.51,15.37,35.06,15.25,34.15,15.25Z"/><path class="cls-1" d="M32.59,42.37C30.66,43,23.74,46,23.74,46s2.09,3.89,3.07,4.41C27.93,48.92,31.73,43.5,32.59,42.37Z"/><path class="cls-2" d="M27,51l-.37-.21c-1.07-.57-2.92-3.94-3.28-4.61L23,45.72l.5-.21c.29-.12,7-3,8.9-3.61L34,41.41l-1,1.27c-.4.52-1.44,2-2.55,3.53-1.29,1.82-2.63,3.69-3.23,4.48Zm-2.51-4.82a22.47,22.47,0,0,0,2.29,3.46c.67-.92,1.8-2.5,2.9-4l1.59-2.22C29,44.26,25.7,45.67,24.44,46.21Z"/><path class="cls-1" d="M54.21,35.74v3.93c0-1.46,0-2.69,0-3.93Z"/><rect class="cls-2" x="53.71" y="35.74" width="1" height="3.93"/><path class="cls-1" d="M65.58,22.35c3.48-8.56-.5-17.56-8.76-20.25A6,6,0,0,0,53.1,2c-3.17,1.25-6,3.11-7.41,6.42-.67,1.53-1.47,3-2,4.6-.41,1.23-1,2.54-.31,4.06.8-.72,1.46-1.39,2.2-1.94a4,4,0,0,1,5.06.06,7.28,7.28,0,0,1,2.59,5.44,11.51,11.51,0,0,0,.19,1.55c4.25-.5,7.59,1.87,7,6.6A13.67,13.67,0,0,0,65.58,22.35Z"/><path class="cls-2" d="M59.77,29.8l.14-1.12a5.32,5.32,0,0,0-1.26-4.59,6.14,6.14,0,0,0-5.17-1.44l-.49.06-.06-.49c0-.16,0-.32-.08-.47a7.23,7.23,0,0,1-.12-1.16,6.76,6.76,0,0,0-2.44-5.08,3.44,3.44,0,0,0-4.41,0c-.48.36-.94.79-1.43,1.24l-.74.67-.52.46-.27-.63a5.26,5.26,0,0,1,.18-4.08l.12-.34a28.57,28.57,0,0,1,1.35-3.21c.23-.48.45-.95.66-1.43C46.56,5.16,49,3,52.91,1.49A6.64,6.64,0,0,1,57,1.63,14.73,14.73,0,0,1,65.91,9.5a16.19,16.19,0,0,1,.14,13,14.26,14.26,0,0,1-5.35,6.62Zm-5.24-8.21a6.64,6.64,0,0,1,4.83,1.8A5.91,5.91,0,0,1,61,27.7a13,13,0,0,0,4.14-5.54l.46.19-.46-.19A15.19,15.19,0,0,0,65,9.92a13.79,13.79,0,0,0-8.35-7.34,5.52,5.52,0,0,0-3.38-.16c-3.65,1.44-5.92,3.4-7.13,6.16-.22.49-.44,1-.67,1.45a30.2,30.2,0,0,0-1.32,3.11l-.11.35a5.09,5.09,0,0,0-.43,2.65l.15-.14a18,18,0,0,1,1.51-1.3,4.43,4.43,0,0,1,5.71.1,7.68,7.68,0,0,1,2.74,5.81,5.77,5.77,0,0,0,.11,1v0C54.08,21.59,54.31,21.59,54.53,21.59Z"/><path class="cls-1" d="M66.32,57.75a8,8,0,0,0,6.59-4c.89-1.4,1.65-2.89,2.42-4.37a14.34,14.34,0,0,0,1.12-10.21c-.6-2.6-3.56-5.29-6.12-5.3-2.76,0-5.52.28-8.36.45,1.84,5.05.26,8.07-4.28,9.72a10,10,0,0,1,1.92,6.7c-.19,1.9-1.41,3.2-3.21,4.39A16.11,16.11,0,0,0,66.32,57.75Z"/><path class="cls-2" d="M65.21,58.29a16.93,16.93,0,0,1-9.07-2.76l-.67-.42.65-.43c2-1.28,2.84-2.48,3-4a9.48,9.48,0,0,0-1.85-6.38l-.36-.53.6-.21c2.19-.8,3.58-1.88,4.25-3.3s.61-3.39-.26-5.78l-.23-.64.67,0c.86,0,1.72-.12,2.57-.18,1.91-.13,3.9-.27,5.82-.27,2.73,0,5.94,2.77,6.61,5.69a15,15,0,0,1-1.16,10.55l-.2.37c-.69,1.35-1.42,2.73-2.24,4a8.55,8.55,0,0,1-7,4.26h0C66,58.28,65.59,58.29,65.21,58.29Zm-7.89-3.22a15.39,15.39,0,0,0,9,2.18h0a7.48,7.48,0,0,0,6.2-3.8c.81-1.27,1.52-2.63,2.21-4l.19-.37A13.83,13.83,0,0,0,76,39.25c-.57-2.47-3.37-4.9-5.64-4.91-1.87,0-3.77.13-5.75.27l-1.92.13a8,8,0,0,1,0,5.92,7.44,7.44,0,0,1-4.22,3.59,10.23,10.23,0,0,1,1.67,6.51A6.13,6.13,0,0,1,57.32,55.07Z"/><path class="cls-1" d="M17.85,71.94a3.58,3.58,0,0,0,2.55.15c3.72-1.06,6.21-3.55,7.93-7.19-3.52-.89-2.5-4.27-3.67-6.57-5.3,1.2-5.57-3-6.88-6.5a27.63,27.63,0,0,0-7.35,3.73,4.26,4.26,0,0,0-1.9,4.56,9.64,9.64,0,0,0,1,2.91c.76,1.39,1.81,2.63,2.56,4C13.37,69.46,15.71,70.6,17.85,71.94Z"/><path class="cls-2" d="M19.21,72.75a3.13,3.13,0,0,1-1.63-.39h0l-.89-.54c-1.91-1.15-3.87-2.34-5.05-4.53-.37-.68-.83-1.35-1.27-2a22.31,22.31,0,0,1-1.29-2,10.32,10.32,0,0,1-1-3.06,4.75,4.75,0,0,1,2.1-5.06,28.32,28.32,0,0,1,7.48-3.79l.46-.16.17.46c.21.55.39,1.13.57,1.7.95,3,1.7,5.39,5.73,4.49l.38-.09.18.35a9,9,0,0,1,.72,2.59c.31,1.78.56,3.19,2.63,3.72l.59.15-.26.55c-1.89,4-4.58,6.41-8.25,7.45A5.15,5.15,0,0,1,19.21,72.75Zm-1.1-1.24a3.08,3.08,0,0,0,2.15.09,11.64,11.64,0,0,0,7.37-6.39c-2.17-.82-2.5-2.68-2.78-4.34a10.51,10.51,0,0,0-.48-2c-4.57.85-5.6-2.38-6.51-5.24-.12-.4-.25-.8-.38-1.2A27.46,27.46,0,0,0,10.72,56,3.79,3.79,0,0,0,9,60,8.9,8.9,0,0,0,10,62.79a21.7,21.7,0,0,0,1.23,1.93,21.34,21.34,0,0,1,1.33,2.1c1.05,2,2.81,3,4.68,4.14l.91.55Z"/><path class="cls-1" d="M57.63,64.58A27.34,27.34,0,0,0,55.73,61a13.35,13.35,0,0,0-1.93-1.88c-.32.6-.52.92-.67,1.27a7.68,7.68,0,0,1-3.5,3.49,3.08,3.08,0,0,1-4.05-.54c-.37-.34-.8-.62-1.24-1-2.05,4.41-4.64,5.8-8.16,4.4a15.64,15.64,0,0,0,1.67,7.39c.87,2,2.35,2.39,4.48,1.94,4.29-.9,8-3.07,11.73-5.16a15.6,15.6,0,0,0,3.18-2.49C58.41,67.37,58.26,65.94,57.63,64.58Z"/><path class="cls-2" d="M40.86,76.84a3.51,3.51,0,0,1-3.47-2.43,16,16,0,0,1-1.7-7.61l0-.69.64.26c3.26,1.3,5.58,0,7.52-4.15l.26-.56.49.37.41.3a7.12,7.12,0,0,1,.87.69,2.58,2.58,0,0,0,3.46.47,7.3,7.3,0,0,0,3.29-3.26,7,7,0,0,1,.39-.77c.09-.15.18-.33.3-.53l.3-.58.48.45c.23.22.47.42.69.61a6.68,6.68,0,0,1,1.31,1.35,27.36,27.36,0,0,1,1.94,3.61h0c1.07,2.28.32,3.7-.49,4.49a16,16,0,0,1-3.28,2.58l-.67.37c-3.49,2-7.09,4-11.21,4.84A7.33,7.33,0,0,1,40.86,76.84Zm-4.2-9.31A16.18,16.18,0,0,0,38.31,74c.7,1.66,1.76,2.1,3.92,1.65,4-.83,7.5-2.81,10.92-4.73l.67-.38a14.91,14.91,0,0,0,3.07-2.41c.86-.84,1-1.93.29-3.36h0a27.63,27.63,0,0,0-1.87-3.47,6.09,6.09,0,0,0-1.13-1.15L53.93,60c-.14.26-.25.46-.34.66a8.16,8.16,0,0,1-3.71,3.73,3.57,3.57,0,0,1-4.64-.6,8,8,0,0,0-.71-.56C42.53,67.13,40,68.56,36.66,67.53Z"/><path class="cls-1" d="M47.57,62a3.79,3.79,0,0,0,3.26-2.12,5.65,5.65,0,0,0-1.65-6.79l-5.25,4.09a19,19,0,0,0,.78,2.63A3.08,3.08,0,0,0,47.57,62Z"/><path class="cls-2" d="M47.43,62.54a3.55,3.55,0,0,1-3.17-2.49,11.31,11.31,0,0,1-.61-1.93c-.07-.26-.13-.52-.2-.76l-.1-.33,5.84-4.55.31.26a6.17,6.17,0,0,1,1.78,7.4,4.28,4.28,0,0,1-3.68,2.39ZM44.5,57.41l.12.46a10.8,10.8,0,0,0,.55,1.78,2.64,2.64,0,0,0,2.37,1.89h0a3.3,3.3,0,0,0,2.85-1.84,5.11,5.11,0,0,0-1.24-5.92Z"/><path class="cls-1" d="M49.58,17.29c-1.13-.6-2.18-.39-3.1.9C45.4,19.71,44,21.1,43.74,22.9L49,25.48c.7-1.67,1.5-3.3,2.06-5A2.82,2.82,0,0,0,49.58,17.29Z"/><path class="cls-2" d="M49.28,26.16l-6.09-3,.05-.36a9.11,9.11,0,0,1,2.11-4c.24-.32.49-.64.72-1a2.68,2.68,0,0,1,3.74-1.06h0a3.33,3.33,0,0,1,1.75,3.79,38.36,38.36,0,0,1-1.44,3.56c-.21.5-.43,1-.64,1.48Zm-5-3.54,4.46,2.18c.14-.34.29-.68.44-1,.5-1.13,1-2.3,1.4-3.47a2.34,2.34,0,0,0-1.26-2.59c-1-.51-1.73-.28-2.46.75-.24.33-.5.66-.75,1A9.18,9.18,0,0,0,44.31,22.62Z"/><path class="cls-1" d="M53,31.35c3.15.25,4.08-.61,5.08-4.64-2.3-3.15-4.79-2.89-7.32.85.38.55.81,1.11,1.17,1.72S52.61,30.69,53,31.35Z"/><path class="cls-2" d="M53.77,31.89c-.27,0-.56,0-.86,0l-.28,0L52.19,31c-.23-.47-.47-1-.75-1.43s-.51-.8-.78-1.18l-.36-.51-.19-.28.19-.28c1.44-2.12,2.92-3.21,4.4-3.24h.06c1.29,0,2.52.8,3.68,2.38l.13.19,0,.22C57.61,30.45,56.7,31.89,53.77,31.89Zm-.5-1c2.46.16,3.28-.4,4.22-4.05A3.71,3.71,0,0,0,54.75,25h0c-1.08,0-2.22.87-3.4,2.52l.15.21c.29.41.58.82.84,1.26s.53,1,.78,1.49Z"/><path class="cls-1" d="M46.68,50.53c-3.23-2.28-6.36-5.06-9.16-7-.08.07,2.9,7.5,4.43,11Z"/><path class="cls-2" d="M41.76,55.37l-.27-.62c-.84-2-2-4.82-2.82-6.84-1.8-4.48-1.8-4.48-1.49-4.78l.3-.28.33.24c1.36,1,2.78,2.09,4.28,3.29S45.31,49,47,50.12l.53.38ZM38.54,44.86c.84,2.17,2.48,6.23,3.61,8.87l3.71-3.16c-1.5-1.09-3-2.27-4.4-3.41C40.45,46.35,39.48,45.58,38.54,44.86Z"/><path class="cls-1" d="M47.88,48.42c.89-1.74,2-3.09,2.23-5.18-3.64-.51-9.66-1.05-9.72-.81C43.3,44.22,44.65,46.84,47.88,48.42Z"/><path class="cls-2" d="M48.1,49.08l-.44-.21a16.31,16.31,0,0,1-4.33-3.34,18.14,18.14,0,0,0-3.2-2.67l-.32-.2.1-.35c.06-.24.24-1,10.27.43l.48.07-.06.49A10.61,10.61,0,0,1,49,47.42c-.22.4-.45.8-.67,1.23Zm-6.16-6.17c.76.61,1.43,1.27,2.09,1.91a16.25,16.25,0,0,0,3.64,2.93l.46-.83a10.55,10.55,0,0,0,1.4-3.26C46.9,43.32,43.73,43,41.94,42.91Z"/><path class="cls-1" d="M56.28,52.09c.94-.27,1.53-.72,1.5-1.82a4.72,4.72,0,0,0-4.59-4.71c-.82,1.54-1.62,3.07-2.53,4.77C52.43,51.76,54.09,52.71,56.28,52.09Z"/><path class="cls-2" d="M54.94,52.79a7.44,7.44,0,0,1-4.59-2.07L50,50.46,52.9,45l.33,0a5.19,5.19,0,0,1,5.05,5.19,2.2,2.2,0,0,1-1.87,2.31h0A5.19,5.19,0,0,1,54.94,52.79ZM51.3,50.2c1.63,1.27,3.05,1.92,4.84,1.41h0c.87-.25,1.16-.58,1.14-1.33a4.15,4.15,0,0,0-3.8-4.18Z"/><path class="cls-1" d="M51.22,36.2l-6.34,1.49-4.05,1.25s6.05,1.57,10.24,2.61C51.91,39.5,51.3,37.77,51.22,36.2Z"/><path class="cls-2" d="M51.37,42.14,51,42c-4.19-1-10.24-2.62-10.24-2.62L39,39l5.73-1.77s4.12-1,6.38-1.5l.58-.13,0,.59c0,.39.07.78.13,1.19a8,8,0,0,1-.31,4.38ZM42.66,38.9c2,.51,5.36,1.38,8.1,2.06a7.69,7.69,0,0,0,.1-3.46l-.09-.68c-2.31.53-5.78,1.36-5.78,1.36Z"/><path class="cls-1" d="M60,36.65A2.91,2.91,0,0,0,58.88,36a7.87,7.87,0,0,0-4.66-.28c0,1.24,0,2.47,0,3.93v1.55a26,26,0,0,0,4.64-.54A2.45,2.45,0,0,0,60,36.65Z"/><path class="cls-2" d="M53.71,41.77V35.4l.31-.13a8.53,8.53,0,0,1,5,.28,3.39,3.39,0,0,1,1.25.75h0A2.95,2.95,0,0,1,59,41.16a14,14,0,0,1-3.16.44c-.5,0-1,.06-1.57.11Zm1-5.66v4.56l1.07-.07a13.29,13.29,0,0,0,2.93-.4,1.9,1.9,0,0,0,1.34-1.36A1.94,1.94,0,0,0,59.58,37a2.39,2.39,0,0,0-.88-.5A8,8,0,0,0,54.72,36.11Z"/><path class="cls-1" d="M58.88,36a7.87,7.87,0,0,0-4.66-.28h0A7.87,7.87,0,0,1,58.88,36Z"/><path class="cls-2" d="M58.7,36.49a5.8,5.8,0,0,0-.59-.19,7,7,0,0,0-3.71-.09L54,35.27h0A5.26,5.26,0,0,1,55.75,35a9.8,9.8,0,0,1,2.35.27,7.79,7.79,0,0,1,1,.28Z"/><path class="cls-1" d="M38,64.09a2.3,2.3,0,0,0,2.71-1,6.25,6.25,0,0,0,1.45-5.34l-6.06.91c0,1.11-.06,2.14,0,3.15A2.55,2.55,0,0,0,38,64.09Z"/><path class="cls-2" d="M38.83,64.73a2.94,2.94,0,0,1-1-.17h0a3,3,0,0,1-2.22-2.66c-.06-.72,0-1.43,0-2.18,0-.33,0-.67,0-1v-.43l6.94-1,.11.44c.46,1.91,0,3.74-1.54,5.76A2.88,2.88,0,0,1,38.83,64.73Zm-2.2-5.59c0,.2,0,.4,0,.6a20.41,20.41,0,0,0,0,2.08,2,2,0,0,0,1.54,1.79h0a1.78,1.78,0,0,0,2.15-.77,6,6,0,0,0,1.45-4.48Z"/><path class="cls-1" d="M34.07,43.5s-4.44,6.13-5.67,9.27c1.18,1,2.86,1,4.53,1.66C33.22,49.69,34.07,43.5,34.07,43.5Z"/><path class="cls-2" d="M33.38,55.15l-.64-.25A13.33,13.33,0,0,0,31,54.38a6.3,6.3,0,0,1-2.92-1.24l-.26-.23.13-.32c1.23-3.16,5.55-9.14,5.73-9.39l1.17-1.62-.27,2c0,.07-.86,6.24-1.15,10.9ZM29,52.61a6.42,6.42,0,0,0,2.21.8c.41.1.83.2,1.25.33.2-2.9.59-6.22.85-8.29A53.33,53.33,0,0,0,29,52.61Z"/><path class="cls-1" d="M47.9,29.75,39,36l.16.42L50.5,33.31A5.6,5.6,0,0,0,47.9,29.75Z"/><path class="cls-2" d="M38.8,37l-.46-1.21,9.56-6.68.29.21A6.18,6.18,0,0,1,51,33.21l.09.46Zm9.09-6.66L40.5,35.53,49.89,33A4.94,4.94,0,0,0,47.89,30.36Z"/><path class="cls-1" d="M31.06,62c.54-1.15,1.08-2.33,1.65-3.55-1-.44-1.9-.78-2.74-1.18s-1.82-.92-2.71-1.37C25.39,58.56,26.32,61.3,31.06,62Z"/><path class="cls-2" d="M31.35,62.59,31,62.53c-3.23-.5-4.43-1.83-4.87-2.87a4.09,4.09,0,0,1,.74-4l.25-.35,1.21.62c.62.32,1.24.64,1.87.94s1.14.5,1.77.77l1.43.61Zm-3.92-6a3,3,0,0,0-.4,2.68c.45,1.07,1.77,1.84,3.74,2.21L32,58.75l-.48-.2c-.64-.27-1.23-.52-1.8-.79s-1.28-.63-1.91-1Z"/><path class="cls-1" d="M20.12,50.29c-.79,2.27,1.19,4.89,3.7,5.09l1.3-1.86-3-5.24C21.34,49,20.38,49.55,20.12,50.29Z"/><path class="cls-2" d="M24.06,55.9l-.28,0a4.79,4.79,0,0,1-3.6-2.18,4,4,0,0,1-.53-3.56A3.86,3.86,0,0,1,21,48.57a9,9,0,0,0,.76-.65l.47-.44,3.48,6.07ZM22,49.07l-.35.28a3.22,3.22,0,0,0-1.05,1.11h0A3.08,3.08,0,0,0,21,53.14a3.87,3.87,0,0,0,2.57,1.71l1-1.36Z"/><path class="cls-1" d="M39.63,54.94c-1.34-3.25-3.08-9.86-3.18-9.85,0,3.11-1,6.68-1,9.9A7.33,7.33,0,0,0,39.63,54.94Z"/><path class="cls-2" d="M37.57,55.77a9.8,9.8,0,0,1-2.26-.29l-.38-.1V55a35.84,35.84,0,0,1,.52-5.11,32.24,32.24,0,0,0,.5-4.79v-.42l.41-.07c.48-.08.48-.08,1.18,2.3.63,2.15,1.69,5.75,2.55,7.85l.21.49-.51.17A6.8,6.8,0,0,1,37.57,55.77Zm-1.63-1.18a6.84,6.84,0,0,0,3,0c-.76-2-1.61-4.81-2.2-6.82-.09.75-.21,1.5-.32,2.24A36.31,36.31,0,0,0,35.94,54.59Z"/><path class="cls-1" d="M42.1,26s-1.66,5.14-2.26,6.83l6.1-4.72Z"/><path class="cls-2" d="M38.8,34.27l.57-1.61C40,31,41.61,25.9,41.62,25.85l.19-.57,5,2.76Zm3.59-7.54c-.32,1-1,3.09-1.54,4.68L45,28.18Z"/></g></g></svg>