<svg xmlns="http://www.w3.org/2000/svg" viewBox="0 0 80.3 79.73"><defs><style>.cls-1{fill:#fff;}.cls-2{fill:#80445a;}</style></defs><g id="Calque_2" data-name="Calque 2"><g id="Calque_1-2" data-name="Calque 1"><path class="cls-1" d="M5.06,52a53.12,53.12,0,0,0,21-7.83,1.4,1.4,0,0,0,.51-2.26c-2.51,0-4.89,0-7.27,0a16.89,16.89,0,0,1-2.57-.13c-5.67-.91-10.51,1-14.92,4.33C.12,47.42.12,49,1.48,50.65A3.56,3.56,0,0,0,5.06,52Z"/><path class="cls-2" d="M4.34,52.57A4,4,0,0,1,1.09,51,4,4,0,0,1,0,48a3.46,3.46,0,0,1,1.53-2.31c5.09-3.81,10.1-5.26,15.3-4.42a14.21,14.21,0,0,0,2.17.12h7.86l.15.23a2.09,2.09,0,0,1,.42,1.62,2.2,2.2,0,0,1-1.08,1.33A53.81,53.81,0,0,1,5.13,52.52h0A5.41,5.41,0,0,1,4.34,52.57ZM14,42.07c-4,0-7.78,1.45-11.8,4.46A2.57,2.57,0,0,0,1,48.17a3,3,0,0,0,.86,2.17A3.07,3.07,0,0,0,5,51.53H5a52.89,52.89,0,0,0,20.84-7.76,1.34,1.34,0,0,0,.64-.7,1,1,0,0,0-.14-.64H19a15.24,15.24,0,0,1-2.33-.13A17.17,17.17,0,0,0,14,42.07Z"/><path class="cls-1" d="M65.78,14.18A53.06,53.06,0,0,0,50.1,30.25a1.39,1.39,0,0,0,.5,2.25l6.57-3.1a16.92,16.92,0,0,1,2.39-1c5.51-1.6,9.06-5.42,11.64-10.29,1-1.91.35-3.3-1.6-4.25A3.57,3.57,0,0,0,65.78,14.18Z"/><path class="cls-2" d="M50.57,33.07l-.23-.14a2.15,2.15,0,0,1-1.07-1.28A2.19,2.19,0,0,1,49.68,30,53.9,53.9,0,0,1,65.5,13.76h0a4.06,4.06,0,0,1,4.31-.33A3.89,3.89,0,0,1,72,15.62a3.48,3.48,0,0,1-.39,2.75c-3,5.62-6.88,9.06-11.94,10.53a14.61,14.61,0,0,0-2,.82l-.28.14c-1.49.69-3,1.39-4.5,2.12ZM66.06,14.59A52.78,52.78,0,0,0,50.53,30.52a1.26,1.26,0,0,0-.29.9,1,1,0,0,0,.41.51l1.81-.86c1.52-.72,3-1.43,4.5-2.12l.29-.13a14.28,14.28,0,0,1,2.17-.88c4.85-1.41,8.45-4.6,11.34-10a2.48,2.48,0,0,0,.32-2,3,3,0,0,0-1.7-1.6,3.09,3.09,0,0,0-3.32.26Z"/><path class="cls-1" d="M76.44,43.1A53,53,0,0,0,54,44.21c-1,.28-1.5.81-1.17,2l6.93,2.2a18.46,18.46,0,0,1,2.42.9c5.12,2.58,10.32,2.2,15.52.38,2-.71,2.51-2.18,1.72-4.2A3.56,3.56,0,0,0,76.44,43.1Z"/><path class="cls-2" d="M69.92,51.63a17.49,17.49,0,0,1-8-1.88,13.83,13.83,0,0,0-2-.77l-.31-.1c-1.62-.53-3.25-1-4.92-1.57l-2.26-.71-.07-.26a2.13,2.13,0,0,1,.09-1.67,2.18,2.18,0,0,1,1.43-.94,53.67,53.67,0,0,1,22.63-1.12h0a4.07,4.07,0,0,1,3.39,2.69A3.91,3.91,0,0,1,80,48.41a3.47,3.47,0,0,1-2.15,1.75A24.29,24.29,0,0,1,69.92,51.63ZM53.27,45.81l1.73.55c1.68.53,3.31,1,4.93,1.57l.31.1a14.13,14.13,0,0,1,2.18.83c4.51,2.27,9.32,2.38,15.14.35A2.59,2.59,0,0,0,79.14,48,3.06,3.06,0,0,0,79,45.66a3.09,3.09,0,0,0-2.62-2.07h0A52.68,52.68,0,0,0,54.15,44.7a1.23,1.23,0,0,0-.82.46A1,1,0,0,0,53.27,45.81Z"/><path class="cls-1" d="M5.17,37.8c1.72.27,3.45.5,5.19.67,1.58.16,3.17.2,4.76.3l10.63.69a1.4,1.4,0,0,0,.35-.15c.18-1.49.36-3,.54-4.62l-2.46-1.17A28.25,28.25,0,0,0,10.8,30.69,18.89,18.89,0,0,0,2.09,32.9c-1.16.65-1.32,1.27-.52,2.3A5.91,5.91,0,0,0,5.17,37.8Z"/><path class="cls-2" d="M25.76,40h0l-10.64-.68-1.64-.09c-1,0-2.09-.11-3.14-.21-1.71-.17-3.47-.4-5.22-.68h0A6.32,6.32,0,0,1,1.18,35.5,2.17,2.17,0,0,1,.6,33.83a2.26,2.26,0,0,1,1.24-1.37,19.16,19.16,0,0,1,8.94-2.27,28.72,28.72,0,0,1,13.61,2.88l2.79,1.33-.61,5.25-.26.11-.16.08A.86.86,0,0,1,25.76,40Zm-13.88-8.8c-.35,0-.71,0-1.06,0a18.25,18.25,0,0,0-8.49,2.14c-.46.26-.71.49-.75.7s.09.48.39.86A5.41,5.41,0,0,0,5.25,37.3h0c1.73.28,3.47.51,5.16.67,1,.1,2.08.16,3.09.21l1.65.09L25.64,39l.46-4L24,34A28,28,0,0,0,11.88,31.16Z"/><path class="cls-1" d="M43.14,54.06a31.91,31.91,0,0,0,.66,4.22,86,86,0,0,0,2.56,10.11,48.7,48.7,0,0,0,4.32,8.48c1.15,1.88,3.33,1.45,4.19-.64a8.73,8.73,0,0,0-.07-6.53,54.82,54.82,0,0,0-2.1-5.08c-1.59-3.2-3.27-6.35-4.94-9.51a5.41,5.41,0,0,0-.78-.89l-1.89-2.31C43.3,52.26,43,52.51,43.14,54.06Z"/><path class="cls-2" d="M52.56,78.57a2.72,2.72,0,0,1-2.31-1.44,49.26,49.26,0,0,1-4.36-8.57,59.39,59.39,0,0,1-2-7.7c-.18-.82-.36-1.65-.55-2.47a33,33,0,0,1-.67-4.29c-.17-1.88.41-2.3,2.35-2.68l.29-.06.87,1.06,1.22,1.48a2.37,2.37,0,0,0,.27.28,3,3,0,0,1,.56.69L49,56.31c1.4,2.64,2.84,5.37,4.18,8.09a52.08,52.08,0,0,1,2.13,5.13,9.13,9.13,0,0,1,.06,6.89,3.19,3.19,0,0,1-2.58,2.14ZM44.89,52.46c-1.37.28-1.35.46-1.25,1.55h0a29.73,29.73,0,0,0,.65,4.16c.19.82.37,1.65.55,2.48a57.71,57.71,0,0,0,2,7.57,49,49,0,0,0,4.27,8.39,1.71,1.71,0,0,0,1.57,1A2.21,2.21,0,0,0,54.4,76a8.12,8.12,0,0,0-.07-6.16,54.23,54.23,0,0,0-2.08-5c-1.34-2.71-2.78-5.43-4.17-8.06l-.76-1.44a2.42,2.42,0,0,0-.38-.44,3.82,3.82,0,0,1-.34-.36l-1.22-1.49Z"/><path class="cls-1" d="M53.84,38.51a30.49,30.49,0,0,0,4.27-.25,86.32,86.32,0,0,0,10.31-1.57,47.81,47.81,0,0,0,8.85-3.47c2-1,1.77-3.17-.23-4.23a8.62,8.62,0,0,0-6.49-.57c-1.78.47-3.56,1-5.27,1.6-3.34,1.27-6.64,2.64-10,4a5.59,5.59,0,0,0-.95.69l-2.49,1.66C52.06,38.17,52.29,38.5,53.84,38.51Z"/><path class="cls-2" d="M54.07,39h-.23c-1.9,0-2.26-.63-2.44-2.6l0-.3,1.08-.72,1.65-1.1.3-.25a3,3,0,0,1,.75-.49l1.54-.64c2.75-1.12,5.59-2.29,8.41-3.36a54.84,54.84,0,0,1,5.32-1.61,9.08,9.08,0,0,1,6.86.61,3.16,3.16,0,0,1,1.88,2.77,2.69,2.69,0,0,1-1.67,2.35,48.69,48.69,0,0,1-8.95,3.51,58.74,58.74,0,0,1-7.86,1.27l-2.51.31A33,33,0,0,1,54.07,39Zm-.23-1a32.56,32.56,0,0,0,4.2-.24l2.53-.31a59.27,59.27,0,0,0,7.73-1.25,49.07,49.07,0,0,0,8.76-3.44,1.7,1.7,0,0,0,1.1-1.47,2.24,2.24,0,0,0-1.35-1.87,8.12,8.12,0,0,0-6.14-.53c-1.79.48-3.55,1-5.21,1.59-2.82,1.06-5.65,2.23-8.39,3.35l-1.55.63a1.9,1.9,0,0,0-.47.34q-.19.16-.39.3c-.52.36-1,.71-1.65,1.11l-.59.39c.15,1.39.33,1.39,1.42,1.4Z"/><path class="cls-1" d="M40.49,26.44a32.59,32.59,0,0,0,1-4.14A89,89,0,0,0,43.14,12a48,48,0,0,0-.65-9.49c-.32-2.19-2.5-2.64-4.1-1a8.67,8.67,0,0,0-2.5,6,53.33,53.33,0,0,0,0,5.51c.2,3.56.51,7.12.81,10.68A5.44,5.44,0,0,0,37,24.78c.26.87.51,1.75.84,2.87C39.63,28,40,27.91,40.49,26.44Z"/><path class="cls-2" d="M39.13,28.33a6.8,6.8,0,0,1-1.38-.19l-.29-.06-.37-1.28c-.2-.68-.37-1.28-.55-1.87,0-.13-.09-.25-.14-.37a3.09,3.09,0,0,1-.25-.86L36,22c-.25-2.95-.5-6-.67-9a51.54,51.54,0,0,1,0-5.55A9.05,9.05,0,0,1,38,1.09a3.17,3.17,0,0,1,3.21-1A2.69,2.69,0,0,1,43,2.43,49,49,0,0,1,43.64,12a57.55,57.55,0,0,1-1.15,7.88c-.16.83-.31,1.66-.46,2.48A32.54,32.54,0,0,1,41,26.59h0C40.55,27.88,40.08,28.33,39.13,28.33Zm-.88-1.11c1.37.28,1.43.11,1.76-.93h0a29.39,29.39,0,0,0,1-4.08c.15-.83.31-1.67.47-2.5A57.9,57.9,0,0,0,42.64,12,48.72,48.72,0,0,0,42,2.57a1.68,1.68,0,0,0-1.07-1.49,2.25,2.25,0,0,0-2.19.72,8.13,8.13,0,0,0-2.35,5.7c-.09,1.86-.15,3.67-.06,5.45.17,3,.43,6,.68,9l.14,1.68a2.06,2.06,0,0,0,.17.56,3.66,3.66,0,0,1,.18.46c.18.6.35,1.2.55,1.88Z"/><path class="cls-1" d="M27.84,48.74a51.57,51.57,0,0,0-8.11,3.19c-1.22.72-2.23,1.8-3.45,2.54a40.65,40.65,0,0,0-8,6.78,7.26,7.26,0,0,0-1.87,5.47c0,1.81.64,2.23,2.43,1.82a13.54,13.54,0,0,0,6.58-4.13c4.21-4.28,8.17-8.82,12.23-13.26C28.32,50.46,28.45,48.64,27.84,48.74Z"/><path class="cls-2" d="M7.84,69.19a1.85,1.85,0,0,1-1.17-.36A2.63,2.63,0,0,1,6,66.73,7.85,7.85,0,0,1,8,60.9,40.77,40.77,0,0,1,16,54a14.8,14.8,0,0,0,1.63-1.2,13.66,13.66,0,0,1,1.83-1.34,50.41,50.41,0,0,1,8.27-3.25h0a.77.77,0,0,1,.82.41,3,3,0,0,1-.51,2.83q-1.75,1.92-3.5,3.86c-2.82,3.12-5.74,6.36-8.74,9.42A14.17,14.17,0,0,1,9,69,5.59,5.59,0,0,1,7.84,69.19ZM27.73,49.28A54,54,0,0,0,20,52.36a14.79,14.79,0,0,0-1.7,1.25,16,16,0,0,1-1.74,1.29,39.57,39.57,0,0,0-7.86,6.7A6.63,6.63,0,0,0,7,66.72c0,.72.12,1.16.34,1.33s.71.18,1.48,0a13.17,13.17,0,0,0,6.33-4c3-3,5.9-6.26,8.72-9.38l3.5-3.87A2.31,2.31,0,0,0,27.73,49.28Z"/><path class="cls-1" d="M33.79,26.54A52.2,52.2,0,0,0,33,17.86c-.34-1.38-1.1-2.66-1.46-4a40.11,40.11,0,0,0-4.24-9.56A7.2,7.2,0,0,0,22.62.92c-1.73-.49-2.31,0-2.43,1.82a13.63,13.63,0,0,0,2.09,7.48c2.91,5.25,6.14,10.34,9.24,15.49C32,26.51,33.72,27.15,33.79,26.54Z"/><path class="cls-2" d="M33.41,27.28A3.17,3.17,0,0,1,31.09,26c-.89-1.49-1.8-3-2.71-4.46-2.19-3.59-4.46-7.31-6.54-11A14.11,14.11,0,0,1,19.69,2.7,2.8,2.8,0,0,1,20.54.53,2.68,2.68,0,0,1,22.76.44a7.87,7.87,0,0,1,5,3.58,41.16,41.16,0,0,1,4.29,9.68,13.64,13.64,0,0,0,.69,1.9,15.51,15.51,0,0,1,.76,2.14,52.49,52.49,0,0,1,.77,8.86h0a.77.77,0,0,1-.63.66Zm-11.85-26a.75.75,0,0,0-.44.11c-.24.16-.38.63-.43,1.42a13.16,13.16,0,0,0,2,7.2c2.06,3.73,4.33,7.44,6.52,11L32,25.45a2.38,2.38,0,0,0,1.35.83,52.89,52.89,0,0,0-.75-8.3,13.59,13.59,0,0,0-.71-2,14.16,14.16,0,0,1-.74-2,40.05,40.05,0,0,0-4.19-9.44A6.7,6.7,0,0,0,22.49,1.4,3.6,3.6,0,0,0,21.56,1.24Z"/><path class="cls-1" d="M9.42,20.93a31.53,31.53,0,0,0,7.08,5.2c3.55,1.77,7,3.68,10.56,5.52.1.05.29,0,.57-.1L29.15,29a8.61,8.61,0,0,0-.83-1.28c-2.31-2.41-4.66-4.81-7-7.2a8.47,8.47,0,0,0-.93-.75,33.13,33.13,0,0,0-10.7-5.16c-1.11-.35-2.36-.6-3.36.61A10.12,10.12,0,0,0,9.42,20.93Z"/><path class="cls-2" d="M27.13,32.16a.55.55,0,0,1-.3-.07c-1.22-.63-2.44-1.28-3.66-1.93-2.25-1.19-4.58-2.43-6.9-3.59A32.21,32.21,0,0,1,9.08,21.3h0a10.68,10.68,0,0,1-3.24-6l0-.23L6,14.88a3.32,3.32,0,0,1,3.89-.77A33.94,33.94,0,0,1,20.7,19.35l.24.18a6.08,6.08,0,0,1,.74.62q3.51,3.59,7,7.21a4.47,4.47,0,0,1,.63.91c.08.14.16.29.26.44l.17.26-1.8,3-.22,0-.22.06A1.43,1.43,0,0,1,27.13,32.16ZM6.87,15.34a9.51,9.51,0,0,0,2.88,5.22h0a31.35,31.35,0,0,0,7,5.12c2.33,1.16,4.66,2.4,6.92,3.6l3.54,1.87h0l.08,0L28.57,29l-.13-.23a4.36,4.36,0,0,0-.48-.71q-3.47-3.61-7-7.2a5.49,5.49,0,0,0-.62-.52l-.25-.19A32.9,32.9,0,0,0,9.54,15.07C8.39,14.71,7.57,14.64,6.87,15.34Z"/><path class="cls-1" d="M49,8.5a31.28,31.28,0,0,0-3.07,8.23c-.74,3.9-1.63,7.77-2.45,11.66,0,.12.13.27.25.52l2.89.77a7.62,7.62,0,0,0,1-1.14q2.55-4.34,5-8.7a8.31,8.31,0,0,0,.48-1.1,33.38,33.38,0,0,0,2-11.7c0-1.16-.07-2.44-1.5-3.06A10.09,10.09,0,0,0,49,8.5Z"/><path class="cls-2" d="M46.75,30.24l-3.4-.9-.1-.2a1.76,1.76,0,0,0-.12-.2.91.91,0,0,1-.18-.65c.28-1.34.57-2.68.86-4,.54-2.5,1.1-5.08,1.58-7.63a32.48,32.48,0,0,1,3.12-8.36h0a10.66,10.66,0,0,1,4.9-4.75l.21-.11.22.1a3.32,3.32,0,0,1,1.8,3.54,33.86,33.86,0,0,1-2.09,11.87l-.11.28a6.76,6.76,0,0,1-.39.88q-2.5,4.36-5,8.7a4.39,4.39,0,0,1-.71.85L47,30ZM44,28.48l2.39.64.18-.18a3.43,3.43,0,0,0,.55-.66q2.55-4.32,5-8.69a5.67,5.67,0,0,0,.33-.74l.11-.29A33.09,33.09,0,0,0,54.64,7c0-1.21-.12-2-1-2.49a9.37,9.37,0,0,0-4.23,4.19h0a31.24,31.24,0,0,0-3,8.09c-.49,2.57-1.05,5.16-1.59,7.66-.28,1.3-.56,2.6-.83,3.89l0,0Z"/><path class="cls-1" d="M30.37,52.73c-1.4,2-2.64,4.19-4.2,6.09a27,27,0,0,0-4.92,9.95,29.26,29.26,0,0,0-.8,3.94A2.45,2.45,0,0,0,22,75.39c1.12.49,2.31.7,3.3-.39a12.22,12.22,0,0,0,1.74-2A45,45,0,0,0,33,51.68C33,51.31,30.86,52,30.37,52.73Z"/><path class="cls-2" d="M23.62,76.29a4.58,4.58,0,0,1-1.79-.44A2.94,2.94,0,0,1,20,72.64a28.44,28.44,0,0,1,.8-4,27.52,27.52,0,0,1,5-10.14,44.43,44.43,0,0,0,2.8-4c.45-.69.9-1.39,1.37-2.07a4.16,4.16,0,0,1,3.11-1.33.59.59,0,0,1,.42.57,45.88,45.88,0,0,1-6,21.6,6.85,6.85,0,0,1-1.22,1.45,8.21,8.21,0,0,0-.59.59A2.7,2.7,0,0,1,23.62,76.29Zm8.84-24.16a3.83,3.83,0,0,0-1.68.88h0c-.47.68-.92,1.37-1.36,2.06a46.66,46.66,0,0,1-2.86,4.07A28.66,28.66,0,0,0,21,72.78a2,2,0,0,0,1.29,2.15c1.24.55,2.06.47,2.73-.27.19-.22.41-.43.63-.64a5.73,5.73,0,0,0,1-1.21A44.77,44.77,0,0,0,32.46,52.13Z"/><path class="cls-1" d="M50.59,52.61c1.6,1.88,3.36,3.63,4.79,5.63a27.25,27.25,0,0,0,8.34,7.34,28.67,28.67,0,0,0,3.6,1.78,2.45,2.45,0,0,0,3-.83c.76-1,1.27-2.06.47-3.29a11.48,11.48,0,0,0-1.43-2.19A45.1,45.1,0,0,0,50.25,49.81C49.9,49.71,50,52,50.59,52.61Z"/><path class="cls-2" d="M68.32,68.07a3.08,3.08,0,0,1-1.2-.25A28.32,28.32,0,0,1,63.46,66,27.29,27.29,0,0,1,55,58.53a42.9,42.9,0,0,0-3.13-3.73c-.55-.62-1.11-1.24-1.64-1.87a4.17,4.17,0,0,1-.48-3.34.58.58,0,0,1,.66-.26A45.66,45.66,0,0,1,69.71,60.69a6.54,6.54,0,0,1,1.08,1.55q.19.38.42.72a3.19,3.19,0,0,1-.5,3.88A3,3,0,0,1,68.32,68.07ZM50.55,50.43A3.83,3.83,0,0,0,51,52.28h0c.53.63,1.08,1.24,1.63,1.85A45.44,45.44,0,0,1,55.79,58,26.49,26.49,0,0,0,64,65.15a27,27,0,0,0,3.53,1.75,2,2,0,0,0,2.42-.69c.85-1.06,1-1.87.44-2.7-.16-.25-.31-.52-.46-.78a5.47,5.47,0,0,0-.9-1.32A44.66,44.66,0,0,0,50.55,50.43Z"/><path class="cls-1" d="M39.93,54a1.47,1.47,0,0,0-1.41-1.62c-.54-.07-1.09-.07-2.11-.12-.35,2.44-.57,4.71-1,6.94A39.57,39.57,0,0,0,34.71,72a46.49,46.49,0,0,0,1,5.63c.51,1.94,1.74,2.13,3.06.56A16,16,0,0,0,40.2,76C41.43,73.88,39.94,55.43,39.93,54Z"/><path class="cls-2" d="M37.15,79.73a1.15,1.15,0,0,1-.33,0c-.5-.11-1.18-.54-1.55-1.94a45.67,45.67,0,0,1-1.05-5.69,40.16,40.16,0,0,1,.7-13c.29-1.51.48-3,.69-4.65.1-.74.19-1.5.3-2.27l.07-.46.46,0,.91,0c.5,0,.87,0,1.24.09A1.94,1.94,0,0,1,40.43,54h0c0,.27.06,1.24.15,2.59.58,9.26,1,18,.05,19.64l-.26.46a12.2,12.2,0,0,1-1.18,1.81A2.78,2.78,0,0,1,37.15,79.73Zm-.31-26.95-.24,1.81c-.21,1.63-.4,3.16-.7,4.7a39.49,39.49,0,0,0-.69,12.64,44.78,44.78,0,0,0,1,5.56c.19.71.48,1.16.81,1.23s.86-.24,1.38-.86a11.68,11.68,0,0,0,1.08-1.67l.27-.46c.91-1.55.11-14.28-.19-19.08-.09-1.41-.15-2.35-.15-2.65h0a1,1,0,0,0-1-1.12c-.34,0-.68-.06-1.15-.08Z"/><path class="cls-1" d="M48.29,38.12a6.19,6.19,0,0,0-1.83-3.21c-1.94-1.71-2.74-2.68-6.74-3.37s-8.67,3.63-9,4.46a6.38,6.38,0,0,0-.5,1.79,13.91,13.91,0,0,0,2,8.19,6.26,6.26,0,0,0,2.71,2.51,15.61,15.61,0,0,0,6.32,1.22,12.81,12.81,0,0,0,3.93-.43,4.67,4.67,0,0,0,1.38-1,7,7,0,0,0,1.18-1.76A13.92,13.92,0,0,0,48.29,38.12Zm-5,8c-.16.2-.33.39-.51.58A3.81,3.81,0,0,1,40,48c-1.52-.13-4.17-2.15-5.23-5.17-.81-2.3-1.19-5.5.21-6.62s2.88-2.89,4.78-2.89,5.1,3.21,5.24,7.14A8.17,8.17,0,0,1,43.29,46.1Z"/><path class="cls-2" d="M41.51,50.21h-.26A16,16,0,0,1,34.73,49a6.84,6.84,0,0,1-2.94-2.73,14.28,14.28,0,0,1-2.05-8.48,5.72,5.72,0,0,1,.45-1.67l.08-.24c.37-1,5.24-5.52,9.54-4.78,3.81.66,4.84,1.57,6.54,3.09l.44.4a6.72,6.72,0,0,1,2,3.48,14.22,14.22,0,0,1-.56,8.7A7.51,7.51,0,0,1,47,48.61a5.8,5.8,0,0,1-1.54,1.12A11.87,11.87,0,0,1,41.51,50.21ZM38.83,32c-3.54,0-7.37,3.6-7.62,4.21l-.08.23a5.27,5.27,0,0,0-.4,1.42,13.31,13.31,0,0,0,1.94,7.9A5.72,5.72,0,0,0,35.14,48a15.11,15.11,0,0,0,6.12,1.17,12.37,12.37,0,0,0,3.7-.37A4.44,4.44,0,0,0,46.19,48a6.69,6.69,0,0,0,1.1-1.63,13.31,13.31,0,0,0,.52-8.11h0a5.72,5.72,0,0,0-1.67-2.94l-.45-.41c-1.62-1.44-2.51-2.24-6-2.85A5.52,5.52,0,0,0,38.83,32Zm1.35,16.5h-.26C38.1,48.31,35.33,46,34.26,43c-.7-2-1.41-5.75.36-7.17.3-.23.59-.49.9-.76C36.7,34,38,32.78,39.72,32.78c2.16,0,5.59,3.41,5.74,7.62a8.61,8.61,0,0,1-1.78,6c-.17.2-.35.41-.54.61A4.3,4.3,0,0,1,40.18,48.47Zm-.46-14.69c-1.3,0-2.44,1-3.54,2l-.93.8c-1.1.87-.85,3.77,0,6,1,2.84,3.47,4.73,4.8,4.84a3.24,3.24,0,0,0,2.4-1.11,6,6,0,0,0,.5-.56h0a7.66,7.66,0,0,0,1.56-5.35C44.33,36.66,41.22,33.78,39.72,33.78Z"/></g></g></svg>