<svg xmlns="http://www.w3.org/2000/svg" viewBox="0 0 16.12 10.21"><defs><style>.cls-1{fill:#fff;}</style></defs><g id="Calque_2" data-name="Calque 2"><g id="Calque_1-2" data-name="Calque 1"><path class="cls-1" d="M6.5,4.56A1.73,1.73,0,0,0,8,2.66,2.55,2.55,0,0,0,5.2,0H0V10H5.2s3.18.1,3.18-2.95C8.38,7.05,8.51,4.56,6.5,4.56ZM2.29,1.78H5.2s.71,0,.71,1S5.49,4,5,4H2.29ZM5.07,8.22H2.29V5.55H5.2s1,0,1,1.37C6.25,8.08,5.48,8.21,5.07,8.22Z"/><path class="cls-1" d="M12.61,2.54c-3.84,0-3.84,3.84-3.84,3.84a3.55,3.55,0,0,0,3.84,3.82S16,10.4,16,7.55H14.27s.06,1.07-1.6,1.07a1.62,1.62,0,0,1-1.76-1.74h5.18S16.66,2.54,12.61,2.54Zm1.56,3H10.89A1.79,1.79,0,0,1,12.65,4,1.49,1.49,0,0,1,14.17,5.55Z"/><rect class="cls-1" x="10.46" y="0.59" width="4.12" height="1.23"/></g></g></svg>