<svg xmlns="http://www.w3.org/2000/svg" viewBox="0 0 10 10"><defs><style>.cls-1{fill:#fff;}</style></defs><g id="Calque_2" data-name="Calque 2"><g id="Calque_1-2" data-name="Calque 1"><path class="cls-1" d="M5,.9c1.34,0,1.49,0,2,0A2.7,2.7,0,0,1,8,1.1a1.47,1.47,0,0,1,.57.38,1.47,1.47,0,0,1,.38.57A2.7,2.7,0,0,1,9.07,3c0,.53,0,.68,0,2s0,1.49,0,2A2.7,2.7,0,0,1,8.9,8a1.47,1.47,0,0,1-.38.57A1.47,1.47,0,0,1,8,8.9,2.7,2.7,0,0,1,7,9.07c-.53,0-.68,0-2,0s-1.49,0-2,0a2.7,2.7,0,0,1-.93-.17,1.47,1.47,0,0,1-.57-.38A1.47,1.47,0,0,1,1.1,8,2.7,2.7,0,0,1,.93,7c0-.53,0-.68,0-2s0-1.49,0-2a2.7,2.7,0,0,1,.17-.93,1.47,1.47,0,0,1,.38-.57,1.47,1.47,0,0,1,.57-.38A2.7,2.7,0,0,1,3,.93c.53,0,.68,0,2,0M5,0C3.64,0,3.47,0,2.94,0A3.72,3.72,0,0,0,1.72.26,2.62,2.62,0,0,0,.26,1.72,3.72,3.72,0,0,0,0,2.94C0,3.47,0,3.64,0,5S0,6.53,0,7.06A3.72,3.72,0,0,0,.26,8.28,2.62,2.62,0,0,0,1.72,9.74,3.72,3.72,0,0,0,2.94,10c.53,0,.7,0,2.06,0s1.53,0,2.06,0a3.72,3.72,0,0,0,1.22-.23A2.62,2.62,0,0,0,9.74,8.28,3.72,3.72,0,0,0,10,7.06c0-.53,0-.7,0-2.06s0-1.53,0-2.06a3.72,3.72,0,0,0-.23-1.22A2.62,2.62,0,0,0,8.28.26,3.72,3.72,0,0,0,7.06,0C6.53,0,6.36,0,5,0ZM5,2.43A2.57,2.57,0,1,0,7.57,5,2.57,2.57,0,0,0,5,2.43ZM5,6.67A1.67,1.67,0,1,1,6.67,5,1.67,1.67,0,0,1,5,6.67ZM8.27,2.33a.6.6,0,1,1-.6-.6A.6.6,0,0,1,8.27,2.33Z"/></g></g></svg>